<?xml version="1.0" encoding="utf-8"?>
<!-- Generator: Adobe Illustrator 24.0.3, SVG Export Plug-In . SVG Version: 6.00 Build 0)  -->
<svg version="1.1" id="Layer_1" xmlns="http://www.w3.org/2000/svg" xmlns:xlink="http://www.w3.org/1999/xlink" x="0px" y="0px"
	 viewBox="0 0 165.9 59" style="enable-background:new 0 0 165.9 59;" xml:space="preserve">
<style type="text/css">
	.st0{fill:#FFFFFF;}
</style>
<g>
	<path class="st0" d="M15.4,1.9h35.8L11.8,58.5H4c-0.6,0-1-0.5-1-1c0-0.2,0.1-0.3,0.1-0.5l34-48.9c0.1-0.1,0.1-0.3-0.1-0.4
		c0,0-0.1,0-0.1,0H22.9c-1.7,0-3.4,0.3-4.9,1c-4.6,1.9-13.1,7.6-17.7,24.5C0.3,33.1-3.6,16,15.4,1.9z"/>
	<path class="st0" d="M53.8,58.5H17.9L57.3,1.9h7.8c0.6,0,1,0.5,0.9,1.1c0,0.1-0.1,0.3-0.1,0.4l-34,48.8c-0.1,0.1-0.1,0.3,0.1,0.4
		c0,0,0.1,0.1,0.2,0.1l14.1-0.1c1.7,0,3.3-0.3,4.8-0.9c4.7-1.9,13.2-7.6,17.7-24.5C68.8,27.2,72.7,44.4,53.8,58.5z"/>
	<path class="st0" d="M112.2,22.3l12.8-4v36.9c0,1.4,1.2,2.6,2.6,2.6h3.5v0.8h-19.5v-0.7h3.2c1.6,0,2.8-1.2,2.9-2.8l0.1-29.6
		C117.8,25.4,117.7,23.7,112.2,22.3z"/>
	<path class="st0" d="M141.2,22.8h-6.9l1.2-3.5h5.8c0.5-7.3,1.6-9.3,1.6-9.3c1.5-3.6,4.5-6.4,8.2-7.6c3.5-1.2,7.3-0.9,10.6,0.8
		c5.4,2.8,4.2,7.3,4.2,7.3c-1.4-3.6-4.8-6-8.6-6.1c-2.8-0.1-5.5,1.3-7,3.7c-1.1,1.7-1.7,3.7-1.6,5.7v5.4h11.1l-1.5,3.6h-9.7
		l0.1,32.5c0,1.4,1.2,2.6,2.6,2.6l0,0h5.5v0.8H133v-0.7h5.2c1.5-0.1,2.7-1.3,2.8-2.8L141.2,22.8z"/>
	<circle class="st0" cx="120.8" cy="5" r="5"/>
	<path class="st0" d="M110.9,50.4l-1.7,2.1c-0.6,0.7-1.3,1.3-2.1,1.7c-2.4,1.1-3.9-0.3-4.8-1.7c-0.6-1.1-1-2.4-0.9-3.7V24.7
		c0-0.7-0.3-1.4-0.7-2c-0.8-1.3-2-2.3-3.4-2.9c-6.8-3.3-13.2,0.3-13.2,0.3C74.6,24.6,76,35,76,35c0.9-3,2.4-5.7,4.5-8
		c1.3-1.5,3-2.6,4.8-3.4c6.1-2.4,8.7,1.7,8.7,1.7v8.2l-16.4,8.4c-4.5,2.8-5.8,6-5.8,8.6c-0.1,4.1,2.9,7.5,7,8
		c1.9,0.2,3.8,0.1,5.6-0.4c2.1-0.6,4.1-1.6,5.7-3c1.4-1.2,2.8-2.5,4-3.9c0.1,0.8,0.2,1.7,0.4,2.5c0.7,2.7,2.9,4.7,5.6,5.2
		c2,0.3,4,0,5.8-0.8C109,56.7,110.9,53.7,110.9,50.4z M94.1,48c0,0-5.6,6.7-11.6,4.9c-0.9-0.3-1.7-0.8-2.2-1.6l-0.2-0.2
		c-1.8-2.9-0.8-6.7,2.1-8.5l11.9-7.2V48z"/>
</g>
</svg>
