<?xml version="1.0" encoding="utf-8"?>
<!-- Generator: Adobe Illustrator 24.0.1, SVG Export Plug-In . SVG Version: 6.00 Build 0)  -->
<svg version="1.1" id="Layer_1" xmlns="http://www.w3.org/2000/svg" xmlns:xlink="http://www.w3.org/1999/xlink" x="0px" y="0px"
	 viewBox="0 0 1555.4 432.7" style="enable-background:new 0 0 1555.4 432.7;" xml:space="preserve">
<style type="text/css">
	.st0{fill:#3E7782;}
	.st1{fill:#FFFFFF;}
	.st2{fill:#3D7681;}
	.st3{fill:#3D7782;}
	.st4{fill:#B8BCBF;}
	.st5{fill:#B9BDBF;}
	.st6{fill:#7B9CA5;}
	.st7{fill:#FFFFFD;}
	.st8{fill:#3C7681;}
</style>
<g>
	<path class="st0" d="M1121.2,216.4c0.4-120.6,98-216.2,216.4-216c119,0.2,215.7,96.9,215.6,216.2
		c-0.1,118.8-96.6,215.9-216.3,215.7C1218.8,432.1,1121.7,336.6,1121.2,216.4z M1351.4,10.5c-52.1-0.1-87.5,9.7-120.2,29.3
		c-31.4,18.9-56.2,44.5-74.1,76.6c-17.1,30.6-25.9,63.7-25.9,98.9c0.1,56.8,19.9,105.9,59.9,146.1s88.8,60.7,145.7,60.8
		c56.8,0.1,105.7-20.3,145.8-60.2c39.9-39.7,60.3-88.6,60.5-144.9c0.2-56.8-20.2-106.1-60.4-146.3C1442.9,30.8,1394,11,1351.4,10.5z
		"/>
	<path class="st1" d="M642.7,214.8c-13.8,0.2-25.7-3-36.2-10.3c-13.2-9-20.8-21.5-22.6-37.4c-1.8-15.8,2.6-29.6,12.8-41.6
		c7.3-8.6,16.7-14.2,27.5-16.9c14.4-3.6,28.6-3.3,42.4,2.5c18.5,7.7,29.6,21.6,32.7,41.3c4.3,27.3-12.2,52.5-39.4,60
		C654,214.2,648,215,642.7,214.8z M641.8,124.3c-2.8,0-5.5,0.1-8.2,0.6c-11.5,2.3-20.4,8.3-25.5,19.1c-4.2,9-4.7,18.5-2,27.8
		c3.3,11.5,10.8,19.2,22.1,23.2c6.9,2.4,14,2.8,21.1,1.5c11.9-2.1,21-8.3,26.2-19.4c5-10.7,4.9-21.8,0.2-32.5
		c-3.2-7.5-8.7-13-16-16.5C654,125.4,648.1,124.2,641.8,124.3z"/>
	<path class="st2" d="M250.9,160.7c0,16.7,0,33.3,0,50c0,3.2,0.3,2.9-2.8,2.9c-4.9,0-9.8,0-14.7,0c-3,0-3,0.4-3-2.8
		c0-7.9,0-15.9,0-23.8c0-5.3,0-10.5,0-15.8c0-2.3,0-2.3-2.2-2.3c-16.8,0-33.5,0-50.2,0c-2.3,0-2.3,0-2.3,2.4c0,12.9,0,25.9,0,38.7
		c0,0.7,0,1.4,0,2.1c0,1-0.5,1.4-1.5,1.4c-5.9,0-11.8,0-17.7,0c-1.2,0-1.6-0.5-1.5-1.6c0-0.5,0-1.1,0-1.6c0-33.1,0-66.3,0-99.4
		c0-3.8-0.4-3.3,3.2-3.3c4.9,0,9.8,0,14.7,0c2.9,0,2.7-0.2,2.7,2.8c0,12.9,0,25.7,0,38.5c0,3.5-0.4,3.2,3.1,3.2
		c16.2,0,32.4,0,48.6,0c0.5,0,1.1,0,1.6,0c1.1,0.1,1.4-0.5,1.4-1.5c0-0.6,0-1.2,0-1.9c0-12.6,0-25.2,0-37.6c0-0.6,0.1-1.3,0-1.9
		c-0.1-1.3,0.5-1.7,1.8-1.6c2.2,0.1,4.5,0,6.7,0c3.3,0,6.6,0,9.9,0c2.1,0,2.2,0,2.2,2.3c0,4.8,0,9.6,0,14.5
		C250.9,136.5,250.9,148.6,250.9,160.7z"/>
	<path class="st1" d="M502.8,164.1c7.6,4.3,11.8,11.2,15.8,18.3c4.7,8.5,8.8,17.3,13.7,25.8c1,1.7,2,3.4,3,5.2
		c-0.8,0.4-1.5,0.3-2.2,0.3c-6.1,0-12.1-0.1-18.2,0.1c-1.8,0-2.7-0.7-3.6-2.1c-3.1-5.1-5.7-10.5-8.6-15.7
		c-3.3-6.1-6.5-12.3-10.7-17.9c-0.9-1.2-1.9-2.3-2.9-3.5c-3.5-4-8.1-5.6-13.4-5.7c-1.3,0-2.7,0-4,0c-2.3,0-2.3,0-2.3,2.4
		c0,13,0,26.1,0,39c0,0.6,0,1.3,0,1.9c0.1,1-0.3,1.5-1.4,1.5c-6,0-12,0-17.9,0c-0.9,0-1.3-0.4-1.3-1.3c0-0.6,0-1.2,0-1.9
		c0-33.1,0-66.3,0-99.4c0-3.6-0.2-3.2,3.1-3.2c12.5,0,25-0.1,37.4,0.1c9.1,0.2,17.3,3.2,23.8,10c6,6.3,8.2,13.9,7.5,22.4
		c-0.9,10.4-6.4,17.7-15.6,22.4C504.4,162.9,503.6,163.1,502.8,164.1z M469.4,138.2c0,4.3,0,8.6,0,12.8c0,0.9-0.1,1.8,1.3,1.8
		c5.1-0.1,10.2,0.3,15.2-0.2c9.4-1,14.8-8.1,13.4-17.4c-0.7-4.8-3.2-8.2-7.7-10.1c-2.1-0.8-4.2-1.4-6.5-1.5
		c-4.6-0.1-9.3-0.1-13.9-0.2c-1.4,0-1.9,0.4-1.9,1.8C469.5,129.7,469.4,133.9,469.4,138.2z"/>
	<path class="st1" d="M939.1,156.4c2-2.5,4-5,6-7.5c10.4-13.1,20.8-26.1,31-39.1c1.1-1.4,2.2-2.1,4-2c6,0.1,12,0,17.9,0.1
		c0.8,0,1.6-0.2,2.5,0.3c-0.4,1.2-1.3,2.1-2.1,3c-11.2,14.2-22.5,28.3-33.6,42.5c-1,1.3-2.7,2.4-2.7,3.9c0,1.6,1.9,2.7,3,3.9
		c15.2,16.7,30.3,33.2,45.5,49.9c0.5,0.6,1.3,1,1.3,2.2c-0.7,0-1.4,0-2,0c-7.1,0-14.3,0-21.4,0c-1.5,0-2.6-0.4-3.7-1.6
		c-10.1-11-20.2-21.9-30.2-32.8c-4.8-5.2-9.5-10.4-14.3-15.6c-0.4-0.5-0.8-1-1.2-1.6c-0.9,1.2-0.6,2.2-0.6,3.1c0,15.1,0,30.1,0,45.1
		c0,0.6,0,1.3,0,1.9c0.1,1-0.4,1.4-1.4,1.4c-5.9,0-11.8,0-17.7,0c-1.1,0-1.4-0.4-1.4-1.5c0-0.6,0-1.2,0-1.9c0-33,0-66.1,0-99.1
		c0-3.7-0.4-3.3,3.3-3.3c4.9,0,9.8,0,14.7,0c2.4,0,2.5,0,2.5,2.5c0,14.5,0,28.8,0,43.3c0,0.9,0,1.7,0,2.6
		C938.7,156.2,938.9,156.3,939.1,156.4z"/>
	<path class="st3" d="M317.2,160.7c0-16.6,0-33.1,0-49.7c0-3.4-0.4-3.3,3.1-3.3c20.9,0,41.7,0,62.6,0c3.2,0,2.9-0.3,2.9,2.8
		c0,3.7,0,7.5,0,11.2c0,2.1,0,2.2-2.2,2.2c-14.1,0-28.1,0-42.2,0c-3.7,0-3.3-0.4-3.3,3.3c0,7.2,0,14.5,0,21.7c0,2.6,0,2.6,2.6,2.6
		c13.4,0,26.8,0,40.1,0c0.6,0,1.3,0,1.9,0c1,0,1.4,0.5,1.4,1.5c0,4.5,0,8.9,0,13.4c0,1.1-0.5,1.4-1.5,1.4c-0.6,0-1.2,0-1.9,0
		c-13,0-26.1,0-39,0c-0.6,0-1.3,0.1-1.9,0c-1.3-0.1-1.7,0.4-1.7,1.7c0.1,3.5,0,7,0,10.4c0,5.1,0,10.2,0,15.3c0,2.5,0,2.5,2.5,2.5
		c14.3,0,28.5,0,42.7,0c4.1,0,3.6-0.5,3.6,3.5c0,3.7,0,7.3,0,11c0,1.2-0.3,1.9-1.7,1.7c-0.5-0.1-1.1,0-1.6,0c-21,0-41.8,0-62.8,0
		c-0.7,0-1.4,0-2.1,0c-1,0-1.5-0.4-1.4-1.4c0-0.6,0-1.2,0-1.9C317.2,193.8,317.2,177.3,317.2,160.7z"/>
	<path class="st1" d="M853.9,134.4c-1.1-0.2-2-0.9-3-1.4c-6.8-3.6-13.8-6.6-21.5-7.9c-10.6-1.7-21-1.5-30.7,3.6
		c-12.4,6.5-18.7,16.9-19.2,30.7c-0.4,9.8,2.4,18.5,9.1,25.8c5.2,5.7,11.8,9.1,19.3,10.7c12,2.6,23.6,1,34.6-4
		c3.4-1.5,6.7-3.3,10.1-4.9c0.8-0.4,1.5-1,2.6-1.1c0.3,0.6,0.2,1.3,0.2,2c0,4.9-0.1,9.8,0,14.7c0,1.7-0.5,2.5-2,3.3
		c-14,7.4-28.8,9.9-44.5,8.6c-11.4-1-22-4.6-31-11.8c-11.2-8.8-17.5-20.5-19.3-34.5c-1.3-10.5,0-20.7,4.6-30.2
		c7.3-15.4,19.6-25,35.8-29.2c18.5-4.9,36.3-2.5,53.5,5.8c1,0.5,1.8,0.9,1.8,2.3c-0.1,5.6-0.1,11.2-0.1,16.9
		C854.2,133.9,854.1,134.1,853.9,134.4z"/>
	<path class="st3" d="M48.6,107.7c14.6,0,29.2,0,43.8,0c0.5,0,1.1,0,1.6,0c2.3,0,2.3,0,2.3,2.4c0,3.7,0,7.5,0,11.2
		c0,2.7,0.3,2.7-2.6,2.7c-10.5,0-21.1,0-31.5,0c-3.7,0-3.3-0.4-3.3,3.2c0,27.5,0,55.1,0,82.5c0,0.6,0,1.2,0,1.9
		c-0.1,1.9-0.1,2-1.9,2c-5.7,0-11.4,0-17.1,0c-1.4,0-1.9-0.5-1.8-1.9c0.1-0.7,0-1.4,0-2.1c0-27.3,0-54.5,0-81.8c0-0.6,0-1.2,0-1.9
		c0-2-0.1-2-2.1-2c-10.7,0-21.4,0-32,0c-0.6,0-1.3,0-1.9,0c-1,0.1-1.4-0.4-1.4-1.4c0-4.5,0-8.9,0-13.4c0-1,0.3-1.5,1.4-1.4
		c0.7,0,1.4,0,2.1,0C19,107.7,33.8,107.7,48.6,107.7z"/>
	<path class="st4" d="M784.4,280.3c0,1,0,1.9,0,2.8c0,10.6,0,21.2,0,31.7c0,0.6,0,1.3,0,1.9c0.1,1.2-0.4,1.8-1.7,1.8
		c-2.9-0.1-5.7,0-8.6,0c-1.1,0-1.7-0.4-1.6-1.6c0-0.5,0-1.1,0-1.6c0-16.2,0-32.4,0-48.6c0-0.6,0-1.2,0-1.9c0-1,0.4-1.4,1.4-1.4
		c2.7,0,5.4,0,8,0c1.2,0,1.7,0.8,2.4,1.5c6.3,6.3,12.5,12.7,18.7,19.1c5.1,5.4,10.4,10.5,15.6,15.8c0.5,0.5,0.9,1.1,1.8,1.3
		c0.4-0.7,0.2-1.5,0.2-2.3c0-10.7,0-21.4,0-32c0-0.7,0-1.4,0-2.1c0-0.8,0.4-1.1,1.2-1.1c3.1,0,6.2,0,9.4,0c0.9,0,1.3,0.5,1.2,1.4
		c0,0.5,0,1.1,0,1.6c0,16.4,0,32.7,0,49.1c0,0.4,0,0.9,0,1.3c0.1,1.1-0.3,1.7-1.5,1.7c-2.6,0-5.2,0-7.8,0c-1,0-1.7-0.5-2.3-1.2
		c-7.2-7.5-14.4-15.1-21.7-22.6C794.6,289.9,789.5,285.3,784.4,280.3z"/>
	<path class="st4" d="M489.3,290.8c0-8,0-16.1,0-24.1c0-0.5,0-1.1,0-1.6c0.1-1.8,0.1-1.9,2-1.9c1.4,0,2.9,0,4.3,0
		c7.6,0,15.2-0.1,22.7,0.1c7.5,0.2,14.6,2.3,20.7,6.9c6.5,5,10.1,11.6,10.3,19.9c0.2,6.5-1.7,12.2-5.8,17.3c-3.3,4-7.6,6.4-12.2,8.3
		c-4.9,1.9-10.1,2.8-15.4,2.7c-7.8-0.1-15.5,0-23.3,0c-3.6,0-3.4,0.3-3.4-3.3C489.3,307.1,489.3,299,489.3,290.8z M511.9,271.9
		c-3.7,0-6.2,0-8.8,0c-1.1,0-1.7,0.5-1.6,1.6c0,0.4,0,0.9,0,1.3c0,11,0,21.9,0,32.8c0,0.4,0,0.9,0,1.3c0,1,0.5,1.4,1.5,1.4
		c6,0,12.1,0.2,18.1-0.9c8.8-1.6,17.2-9.6,15.4-21.4c-1.1-7.4-5.3-12-12-14.7C520.1,271.7,515.5,271.8,511.9,271.9z"/>
	<path class="st4" d="M985.3,290.5c3.2,0,6.4,0,9.6,0c1.2,0,1.8,0.4,1.8,1.7c0,6.4,0,12.8,0,19.3c0,1.5-0.9,2.2-2,2.8
		c-4,2.1-8.3,3.3-12.7,4.1c-2.8,0.5-5.6,1-8.5,1c-10.8,0.1-21-2.2-29-9.8c-4.5-4.2-7.3-9.5-7.8-15.9c-0.9-12,4.5-20.5,14.8-26.2
		c6-3.3,12.6-4.7,19.5-4.8c7.8-0.1,15.2,1.1,22.5,3.7c2.1,0.8,2.2,0.8,2.2,3c0,1.9,0,3.7,0,5.6c0,1.6-0.3,1.8-1.7,1.2
		c-5-2.2-10.3-3.6-15.7-4.2c-7.5-0.8-14.8-0.4-21.3,4.1c-8.4,5.9-10.3,17.5-4.6,25.3c3.1,4.2,7.4,6.6,12.5,7.7
		c5.8,1.2,11.7,1.1,17.4-0.5c2.1-0.6,2.1-0.6,2.1-2.7c0-1.9,0-3.7,0-5.6c0-1.3-0.5-1.8-1.7-1.7c-2.3,0.1-4.6,0-7,0
		c-1.9,0-1.9-0.1-2-2c0-1.3,0-2.7,0-4c0.1-2,0.1-2,2.2-2C979,290.5,982.2,290.5,985.3,290.5z"/>
	<path class="st4" d="M227.7,318.4c-3.9,0-7.8,0-11.7,0c-1.1,0-1.5-0.8-2-1.5c-2-3.2-4-6.5-6.1-9.8c-1.9-3-3.9-6-6.3-8.6
		c-3.1-3.3-7-3.5-11.1-3.2c-0.8,0.1-1,0.6-1,1.3c0,1.1,0,2.1,0,3.2c0,5.5,0,11.1,0,16.6c0,1.9-0.1,1.9-2,2c-2.9,0-5.7,0-8.6,0
		c-1.2,0-1.8-0.4-1.7-1.7c0-0.5,0-1.1,0-1.6c0-16.2,0-32.4,0-48.6c0-0.6,0-1.2,0-1.9c0-0.9,0.4-1.3,1.3-1.3c0.3,0,0.5,0,0.8,0
		c7.7,0,15.3-0.1,23,0.1c4.2,0.1,8.1,1.3,11.5,3.8c5.2,3.7,7.3,9.5,5.7,15.5c-1,3.6-3.3,6.2-6.6,8c-1.1,0.6-2.2,1.2-3.5,1.8
		c1.4,1.1,2.7,1.9,3.9,3c2.5,2.2,4.3,5,6,7.8c2.7,4.5,5.3,9.1,8.2,13.5C227.6,317.1,227.9,317.5,227.7,318.4z M189.3,278.9
		C189.3,278.9,189.4,278.9,189.3,278.9c0,2.1,0,4.3,0,6.4c0,1.1,0.5,1.6,1.6,1.6c2.7,0,5.4,0.1,8-0.1c1.8-0.1,3.5-0.7,5-1.6
		c3.7-2.2,4.5-9,0.6-11.7c-1.2-0.8-2.5-1.2-3.9-1.6c-3.2-0.7-6.4-0.4-9.6-0.5c-1.4,0-1.9,0.6-1.8,1.9
		C189.4,275.2,189.3,277.1,189.3,278.9z"/>
	<path class="st4" d="M388.6,318.3c-2.7,0.4-5.3,0.2-8,0.2c-5.3-0.1-3.8,0.9-6.3-3.9c-1.3-2.5-2.5-5.1-3.7-7.7
		c-0.6-1.4-1.4-1.8-2.9-1.7c-7.9,0.1-15.9,0-23.8,0c-2.4,0-2.4,0-3.3,2.2c-1.4,3.2-2.9,6.3-4.3,9.5c-0.5,1.2-1.3,1.7-2.6,1.7
		c-3.5-0.1-6.9,0-10.3,0c-0.5-0.9,0-1.4,0.2-1.9c3.7-7.9,7.5-15.8,11.2-23.7c4.3-9.1,8.6-18.2,12.8-27.3c0.8-1.7,1.7-2.5,3.6-2.3
		c2.5,0.2,5,0.2,7.5,0c1.8-0.1,2.7,0.5,3.5,2.1c5.1,10.2,10.3,20.4,15.4,30.4c3.3,6.6,6.7,13.2,9.9,19.8
		C388.1,316.4,388.8,317.1,388.6,318.3z M345.7,296.4c0.4,0.6,0.8,0.6,1.1,0.6c5.6,0,11.2,0,16.8,0c0.2,0,0.4,0,0.5,0
		c1.2,0,1.3-0.7,0.9-1.6c-0.1-0.2-0.2-0.5-0.3-0.7c-2.8-5.8-5.6-11.5-8.4-17.3c-0.3-0.6-0.4-1.4-1.5-1.6
		C351.7,282.8,348.7,289.7,345.7,296.4z"/>
	<path class="st5" d="M47.2,263.3c8.4,0,16.8,0,25.1,0c0.7,0,1.4,0,2.1,0c0.6,0,1,0.3,1,1c0,2.1,0,4.3,0,6.4c0,0.8-0.5,1.1-1.2,1.1
		c-1.2,0-2.5,0-3.7,0c-5,0-10,0-15,0c-2.5,0-2.5,0-2.5,2.5c0,13.6,0,27.1,0,40.6c0,3.8,0.3,3.5-3.4,3.5c-2.4,0-4.8,0-7.2,0
		c-1.1,0-1.7-0.4-1.6-1.5c0-0.6,0-1.2,0-1.9c0-13.2,0-26.4,0-39.5c0-0.6,0-1.3,0-1.9c0.1-1.4-0.6-1.8-1.9-1.8c-2.6,0.1-5.2,0-7.8,0
		c-3.7,0-7.3,0-11,0c-1.4,0-1.9-0.5-1.9-1.9c0.1-1.6,0.1-3.2,0-4.8c-0.1-1.4,0.5-1.9,1.9-1.9c3.7,0.1,7.3,0,11,0
		C36.5,263.3,41.9,263.3,47.2,263.3z"/>
	<path class="st4" d="M653.5,290.6c0-7.9,0-15.9,0-23.8c0-0.6,0-1.3,0-1.9c-0.1-1.1,0.4-1.7,1.5-1.6c3,0,6.1,0,9.1,0
		c1.3,0,1.7,0.6,1.7,1.8c0,0.4,0,0.9,0,1.3c0,16.3,0,32.6,0,48.9c0,0.4,0,0.9,0,1.3c0.1,1.2-0.4,1.8-1.7,1.8c-2.9-0.1-5.9-0.1-8.8,0
		c-1.4,0-1.8-0.6-1.8-1.9c0-5.6,0-11.2,0-16.9C653.5,296.6,653.5,293.6,653.5,290.6z"/>
	<path class="st6" d="M1351.4,10.5c42.6,0.5,91.5,20.4,131.6,60.3c40.2,40.2,60.5,89.5,60.4,146.3c-0.2,56.3-20.5,105.2-60.5,144.9
		c-40.1,39.9-88.9,60.3-145.8,60.2c-56.9-0.1-105.7-20.5-145.7-60.8c-40-40.3-59.8-89.3-59.9-146.1c-0.1-35.2,8.8-68.3,25.9-98.9
		c17.9-32,42.6-57.6,74.1-76.6C1263.9,20.1,1299.3,10.3,1351.4,10.5z M1143.7,268.4c0.8-0.3,1.1-1,1.6-1.5
		c9.8-11.7,19.6-23.4,29.3-35c1.5-1.9,3.2-3.6,5.3-4.8c2.6-1.5,5.1-1.3,7.5,0.4c1.4,1,2.6,2.2,3.9,3.3c2.4,2.3,5,4.3,8,5.8
		c6,3,11.3,2.2,16.2-2.4c2.5-2.3,4.6-4.9,6.5-7.8c7.7-11.4,15.6-22.6,23.6-33.7c7.7-10.7,15.7-21.2,22.9-32.2
		c0.5-0.8,1.2-1.6,1.8-2.3c2-2.3,4.4-3.6,7.5-3.2c1.1,0.1,2.1,0.2,3.2,0.3c7.2,0.6,13.6-0.9,18.8-6.3c3.2-3.2,5.5-7,7.4-11.1
		c2.9-6.1,5.7-12.3,8.7-18.4c6.7-13.4,13.7-26.6,20.1-40.1c0.9-1.9,1.9-3.6,3.3-5.2c2.3-2.7,5.2-3.9,8.8-2.8
		c2.4,0.7,4.4,1.9,6.4,3.3c8.4,5.9,16.6,12.1,24.4,18.8c12,10.3,23,21.6,32.2,34.4c13.9,19.3,22.2,40.6,24.6,64.3
		c1.1,11.2,4.1,21.9,9,31.9c6.3,12.9,15.6,23.4,26.7,32.2c10.9,8.6,22.8,15.5,35.1,21.7c2.2,1.1,4.4,2,6.7,2.6
		c7.9,1.9,11.7-0.4,14.9-6.5c1.5-2.9,2.5-5.9,3.2-9c3.7-14.7,5.4-29.5,5.8-44.6c0.2-7.1-0.3-14.3-0.9-21.4
		c-0.7-9.2-2.1-18.2-4.1-27.2c-5.1-22.9-13.8-44.3-26.2-64.2c-12.2-19.6-27.3-36.4-45.5-50.6c-17.1-13.2-36-23-56.3-30.1
		c-15.9-5.6-32.2-9.3-49.1-10.9c-10.9-1-21.9-1.2-32.8-0.5c-10.2,0.7-20.2,2.1-30,4.3c-23.3,5.1-44.7,14.2-64.6,27.2
		c-16.9,11.1-31.5,24.6-44.4,40.1c-16.7,20.2-29.3,42.4-36.9,67.5c-5.1,16.8-7.8,33.9-8.3,51.5c-0.3,10,0,20,0.9,29.8
		c0.8,8.7,2,17.3,3.5,25.9C1142.6,264.1,1142.8,266.3,1143.7,268.4z M1236.5,289c2-0.1,3.7-0.6,5.5-1.1c11.3-2.7,22.3-6.1,32.5-11.7
		c5.1-2.8,9.8-6.1,14.1-10c7.1-6.5,11.9-14.6,15.7-23.3c1-2.3,2.2-4.5,3.7-6.5c2.8-3.8,6.5-6.1,11.4-5.6c3,0.3,5.6,1.7,8.1,3.2
		c3,1.8,4.4,4.7,4.9,7.9c0.5,3.3,0.3,6.8-0.7,10.1c-3.1,10.9-8.3,20.8-14.9,29.9c-6.3,8.9-14.1,16.5-21.4,24.5
		c-3.6,3.9-7.5,7.7-11.1,11.6c-6.1,6.6-12.4,13.1-18.5,19.7c-4.8,5.2-9.9,10.1-14.6,15.3c-3.1,3.4-6.5,6.6-9.6,10.1
		c-2.6,2.8-5.1,5.7-6.9,9.1c-2.4,4.6-2.9,9.3,0.5,13.8c2.1,2.8,4.8,4.8,7.7,6.5c4.3,2.7,8.9,4.8,13.6,6.9c9,4,18.2,7.1,27.6,9.7
		c8.2,2.2,16.6,3.9,25.1,4.9c6.3,0.7,12.5,1.5,18.8,1.5c9.7,0,19.4,0.2,29-1c3.4-0.4,6.9-0.8,10.3-1.4c7.8-1.3,15.5-2.9,23.1-5.1
		c10.4-2.9,20.6-6.4,30.3-10.9c11.4-5.2,22.3-11.2,32.4-18.4c8.8-6.1,17.1-12.8,24.7-20.3c5.5-5.5,10.9-11,15.8-17.1
		c5.4-6.7,10.3-13.6,14.7-21c2.4-4,4.8-8.1,6-12.8c0.8-3.4,0.2-6.4-1.7-9.1c-2.7-4-6.8-6.2-11-8.1c-7.7-3.5-15.4-7-22.7-11.3
		c-12.1-7.1-23.2-15.6-32.3-26.4c-5.5-6.5-10.2-13.5-14.2-21c-4.1-7.8-6.9-16.2-9.2-24.7c-2.2-8.4-3-16.9-4.3-25.4
		c-1.2-8.4-3.6-16.5-7-24.3c-6.2-14.1-15.1-26.4-25.8-37.3c-4-4.1-8-8.1-12.3-11.9c-3.9-3.5-8-6.8-12.1-10.1
		c-6.5-5.2-13.2-10-19.9-14.8c-0.4-0.3-0.7-0.9-1.4-0.3c0.6,3.8,1.1,7.7,1.7,11.5c0.8,4.9,1.6,9.8,2.3,14.7c0.7,4.4,1.3,8.8,2,13.2
		c0.6,4.4,1.3,8.8,1.8,13.2c0.4,4.1,0.9,8.3,1.3,12.5c0.5,5.7,0.8,11.4-0.3,17c-0.9,4.9-3,9.3-7.7,12c-2.4,1.4-5,2.2-7.7,3
		c-5.3,1.5-10.9,1.7-16.4,2c-7.1,0.4-14.3,0.3-21.4,0c-2.8-0.1-5.7-0.5-8.5-0.4c-4.4,0.1-7.3,2.8-7.9,7.2c-0.4,2.5-0.5,5-0.5,7.4
		c0.1,2.6-0.7,5.1-1.7,7.5c-2.1,5-5.9,8.6-10,12c-2.9,2.5-6,4.7-9,7.1c-1.7,1.4-1.6,1.4-0.1,3c1,1,2.1,2,3,3
		c1.5,1.7,2.6,3.5,3.3,5.7c0.8,2.6,0.2,4.9-0.5,7.3c-1.5,5.2-4.3,9.8-7.1,14.3c-6.2,10.4-13,20.4-19.7,30.4
		C1237.3,287.3,1236.6,288,1236.5,289z"/>
	<path class="st7" d="M1143.7,268.4c-1-2-1.1-4.3-1.5-6.4c-1.5-8.6-2.7-17.2-3.5-25.9c-1-10-1.2-19.9-0.9-29.8
		c0.5-17.5,3.2-34.7,8.3-51.5c7.7-25.1,20.3-47.3,36.9-67.5c12.9-15.6,27.5-29,44.4-40.1c19.9-13,41.4-22.1,64.6-27.2
		c9.9-2.2,20-3.6,30-4.3c11-0.7,21.9-0.5,32.8,0.5c16.9,1.6,33.2,5.2,49.1,10.9c20.3,7.2,39.2,16.9,56.3,30.1
		c18.3,14.1,33.3,31,45.5,50.6c12.4,19.9,21.1,41.3,26.2,64.2c2,9,3.4,18,4.1,27.2c0.6,7.1,1.1,14.2,0.9,21.4
		c-0.4,15.1-2.1,29.9-5.8,44.6c-0.8,3.1-1.7,6.2-3.2,9c-3.2,6-6.9,8.4-14.9,6.5c-2.3-0.6-4.6-1.5-6.7-2.6
		c-12.4-6.2-24.4-13.1-35.1-21.7c-11.2-8.9-20.4-19.4-26.7-32.2c-4.9-10.1-7.9-20.8-9-31.9c-2.4-23.7-10.7-45-24.6-64.3
		c-9.3-12.9-20.3-24.2-32.2-34.4c-7.8-6.7-16-12.9-24.4-18.8c-2-1.4-4-2.6-6.4-3.3c-3.6-1.1-6.5,0.1-8.8,2.8
		c-1.3,1.6-2.4,3.3-3.3,5.2c-6.3,13.6-13.4,26.8-20.1,40.1c-3,6.1-5.8,12.3-8.7,18.4c-1.9,4-4.2,7.8-7.4,11.1
		c-5.2,5.3-11.7,6.9-18.8,6.3c-1.1-0.1-2.1-0.2-3.2-0.3c-3.1-0.4-5.5,1-7.5,3.2c-0.6,0.7-1.3,1.5-1.8,2.3
		c-7.2,11.1-15.2,21.6-22.9,32.2c-8,11.2-15.9,22.4-23.6,33.7c-1.9,2.8-4,5.4-6.5,7.8c-4.9,4.5-10.2,5.3-16.2,2.4
		c-3-1.5-5.6-3.5-8-5.8c-1.2-1.1-2.5-2.3-3.9-3.3c-2.4-1.7-4.9-1.9-7.5-0.4c-2.1,1.2-3.7,3-5.3,4.8c-9.8,11.7-19.6,23.4-29.3,35
		C1144.9,267.4,1144.5,268,1143.7,268.4z"/>
	<path class="st8" d="M1236.5,289c0.1-1.1,0.8-1.7,1.2-2.4c6.7-10.1,13.5-20.1,19.7-30.4c2.8-4.6,5.6-9.2,7.1-14.3
		c0.7-2.4,1.3-4.8,0.5-7.3c-0.7-2.2-1.8-4-3.3-5.7c-1-1.1-2-2-3-3c-1.6-1.6-1.6-1.7,0.1-3c3-2.4,6.1-4.6,9-7.1c4-3.4,7.8-7,10-12
		c1-2.4,1.8-4.8,1.7-7.5c0-2.5,0.1-5,0.5-7.4c0.7-4.4,3.5-7.1,7.9-7.2c2.8-0.1,5.7,0.3,8.5,0.4c7.1,0.3,14.3,0.4,21.4,0
		c5.5-0.3,11-0.6,16.4-2c2.6-0.7,5.2-1.6,7.7-3c4.7-2.7,6.7-7.1,7.7-12c1.1-5.6,0.7-11.3,0.3-17c-0.3-4.2-0.8-8.3-1.3-12.5
		c-0.5-4.4-1.1-8.8-1.8-13.2c-0.6-4.4-1.3-8.8-2-13.2c-0.8-4.9-1.6-9.8-2.3-14.7c-0.6-3.8-1.2-7.7-1.7-11.5c0.7-0.6,1,0.1,1.4,0.3
		c6.8,4.8,13.4,9.7,19.9,14.8c4.1,3.3,8.1,6.6,12.1,10.1c4.3,3.8,8.3,7.8,12.3,11.9c10.7,11,19.6,23.3,25.8,37.3
		c3.4,7.8,5.8,15.9,7,24.3c1.2,8.5,2.1,17.1,4.3,25.4c2.2,8.6,5.1,16.9,9.2,24.7c3.9,7.5,8.6,14.5,14.2,21
		c9.2,10.8,20.2,19.2,32.3,26.4c7.3,4.3,15,7.8,22.7,11.3c4.2,1.9,8.4,4.1,11,8.1c1.9,2.8,2.5,5.7,1.7,9.1c-1.2,4.7-3.6,8.7-6,12.8
		c-4.4,7.3-9.3,14.3-14.7,21c-4.9,6-10.3,11.6-15.8,17.1c-7.6,7.5-16,14.2-24.7,20.3c-10.3,7.2-21.2,13.2-32.4,18.4
		c-9.8,4.5-20,8-30.3,10.9c-7.6,2.1-15.3,3.8-23.1,5.1c-3.4,0.6-6.9,0.9-10.3,1.4c-9.7,1.2-19.4,1-29,1c-6.3,0-12.6-0.8-18.8-1.5
		c-8.5-1-16.8-2.7-25.1-4.9c-9.5-2.5-18.7-5.7-27.6-9.7c-4.7-2.1-9.3-4.2-13.6-6.9c-2.9-1.8-5.6-3.7-7.7-6.5
		c-3.4-4.6-2.9-9.2-0.5-13.8c1.8-3.4,4.3-6.3,6.9-9.1c3.1-3.4,6.5-6.6,9.6-10.1c4.7-5.2,9.8-10.1,14.6-15.3
		c6.1-6.6,12.4-13.1,18.5-19.7c3.7-3.9,7.5-7.6,11.1-11.6c7.3-8,15.1-15.6,21.4-24.5c6.6-9.2,11.8-19.1,14.9-29.9
		c0.9-3.3,1.2-6.7,0.7-10.1c-0.5-3.2-1.8-6.1-4.9-7.9c-2.5-1.5-5.1-2.9-8.1-3.2c-4.9-0.5-8.6,1.8-11.4,5.6c-1.5,2-2.7,4.2-3.7,6.5
		c-3.8,8.7-8.6,16.8-15.7,23.3c-4.3,3.9-9,7.3-14.1,10c-10.2,5.6-21.3,9-32.5,11.7C1240.2,288.4,1238.4,289,1236.5,289z"/>
</g>
</svg>
