<svg enable-background="new 0 0 1352.3 254.9" viewBox="0 0 1352.3 254.9" xmlns="http://www.w3.org/2000/svg"><path d="m500.6 147.4c-2.8 4.5-3.1 9.8-4.4 14.6-3.3 12.4-6.2 24.8-9.2 37.3-.7 3.1-2.1 4.2-5.4 4.1-10-.2-20-.3-30 0-3.4.1-4.6-1.2-5.4-4.1-4.6-16.1-9.4-32.2-14.1-48.3-.5-1.6-.4-3.3-2.6-4.7-1.5 8.5-2.9 16.7-4.4 24.9-1.7 9.8-3.4 19.7-5 29.5-.3 2.2-1.4 2.7-3.3 2.7-22.2 0-44.3-.1-66.5 0-2.9 0-3-1.5-3.3-3.7-2.4-16.5-4.9-32.9-7.4-49.4-.1-.9-.1-2-1.3-2.6-1.9.5-1.6 2.3-1.9 3.6-4.1 16.3-8.3 32.5-12.2 48.9-.6 2.6-1.7 3.1-4 3.1-10.7-.1-21.3-.1-32 0-2.7 0-3.6-1.1-4.3-3.6-5-17.7-10.2-35.3-15.5-53.5-2 1.8-2.1 3.8-2.4 5.6-2.6 15.4-5.3 30.8-7.8 46.3-.6 3.8-1.9 5.4-6.3 5.3-14.5-.4-28.9-.1-43.6-.1 1.2-8.1 3.5-15.6 4-23.3-.9-.5-1.5-.4-2 .2-14.4 15.4-32.8 22.2-53.2 22.9-25 .8-50 .2-75 .3-3 0-3.6-1.1-3.6-3.8.1-44.7.1-89.3 0-134 0-2.7.7-3.9 3.6-3.8 24.6.8 49.3-1.6 73.8 1.8 22.9 3.2 43.7 10.6 58.1 30.2 4 5.4 6.7 11.4 8.7 17.8.3 1 .5 2.3 1.6 2.3 1.6 0 1.2-1.6 1.4-2.6 3-15.5 6-31 8.9-46.6.4-2.1 1.2-2.8 3.3-2.8 13.3 0 26.7.1 40-.1 2.6 0 3.4 1.5 4 3.5 5.9 19.2 11.9 38.4 17.8 57.6.4 1.4.5 2.9 2.6 4.2 2.3-8 4.5-15.7 6.7-23.4 3.6-12.6 7.2-25.2 10.6-37.9.9-3.2 2.3-4 5.5-4 13.3.2 26.7.2 40 0 3.8-.1 5.3.8 6 5 3.1 19.4 6.7 38.6 10.4 57.9.5 2.5-.3 5.4 1.7 7.7 1.8-.8 1.5-2.4 1.7-3.8 4-20.7 8-41.5 11.9-62.2.6-3.1 1.6-4.8 5.4-4.7 12.3.3 24.7.2 37 .1 2.9 0 4.3.6 5.2 3.7 5.8 19.4 12 38.7 18.1 58 .3 1.1 0 3.2 1.9 2.9 1.2-.1 1.2-1.8 1.5-2.9 5.4-19.2 10.9-38.4 16.1-57.6.8-3.1 2-4.3 5.4-4.2 13.7.2 27.3.2 41 0 3 0 4.3.6 4.9 3.9 4.3 24.9 8.9 49.8 13.4 74.6 3.6 20 7.2 39.9 11 59.9.5 2.8-.4 3.1-2.7 3.1-14-.1-28-.1-42 0-3 0-3.6-1.4-4-3.8-2.3-15.8-4.6-31.6-6.9-47.4-.1-1.3.2-3.1-1.5-4.6zm-359.5-14.5v18.4c0 1.4-.4 2.9 1.8 3.5 6.6 1.9 18.8-2.2 22.2-8.2 5-8.6 5.2-17.8.7-26.6-4.3-8.4-12.7-9.2-21-9.7-2.8-.2-3.8.8-3.8 3.7.2 6.3.1 12.6.1 18.9z" fill="#fff"/><path d="m621 203.4c-11.2 0-22.3-.2-33.5.1-4.6.1-5.9-.9-5.3-5.7 2.9-21.4 5.4-42.9 8.1-64.4 2.6-21 5.2-41.9 7.8-62.9.9-7.6 1-7.6 8.5-7.5 23.8.1 47.6 0 71.4.5 9.6.2 18.5 3.3 25.8 10.1 10.6 9.8 8.8 29.8 2.5 39.9-3.4 5.5-7.9 9.8-13.4 13-3.5 2.1-3.6 2.9.1 5 11.9 6.7 20.6 15.8 19.9 30.7-.8 15.3-8.6 26.1-22 33-11.3 5.8-23.6 7.3-36 8-11.2.6-22.6.1-33.9.2zm23.8-60.3c-4.7 0-8.6.1-12.4 0-2.5-.1-3.5.8-3.8 3.3-.7 6.8-1.8 13.5-2.5 20.3-.4 3.4-2.4 7.4-.6 10.2 2.1 3.1 6.4.9 9.7 1.1 8.1.6 16.2.2 24-2.6 7-2.6 11.7-8.7 11.8-15.6.1-7.6-2.9-11.7-10.9-15.2-5.3-2.3-10.8-.9-15.3-1.5zm5.7-55.8c0-.1 0-.2 0-.3-3.8 0-7.7.1-11.5 0-2.3 0-3.3 1-3.6 3.2-1 8.4-1.9 16.8-3 25.2-.4 3.1.7 4.2 3.8 4 4.6-.2 9.3 0 14-.1 5.6-.2 10.8-1.9 15.6-4.5 5.9-3.3 9-11.8 7.2-18.7-1.4-5.3-6-8.4-13.5-8.7-3-.2-6-.1-9-.1z" fill="#ec1d88"/><path d="m1231.4 91.4c10.6 0 18.5-.2 26.3.1 6.5.2 12.8 2 18.3 5.2 12.9 7.4 14.8 19.9 13.5 32.9-2.4 23.2-5.7 46.2-8.5 69.4-.4 3.1-1.3 4.6-4.9 4.5-10.3-.2-20.7-.2-31 0-3.5.1-4.1-1.2-3.7-4.4 2.5-19.6 4.9-39.3 7.3-58.9.6-4.8.5-9.7-.6-14.4-1.4-6.4-5.7-10.1-12.2-10.3-3.8-.1-7.7.1-11.5.2-4 .1-5.8 2-6.2 6.1-1.7 15.2-3.6 30.4-5.5 45.6-1.3 10.2-2.6 20.5-3.8 30.7-.4 3.8-1.4 5.8-6.1 5.5-10-.5-20-.3-30-.1-3.3.1-4.7-.4-4.2-4.3 3.5-26.7 6.8-53.4 10.1-80.2.9-7.4 1.8-14.9 2.5-22.3.2-2.4.8-3.6 3.5-3.6 16.6.4 32.9-3 46.7-1.7z" fill="#ec1e88"/><path d="m1046.7 89.2c11.3-.2 22.3.7 32.9 5.6 11.4 5.3 18.6 13.9 21 25.8 4.2 20.9 1.3 41.1-10 59.5-7.2 11.8-18.3 18.4-31.6 21.6-9 2.2-18.2 4.2-27.4 3.5-10.1-.8-20.3-1.3-29.9-5.5-13-5.6-20.9-15-22.9-28.7-3.3-21.8 0-42.5 13.6-60.5 7.9-10.6 19.2-16.4 32.2-19.2 7.3-1.8 14.7-2 22.1-2.1zm-29.8 68.5c0 2-.1 4 0 6 .4 11 4.5 16.8 13.6 19.3 7.7 2.2 18.9-2 23.2-9.5 9.2-16.1 11-33.5 8.1-51.5-.8-5.2-4.3-8.6-9.3-10.7-9.2-3.9-21.6.3-26.8 9.5-6.5 11.5-8.2 24.1-8.8 36.9z" fill="#ec1d88"/><path d="m956.3 113.8c-12.6-1.2-24.8 0-35.6 7.5-15.4 10.8-20.6 34.9-10.4 49.7 6.1 8.7 15.6 11.4 25.5 12.2 7.9.7 16 .8 23.9-.4 3-.4 4 .6 3.6 3.4-.1.5 0 1-.1 1.5-.8 4.6.1 9.8-2.5 13.6-2.9 4.2-8.4 1.5-12.7 2.4-13.5 3-27.2 2-40.6-.5-18.9-3.6-36.3-11.8-41.3-35.9-3-14.6-.5-28.9 6.1-42.3 8.1-16.5 22-25.5 39.5-30.2 16.1-4.3 32.3-3.6 48.5-3.3 4 .1 8.1 1.6 12.3 1.8 3 .1 2.9 2.6 2.8 4.4-.3 4.6-1.1 9.3-1.6 13.9-.2 1.9-1.2 2.2-3.1 2.1-4.6-.1-9.5.1-14.3.1z" fill="#ec1e88"/><g fill="#ec1d88"><path d="m818.8 67.2c5 0 10 .2 15-.1 3.4-.2 4.3.9 3.7 4.3-.9 5.4-1.1 10.9-2 16.3-.7 4.3.7 5.7 5 5.5 5.8-.3 11.7.1 17.5-.2 4.1-.2 5 1.5 4 5-.3 1.3-.5 2.6-.7 3.9-.7 4.4.7 10.1-2.5 12.9-3 2.5-8.3.6-12.6.8-2.7.1-5.4.3-8 0-4.9-.7-6.3 1.7-6.8 6.1-1.5 13.6-3.3 27.1-5 40.6-1.5 12.6 3.9 18.6 17.3 19 9.8.3 9.8.3 8.1 9.9-.2 1.1-.4 2.3-.5 3.5-.7 8.3-1 8.6-9.6 8.7-8.2 0-16.3.5-24.5.2-18.8-.7-30.6-14.9-30.1-31.4.5-15.3 3.5-30.4 5.2-45.6 2-18.2 4.5-36.3 6.5-54.5.4-3.7 1.5-5.3 5.5-5 4.8.3 9.6.1 14.5.1z"/><path d="m742.8 203.4c-5.3 0-10.7-.1-16 0-2.4 0-3.7-.3-3.3-3.3 3.1-23.6 6.1-47.2 9.1-70.7 1.4-10.7 2.7-21.4 3.9-32.2.3-3 1.2-4.2 4.5-4.1 10.3.2 20.6.2 31 0 3.4-.1 4.3 1.1 3.8 4.3-2.8 21.3-5.5 42.5-8.2 63.8-1.6 12.9-3.2 25.7-4.5 38.7-.3 2.9-1.2 3.6-3.9 3.6-5.4-.2-10.9-.1-16.4-.1z"/><path d="m1129.4 203.4c-5.2 0-10.3-.1-15.5.1-2.7.1-4-.5-3.6-3.6 2.7-21.4 5.3-42.9 8-64.3 1.6-12.7 3.3-25.4 4.6-38.1.4-3.5 1.6-4.4 4.9-4.3 10.2.2 20.3 0 30.5 0 2 0 4.4-.7 3.9 3.1-4.2 33.5-8.4 67-12.2 100.5-.6 5.7-2.8 7.3-8.1 6.7-4.1-.5-8.3-.1-12.5-.1z"/></g><path d="m761.2 58.9h16c2.5 0 4 .5 3.3 3.8-.9 4.4-1.1 8.9-1.4 13.4-.2 2.8-1.2 4.2-4.2 4.2-11-.1-21.9 0-32.9.1-2.7 0-3.8-.7-3.1-3.9 1-4.3 1.3-8.9 1.6-13.3.2-3.1 1.7-4.2 4.8-4.1 5.2-.1 10.6-.2 15.9-.2z" fill="#eb2089"/><path d="m1144.4 80.2c-5.3 0-10.7-.1-16 0-2.7.1-3.6-1-3.2-3.6.7-5.1 1.4-10.2 1.9-15.3.2-1.8 1.1-2.1 2.6-2.1 11.5 0 23-.1 34.5-.2 2.5 0 3.2 1.4 2.7 3.6-1 4.7-1.9 9.5-2 14.3-.1 2.6-1.7 3.3-4 3.3-5.5-.1-11 0-16.5 0z" fill="#eb2089"/></svg>