<?xml version="1.0" encoding="utf-8"?>
<!-- Generator: Adobe Illustrator 24.0.1, SVG Export Plug-In . SVG Version: 6.00 Build 0)  -->
<svg version="1.1" id="Layer_1" xmlns="http://www.w3.org/2000/svg" xmlns:xlink="http://www.w3.org/1999/xlink" x="0px" y="0px"
	 viewBox="0 0 401.6 110.9" style="enable-background:new 0 0 401.6 110.9;" xml:space="preserve">
<style type="text/css">
	.st0{fill:#FFFFFF;}
	.st1{fill:url(#SVGID_1_);}
	.st2{fill:url(#SVGID_2_);}
	.st3{fill:url(#SVGID_3_);}
	.st4{fill:url(#SVGID_4_);}
	.st5{fill:url(#SVGID_5_);}
</style>
<title>アセット 1</title>
<polygon class="st0" points="118.8,32.4 118.8,39.1 138.2,39.1 138.2,78.4 144.9,78.4 144.9,39.1 164.4,39.1 164.4,32.4 159.1,32.4 
	"/>
<polygon class="st0" points="183.2,32.4 182,32.4 161.8,78.4 169.1,78.4 185.3,41.5 201.5,78.4 208.7,78.4 188.8,33 188.5,32.4 
	187.4,32.4 "/>
<path class="st0" d="M211.8,55.4c0,12.7,10.3,23,23,23s23-10.3,23-23s-10.3-23-23-23C222.1,32.4,211.8,42.7,211.8,55.4z M234.8,38.5
	c9.3,0,16.9,7.6,16.9,16.9s-7.6,16.9-16.9,16.9c-9.3,0-16.9-7.6-16.9-16.9l0,0C217.9,46.1,225.4,38.5,234.8,38.5L234.8,38.5z"/>
<polygon class="st0" points="262.6,39.1 282.1,39.1 282.1,78.4 288.8,78.4 288.8,39.1 308.2,39.1 308.2,32.4 262.6,32.4 "/>
<polygon class="st0" points="332.4,32.4 331.2,32.4 327,32.4 325.9,32.4 305.7,78.4 313,78.4 329.2,41.5 345.3,78.4 352.6,78.4 
	332.7,32.9 "/>
<path class="st0" d="M378.7,32.4c-12.7,0-23,10.3-23,23s10.3,23,23,23s23-10.3,23-23S391.4,32.4,378.7,32.4L378.7,32.4z M378.7,72.3
	c-9.3,0-16.9-7.6-16.9-16.9s7.6-16.9,16.9-16.9s16.9,7.6,16.9,16.9l0,0C395.5,64.7,388,72.3,378.7,72.3z"/>
<linearGradient id="SVGID_1_" gradientUnits="userSpaceOnUse" x1="14.648" y1="1004.4402" x2="148.2479" y2="1170.4003" gradientTransform="matrix(1 0 0 1 -1.712334e-02 -968.0107)">
	<stop  offset="0" style="stop-color:#D42D2F"/>
	<stop  offset="1" style="stop-color:#831A23"/>
</linearGradient>
<path class="st1" d="M41.7,25.7L41.7,25.7c0.8-0.8,0.8-2.2,0-3l0,0L30.2,11c-0.3-0.3-0.8-0.4-1.1-0.1L0.5,27.4
	C0.2,27.5,0,27.9,0,28.2v37.1c0,0.5,0.4,0.9,0.9,1c0.3,0,0.5-0.1,0.7-0.3l33.9-34L41.7,25.7z"/>
<linearGradient id="SVGID_2_" gradientUnits="userSpaceOnUse" x1="-3.8591" y1="1019.3379" x2="129.7409" y2="1185.3079" gradientTransform="matrix(1 0 0 1 -1.712334e-02 -968.0107)">
	<stop  offset="0" style="stop-color:#D42D2F"/>
	<stop  offset="1" style="stop-color:#831A23"/>
</linearGradient>
<path class="st2" d="M18.4,61.9c-0.8-0.8-2.2-0.9-3,0l0,0l0,0L0.3,77C0.1,77.2,0,77.4,0,77.7v5c0,0.3,0.2,0.6,0.5,0.8l47.2,27.2
	c0.3,0.2,0.6,0.2,0.9,0l10.6-6.1c0.4-0.3,0.6-0.8,0.3-1.3c0-0.1-0.1-0.1-0.1-0.2L18.4,61.9L18.4,61.9z"/>
<linearGradient id="SVGID_3_" gradientUnits="userSpaceOnUse" x1="55.1987" y1="971.8" x2="188.7987" y2="1137.76" gradientTransform="matrix(1 0 0 1 -1.712334e-02 -968.0107)">
	<stop  offset="0" style="stop-color:#D42D2F"/>
	<stop  offset="1" style="stop-color:#831A23"/>
</linearGradient>
<path class="st3" d="M47.7,0.1L37,6.3c-0.4,0.3-0.6,0.8-0.3,1.3c0,0.1,0.1,0.1,0.1,0.2l41,41.3l0,0c0.8,0.8,2.2,0.9,3.1,0l0,0l0,0
	L96,33.7c0.2-0.2,0.3-0.4,0.3-0.6v-4.8c0-0.3-0.2-0.6-0.5-0.8L48.6,0.1C48.3,0,48,0,47.7,0.1z"/>
<linearGradient id="SVGID_4_" gradientUnits="userSpaceOnUse" x1="36.8409" y1="986.5776" x2="170.4409" y2="1152.5377" gradientTransform="matrix(1 0 0 1 -1.712334e-02 -968.0107)">
	<stop  offset="0" style="stop-color:#D42D2F"/>
	<stop  offset="1" style="stop-color:#831A23"/>
</linearGradient>
<path class="st4" d="M54.6,85.1L54.6,85.1c-0.8,0.8-0.8,2.2,0,3l0,0l11.5,11.7c0.3,0.3,0.8,0.4,1.1,0.2l28.6-16.5
	c0.3-0.2,0.5-0.5,0.5-0.8V45.3c0-0.5-0.4-0.9-0.9-0.9c-0.3,0-0.5,0.1-0.7,0.3L60.8,78.9L54.6,85.1z"/>
<linearGradient id="SVGID_5_" gradientUnits="userSpaceOnUse" x1="25.6479" y1="995.5906" x2="159.2479" y2="1161.5605" gradientTransform="matrix(1 0 0 1 -1.712334e-02 -968.0107)">
	<stop  offset="0" style="stop-color:#D42D2F"/>
	<stop  offset="1" style="stop-color:#831A23"/>
</linearGradient>
<path class="st5" d="M23.3,53.9c-0.8,0.8-0.8,2.2,0,3.1l0,0l23.3,23.3l0,0c0.8,0.8,2.2,0.8,3,0l0,0L72.9,57l0,0c0.8-0.8,0.8-2.2,0-3
	l0,0L49.6,30.6l0,0c-0.8-0.8-2.2-0.8-3,0l0,0L23.3,53.9z"/>
</svg>
