<svg enable-background="new 0 0 484 252.2" viewBox="0 0 484 252.2" xmlns="http://www.w3.org/2000/svg"><path d="m358.2 23.1 22.2 26.7 22.2-26.7c9.6-11.4 24-18.7 40.2-18.7h36v26.2h-36c-8.1 0-15.3 3.6-20 9.5l-25.3 30 25.3 30.1c4.8 5.7 11.9 9.4 20 9.4h36v26.2h-36c-16.1 0-30.5-7.3-40.2-18.7l-22.2-26.7-22.2 26.7c-9.6 11.4-24 18.7-40.2 18.7h-36v-26.2h36c8.1 0 15.3-3.6 20-9.4l25.3-30.1-25.3-30c-4.8-5.9-11.9-9.5-20-9.5h-36v-26.2h36c16.2 0 30.5 7.2 40.2 18.7zm-130 112.7h27.5v-131.4h-27.5zm-102.5-112.7c9.6-11.4 24.2-18.7 40.2-18.7h36.1v26.2h-36.1c-8.1 0-15.3 3.6-20 9.5l-64.3 77c-9.8 11.4-24.2 18.7-40.2 18.7h-36.2v-26.2h36.1c7.9 0 15.3-3.6 20-9.4z" fill="#de3919"/><path d="m472.2 203.4h-14.5c0-1.9.2-3.3.3-5.1.5-4.5 2.3-7.8 7.2-7.8 4.8 0 6.5 3.7 6.8 7.8.2 1.7.2 3.3.2 5.1zm6.5 4.3v-1.9c0-9.6-.3-19.9-13.4-19.9-13.4 0-14 12-14 22.7 0 10.5 1.5 19.3 13.6 19.3 9.7 0 13.2-5.3 13.4-13.6h-6.3c0 4.8-1 8.9-7.1 8.9-6.7 0-7.2-6.1-7.2-12.8v-2.7zm-43.5-2.1c0 6.1.2 16.4-8 16.4-6.8 0-6.9-8.1-6.9-14.8 0-7.2 0-16.6 7.4-16.6 7.2 0 7.5 8.3 7.5 15zm6.6-18.8h-6.4v4.8c-2-4-4.6-5.7-9.5-5.7-10.9 0-12.2 11.2-12.2 21.4 0 8.9 1 19.1 12.2 19.1 4.1 0 6.7-1.1 9.2-4.8v5.7c0 6.4-.9 11-7.6 11-4.6 0-6.1-3-6.1-7.3h-6.6c0 8.1 4.3 11.6 12.4 11.6 9.9 0 14.5-4.1 14.5-14v-35.1c0-2.4.1-4.6.1-6.7zm-37.9 40v-28.6c0-7.5-2.6-12.4-10.5-12.4-5.1 0-8.8 3-10.5 6.5v-5.6h-6.1c.2 2.9.3 5.9.3 8.8v31.3h6.1v-24.1c0-5.4 2.3-12.1 8-12.1 6.4 0 6.4 5.7 6.4 10.7v25.5zm-44.2-15.6c0 5.3-1.6 11.8-8.2 11.8-4.4 0-6.1-3.8-6.1-7.8 0-7.5 6.4-8.6 12.6-8.6h1.6c.1 0 .1 4.6.1 4.6zm6.6 15.6c-.3-4.3-.3-8.5-.3-12.8v-14.8c0-8.9-2.6-13.4-12.2-13.4-7.2 0-13.2 2.9-13.2 10.5v.5h6.1v-.5c0-3.8 3.1-5.9 6.7-5.9 6.3 0 6.3 5.3 6.3 9.9v1.9c-10.2 0-20.5.8-20.5 13.6 0 6.5 3.1 11.8 10.2 11.8 4.9 0 7.9-1.9 10.7-6.1v5.3zm-36.2 0v-28.4c0-7.3-2.4-12.6-10.5-12.6-4.6 0-7.6 2.1-10.1 5.6v-22h-6.3v57.4h6.3v-24.4c0-6.5 1.8-11.8 8.1-11.8 6.2 0 6.1 6.1 6.1 10.7v25.5zm-35.2-12.2h-6.3c-.2 4.5-.9 8.6-6.3 8.6-5.9 0-7.2-4.8-7.2-16.4 0-7.5-.2-16.3 7.4-16.3 5.3 0 6.1 3.8 6.1 8.5h6.3c0-8.9-2.8-13.1-12.4-13.1-13.2 0-14 11-14 21.7 0 12 1.3 20.3 13.8 20.3 10.1-.1 12.6-6.3 12.6-13.3zm-31.3 12.2-11.3-21.2 10.1-18.8h-6.5l-6.8 14.5-6.3-14.5h-7.4l9.7 18.8-11.1 21.2h6.8l7.9-16.7 7.6 16.7zm-34.3 0v-5.4h-20.3v-21.5h18.8v-5.3h-18.8v-19.8h19.8v-5.4h-26.5v57.4zm-55.7-10.8c0-6.7-4.4-9.4-9.5-12-4.4-2.6-8-4.1-8-8.3 0-3.2 2.3-5.4 5.4-5.4 3.8 0 5.1 2.1 5.5 4.9 0 .8.1 1.6.1 2.6h6.3c0-1.1 0-2.2-.1-3.2-1-6.1-4.6-8.8-11.4-8.8-6.7 0-12 3.3-12 10.4 0 7 4.7 9.1 10.2 12.1 4.6 2.4 7.2 3.7 7.2 8.6 0 4-2 6.2-5.9 6.2-4.1 0-5.6-2.6-6.1-6.2 0-.8 0-1.6 0-2.2h-6.3c0 1 0 2.1.2 2.7.5 6.9 4.4 10.2 12 10.2s12.4-3.8 12.4-11.6zm-31.3 0c0-6.7-4.6-9.4-9.5-12-4.6-2.6-7.9-4.1-7.9-8.3 0-3.2 2-5.4 5.3-5.4 4 0 5.3 2.1 5.6 4.9 0 .8.2 1.6.2 2.6h6.3c0-1.1 0-2.2-.3-3.2-.9-6.1-4.5-8.8-11.4-8.8-6.7 0-11.8 3.3-11.8 10.4 0 7 4.7 9.1 10.1 12.1 4.5 2.4 7.1 3.7 7.1 8.6 0 4-2.2 6.2-5.9 6.2-4.1 0-5.5-2.6-5.9-6.2-.2-.8-.2-1.6-.2-2.2h-6.1v2.7c.5 6.9 4.6 10.2 11.9 10.2 7.6 0 12.5-3.8 12.5-11.6zm-33.5-29.2h-6.3v40h6.3zm.4-16.6h-6.9v6.9h6.9zm-14.1 16.6h-6.3l-7.2 34.1-7.9-34.1h-7.4l-7.6 34.1-7.6-34.1h-6.7l10.2 40h7.4l7.7-33.2 7.8 33.2h7.6zm-54.9 26c0-10.4-5.5-12.8-12.2-17.1-5.8-3.8-11.9-5.9-11.9-13.4 0-5.4 3.3-8.6 8.4-8.6 6.8 0 8.4 3.5 8.4 8.9v1.4h6.7v-1.9c0-9.7-5.3-13.9-14.8-13.9-9 0-15.6 4.6-15.6 14.4 0 10 6.3 13.2 14 18.2 5.3 3.2 10.1 5.4 10.1 12.4 0 5.7-2.6 9.3-8.9 9.3-7.4 0-8.9-4.8-8.9-11.3v-.5h-6.9v.5c0 11.3 4.4 16.7 15.8 16.7 9.6.1 15.8-4.9 15.8-15.1z" fill="#fff"/></svg>