<svg enable-background="new 0 0 506.645 128" height="128" title="BtcTurk Logo" viewBox="0 0 506.645 128" width="506.645" xmlns="http://www.w3.org/2000/svg" xmlns:xlink="http://www.w3.org/1999/xlink"><clipPath id="a"><path d="m63.556 111.902c-7.422 5.289-11.857 11.857-9.813 14.755 2.049 2.9 9.727.945 17.146-4.352 7.422-5.279 11.854-11.852 9.808-14.748-.597-.944-1.792-1.281-3.414-1.281-.065-.005-.138-.005-.208-.005-3.409-.002-8.506 2.04-13.519 5.631m-40.943-11.257c-14.414 5.968-24.391 14.835-22.347 19.872 2.05 5.036 15.438 4.266 29.854-1.62 14.414-5.966 24.391-14.836 22.344-19.87-.935-2.219-4.093-3.327-8.614-3.327-.133 0-.268 0-.401 0-5.594-.001-13.092 1.702-20.836 4.945m66.016-5.972c-2.56 4.867-3.328 9.469-1.792 10.234 1.536.859 4.862-2.474 7.419-7.328 2.56-4.865 3.328-9.474 1.792-10.239-.169-.084-.344-.084-.511-.084-.023 0-.046-.005-.067-.005-1.714 0-4.568 3.128-6.841 7.422m-20.813-13.475c-4.942 2.818-7.502 7.589-5.796 10.665 1.791 3.07 7.164 3.153 12.112.338 4.948-2.81 7.505-7.588 5.8-10.659-.938-1.625-2.815-2.387-5.117-2.387-2.134-.003-4.606.679-6.999 2.043m18.253-6.481c-1.451 2.474-1.364 5.2.258 6.144 1.537.938 4.008-.428 5.373-2.899 1.45-2.481 1.365-5.205-.252-6.143-.341-.172-.683-.26-1.112-.26-1.366 0-3.069 1.281-4.267 3.158m-18.339-10.661c0 2.981 2.729 5.374 6.058 5.374 3.326 0 6.141-2.388 6.141-5.374 0-2.987-2.726-5.373-6.141-5.373-3.326 0-6.058 2.474-6.058 5.373m-40.68 0c0 6.653 7.505 12.026 16.8 12.026 9.213.082 16.719-5.29 16.719-12.026 0-6.654-7.505-12.029-16.802-12.029-9.211 0-16.717 5.375-16.717 12.029m59.449-16.975c-1.536.94-1.62 3.667-.258 6.138 1.451 2.474 3.836 3.755 5.375 2.901 1.537-.94 1.623-3.667.255-6.141-1.107-1.958-2.815-3.154-4.263-3.154-.078-.019-.153-.024-.229-.024-.326.001-.602.142-.88.28m-24.224-11.002c-1.792 3.067.854 7.849 5.799 10.664 4.948 2.815 10.321 2.727 12.113-.341 1.793-3.067-.852-7.844-5.8-10.661-2.388-1.365-4.862-2.047-6.995-2.047-2.303-.006-4.263.765-5.117 2.385m24.562-13.053c-1.537.854-.769 5.375 1.792 10.237 2.557 4.862 5.885 8.102 7.422 7.336 1.534-.857.768-5.375-1.792-10.235-2.302-4.354-5.203-7.424-6.906-7.424-.175.003-.344.003-.516.086m-86.571-15.606c-2.046 5.033 7.933 13.901 22.347 19.875 14.417 5.971 27.722 6.653 29.852 1.617 2.05-5.031-7.93-13.901-22.344-19.875-8.019-3.235-15.612-4.943-21.237-4.943-4.524 0-7.677 1.107-8.618 3.326m53.394-6.141c-2.049 2.9 2.388 9.468 9.81 14.758 7.419 5.286 15.097 7.25 17.141 4.349 2.05-2.901-2.388-9.469-9.807-14.758-5.121-3.581-10.321-5.628-13.735-5.628-1.617 0-2.813.427-3.409 1.279"/></clipPath><linearGradient id="b" gradientUnits="userSpaceOnUse" x1=".00549788" x2="96.8357358" y1="64.82167638" y2="64.82167638"><stop offset="0" stop-color="#003aff"/><stop offset=".2471" stop-color="#0067ff"/><stop offset=".8035" stop-color="#02d6ff"/><stop offset="1" stop-color="#02ffff"/></linearGradient><path clip-path="url(#a)" d="m-1.778 0h99.365v129.557h-99.365z" fill="url(#b)"/><path d="m117.413 23.037h28.13c15.453 0 26.133 8.422 26.133 21.88 0 7.377-3.472 13.281-9.985 16.406 9.549 3.125 14.844 10.162 14.844 20.146 0 14.673-11.286 23.613-29.086 23.613h-30.214zm27.175 33.948c7.812 0 13.287-3.906 13.287-10.94s-5.475-10.939-13.287-10.939h-13.284v21.88h13.284zm2.518 35.857c9.203 0 15.192-4.252 15.192-12.325 0-7.641-6.25-12.068-15.453-12.068h-15.628v24.394h15.889zm67.896 1.219c2.343 0 4.687-.35 6.424-1.739v12.07c-2.347 1.391-5.643 2.166-10.505 2.166-11.721 0-18.755-7.031-18.755-19.099v-28.302h-10.333v-1.912l23.617-24.394h.346v14.846h15.453v11.547h-15.195v25.787c.003 6.248 2.698 9.03 8.948 9.03m44.889-47.842c5.815 0 10.939 1.391 15.625 4.081v13.456c-4.688-3.297-9.375-5.034-14.412-5.034-10.331 0-18.148 7.813-18.148 17.797 0 9.987 7.641 17.8 18.148 17.8 5.643 0 10.502-2.342 14.671-5.036v13.458c-4.858 2.693-10.158 4.081-15.976 4.081-18.146 0-30.648-12.675-30.648-30.045-.084-17.709 12.591-30.558 30.74-30.558m15.625-23.182h60.514v13.109h-23.006v68.938h-14.411v-68.938h-23.014v-13.109zm101.152 24.573h13.893v57.391h-13.893v-7.641c-3.732 5.472-9.55 8.942-17.8 8.942-13.889 0-22.229-9.197-22.229-24.224v-34.56h13.896v32.04c0 8.944 4.511 14.244 12.675 14.244 8.161 0 13.459-6.255 13.459-15.979v-30.213zm64.422 13.021c-.607-.346-1.737-.346-3.474-.346-10.159 0-16.235 7.821-16.235 19.54v25.349h-13.627v-57.564h13.453v9.724c2.952-6.599 9.726-10.94 17.364-10.94 1.561 0 2.346.175 2.519.347zm22.836 44.37h-13.633v-81.964h13.633zm23.353-57.391h17.022l-21.881 27.088 24.224 30.215h-17.019l-24.224-30.215z" fill="#f5f5f5"/></svg>