<?xml version="1.0" encoding="utf-8"?>
<!-- Generator: Adobe Illustrator 24.1.3, SVG Export Plug-In . SVG Version: 6.00 Build 0)  -->
<svg version="1.1" id="Layer_1" xmlns="http://www.w3.org/2000/svg" xmlns:xlink="http://www.w3.org/1999/xlink" x="0px" y="0px"
	 viewBox="0 0 983.9 220.3" style="enable-background:new 0 0 983.9 220.3;" xml:space="preserve">
<style type="text/css">
	.st0{fill:#FFFFFF;}
</style>
<polygon class="st0" points="93.4,89.9 186.9,143.8 186.9,125.9 93.4,71.9 "/>
<polygon class="st0" points="93.4,53.9 186.9,107.9 186.9,89.9 93.4,36 "/>
<polygon class="st0" points="93.4,18 186.9,71.9 186.9,53.9 93.4,0 "/>
<polygon class="st0" points="140.2,134.9 46.7,188.8 62.3,197.8 155.7,143.9 "/>
<polygon class="st0" points="171.3,152.8 77.9,206.8 93.4,215.8 186.9,161.8 "/>
<polygon class="st0" points="109,116.9 15.6,170.8 31.2,179.8 124.6,125.9 "/>
<polygon class="st0" points="77.9,116.9 77.9,9 62.3,18 62.3,125.9 "/>
<polygon class="st0" points="15.6,152.8 15.6,44.9 0,53.9 0,161.8 "/>
<polygon class="st0" points="46.7,134.9 46.7,27 31.1,36 31.1,143.9 "/>
<g>
	<path class="st0" d="M324.2,154c-1.8,4.2-4.3,7.9-7.4,11.1c-3.1,3.1-6.8,5.6-11.1,7.4c-4.2,1.8-8.8,2.7-13.6,2.7h-1.5
		c-3.7,0-7.3-0.6-10.7-1.7c-3.4-1.1-6.1-2.7-7.9-4.7v43.4c0,2.7-0.9,4.8-2.6,6.1c-1.7,1.4-3.6,2-5.6,2c-2,0-3.9-0.7-5.6-2
		c-1.7-1.4-2.6-3.4-2.6-6.1V77.1c0-2.7,0.9-4.7,2.6-6c1.7-1.3,3.6-1.9,5.6-1.9c1.9,0,3.6,0.5,5.2,1.6c1.6,1.1,2.5,2.7,2.8,4.8
		c1.6-1.6,4-3,7.3-4.4c3.3-1.4,7-2,11.2-2h1.9c4.7,0,9.2,0.9,13.4,2.7c4.2,1.8,7.9,4.3,11.1,7.4c3.1,3.2,5.7,6.8,7.5,11.1
		c1.9,4.2,2.8,8.7,2.8,13.4v36.9C326.9,145.3,326,149.8,324.2,154z M310.6,103.7c0-5-1.8-9.3-5.4-12.9c-3.6-3.6-7.9-5.4-13.1-5.4
		h-1.9c-4.9,0-9.1,1.5-12.8,4.5c-3.7,3-5.5,7.2-5.5,12.5v39.9c0,5,1.8,9,5.5,12c3.6,3,7.9,4.5,12.8,4.5h1.9c5.2,0,9.5-1.8,13.1-5.4
		c3.6-3.6,5.4-7.9,5.4-12.9V103.7z"/>
	<path class="st0" d="M433.1,172.6c-1.4,1.7-3.3,2.6-5.9,2.6c-0.7,0-1.2-0.1-1.5-0.2c-3.7-0.6-6.7-1.6-9-3.1
		c-2.3-1.5-4.2-3.3-5.6-5.3c-3.2,2.7-6.7,4.8-10.6,6.3c-3.9,1.5-8.1,2.3-12.6,2.3h-1.9c-4.3,0-8.5-0.7-12.7-2
		c-4.2-1.4-7.8-3.3-11.1-5.9c-3.2-2.6-5.8-5.8-7.8-9.7c-2-3.9-3-8.3-3-13.3v-2.6c0.3-5.6,1.7-10.2,4.2-13.8c2.5-3.7,5.6-6.6,9.3-8.8
		c3.7-2.2,7.8-3.9,12.2-4.9c4.4-1.1,8.6-2,12.6-2.8c3.9-0.8,7.4-1.5,10.3-2c2.9-0.6,4.8-1.5,5.7-2.8c0.3-0.4,0.5-1,0.5-1.7
		c0.1-0.7,0.1-1.4,0.1-1.9c0-6.4-1.7-10.9-5.2-13.5c-3.4-2.6-7.5-3.9-12.2-3.9h-1.5c-4.4,0-7.9,0.9-10.5,2.7
		c-2.6,1.8-4.9,4.5-6.9,8.1c-0.9,1.6-1.9,2.7-3.2,3.3c-1.3,0.6-2.6,1-4.1,1c-2,0-3.9-0.7-5.6-2c-1.7-1.4-2.6-3.2-2.6-5.5
		c0-1.4,0.3-2.7,0.9-3.9c1.7-3.9,3.8-7.1,6.3-9.7c2.5-2.6,5.2-4.6,8-6.1s5.8-2.6,8.8-3.2c3-0.6,5.9-1,8.8-1h1.5
		c4.7,0,9.2,0.9,13.3,2.6c4.1,1.7,7.7,4.1,10.7,7.1c3,3,5.4,6.5,7.1,10.5c1.7,4,2.6,8.3,2.6,12.9V152c0,4.2,1.9,6.5,5.6,7.1
		c2.4,0.4,4.2,1.4,5.3,2.9c1.1,1.5,1.6,3.1,1.6,4.8C435.1,169,434.4,170.9,433.1,172.6z M406.3,123.7c-4,1.1-8.2,2-12.7,2.7
		c-4.4,0.6-8.6,1.5-12.3,2.6c-3.8,1.1-7,2.6-9.6,4.6c-2.6,2-3.9,4.9-4.1,8.6v1.7c0,4.6,1.7,8.2,5,10.9c3.4,2.7,7.8,4.1,13.2,4.1h1.9
		c2.6,0,5-0.5,7.2-1.4c2.2-0.9,4.1-2.2,5.8-3.9c1.6-1.6,3-3.6,4-5.8c1-2.2,1.5-4.6,1.5-7.2L406.3,123.7L406.3,123.7z"/>
	<path class="st0" d="M523.7,78.3c-0.1,0.4-0.2,0.9-0.3,1.5l-35.4,110.6c-2.4,7.7-5.8,14.3-10.2,19.8c-4.4,5.4-10.5,8.7-18.4,9.9
		c-0.3,0.1-0.7,0.2-1.3,0.2c-2.3,0-4.2-0.8-5.7-2.4c-1.5-1.6-2.3-3.6-2.3-6c0-1.9,0.6-3.6,1.7-5.2c1.1-1.6,2.9-2.5,5.4-2.8
		c3-0.4,5.8-1.9,8.3-4.5c2.5-2.6,4.8-7.2,7-14l7.5-23.6l-28.6-82c-0.3-0.4-0.4-0.9-0.4-1.3c0-0.6,0-1.1,0-1.5c0-2.1,0.8-4,2.4-5.6
		c1.6-1.6,3.6-2.4,6-2.4c1.6,0,3,0.4,4.4,1.3c1.4,0.9,2.4,2.3,3.1,4.3l21.3,61.2l19.5-61.2c0.7-2,1.8-3.4,3.1-4.3
		c1.4-0.9,2.8-1.3,4.4-1.3c2.4,0,4.5,0.8,6.1,2.4c1.6,1.6,2.5,3.4,2.5,5.6C523.8,77.5,523.7,77.9,523.7,78.3z"/>
	<path class="st0" d="M671.3,173.1c-1.7,1.4-3.6,2-5.6,2c-2,0-3.9-0.7-5.6-2c-1.7-1.4-2.6-3.4-2.6-6.1v-63.6c0-6-1.7-10.5-5-13.5
		c-3.4-3-7.8-4.5-13.2-4.5h-1.9c-5.2,0-9.5,1.7-13.1,5.3c-3.6,3.5-5.4,7.9-5.4,13.2v62.7c0,2.9-0.9,5-2.6,6.4
		c-1.7,1.4-3.6,2.1-5.6,2.1c-2,0-3.9-0.7-5.6-2.1c-1.7-1.4-2.6-3.6-2.6-6.4v-62.7c0-5.4-1.8-9.9-5.4-13.3c-3.6-3.4-7.9-5.1-13.1-5.1
		h-1.9c-4.9,0-9.2,1.5-12.9,4.5c-3.7,3-5.6,7-5.6,12V167c0,2.7-0.9,4.8-2.6,6.1c-1.7,1.4-3.6,2-5.6,2s-3.9-0.7-5.6-2
		c-1.7-1.4-2.6-3.4-2.6-6.1V77.3c0-2.6,0.9-4.6,2.6-6c1.7-1.4,3.7-2.2,5.8-2.2c1.7,0,3.4,0.5,4.9,1.6c1.6,1.1,2.6,2.7,3,4.8
		c2-2,4.6-3.6,7.9-4.7c3.3-1.1,6.8-1.7,10.5-1.7h1.9c5.4,0,10.4,1.1,14.9,3.3c4.5,2.2,8.4,5.2,11.7,8.9c3.3-3.7,7.2-6.7,11.7-8.9
		c4.5-2.2,9.5-3.3,14.9-3.3h1.9c4.6,0,8.9,0.7,13.1,2c4.1,1.4,7.8,3.4,11.1,6.2c3.2,2.8,5.8,6.4,7.6,10.7c1.9,4.4,2.8,9.5,2.8,15.4
		V167C673.9,169.7,673,171.8,671.3,173.1z"/>
	<path class="st0" d="M719.8,43.2c-1.7,1.4-3.6,2-5.6,2c-2,0-3.9-0.7-5.6-2c-1.7-1.4-2.6-3.4-2.6-6.1v-4.7c0-2.7,0.9-4.8,2.6-6.1
		s3.6-2,5.6-2c2,0,3.9,0.7,5.6,2c1.7,1.4,2.6,3.4,2.6,6.1v4.7C722.4,39.8,721.5,41.9,719.8,43.2z M719.8,173.1c-1.7,1.4-3.6,2-5.6,2
		c-2,0-3.9-0.7-5.6-2c-1.7-1.4-2.6-3.4-2.6-6.1V77.3c0-2.7,0.9-4.8,2.6-6.1c1.7-1.4,3.6-2,5.6-2c2,0,3.9,0.7,5.6,2
		c1.7,1.4,2.6,3.4,2.6,6.1V167C722.4,169.7,721.5,171.8,719.8,173.1z"/>
	<path class="st0" d="M823.5,173c-1.7,1.4-3.6,2.1-5.6,2.1c-1.9,0-3.6-0.5-5.2-1.6c-1.6-1.1-2.6-2.7-3-4.8c-2,2-4.7,3.6-7.9,4.7
		c-3.3,1.1-6.8,1.7-10.5,1.7h-1.9c-4.6,0-9-0.7-13.2-2c-4.2-1.4-7.9-3.5-11.1-6.3c-3.1-2.9-5.7-6.5-7.5-10.8
		c-1.9-4.4-2.8-9.5-2.8-15.4V77.3c0-2.7,0.9-4.8,2.6-6.1c1.7-1.4,3.6-2,5.6-2c2,0,3.9,0.7,5.6,2c1.7,1.4,2.6,3.4,2.6,6.1v63.3
		c0,5,1.8,9.3,5.4,12.9c3.6,3.6,7.9,5.4,12.9,5.4h1.9c5.2,0,9.5-1.8,13.1-5.4c3.6-3.6,5.4-7.9,5.4-12.9V77.3c0-2.7,0.9-4.8,2.6-6.1
		c1.7-1.4,3.6-2,5.6-2c2,0,3.9,0.7,5.6,2c1.7,1.4,2.6,3.4,2.6,6.1V167C826.1,169.6,825.2,171.6,823.5,173z"/>
	<path class="st0" d="M981.3,173.1c-1.7,1.4-3.6,2-5.6,2c-2,0-3.9-0.7-5.6-2c-1.7-1.4-2.6-3.4-2.6-6.1v-63.6c0-6-1.7-10.5-5-13.5
		c-3.4-3-7.8-4.5-13.2-4.5h-1.9c-5.2,0-9.5,1.7-13.1,5.3c-3.6,3.5-5.4,7.9-5.4,13.2v62.7c0,2.9-0.9,5-2.6,6.4
		c-1.7,1.4-3.6,2.1-5.6,2.1s-3.9-0.7-5.6-2.1c-1.7-1.4-2.6-3.6-2.6-6.4v-62.7c0-5.4-1.8-9.9-5.4-13.3c-3.6-3.4-7.9-5.1-13.1-5.1
		h-1.9c-4.9,0-9.2,1.5-12.9,4.5c-3.7,3-5.6,7-5.6,12V167c0,2.7-0.9,4.8-2.6,6.1c-1.7,1.4-3.6,2-5.6,2c-2,0-3.9-0.7-5.6-2
		c-1.7-1.4-2.6-3.4-2.6-6.1V77.3c0-2.6,0.9-4.6,2.6-6c1.7-1.4,3.7-2.2,5.8-2.2c1.7,0,3.4,0.5,4.9,1.6c1.6,1.1,2.6,2.7,3,4.8
		c2-2,4.7-3.6,7.9-4.7c3.3-1.1,6.8-1.7,10.5-1.7h1.9c5.4,0,10.4,1.1,14.9,3.3c4.5,2.2,8.4,5.2,11.7,8.9c3.3-3.7,7.2-6.7,11.7-8.9
		c4.5-2.2,9.5-3.3,14.9-3.3h1.9c4.6,0,8.9,0.7,13.1,2c4.2,1.4,7.8,3.4,11.1,6.2c3.2,2.8,5.8,6.4,7.6,10.7c1.9,4.4,2.8,9.5,2.8,15.4
		V167C983.9,169.7,983,171.8,981.3,173.1z"/>
</g>
</svg>
