<?xml version="1.0" encoding="UTF-8"?>
<svg width="400px" height="146px" viewBox="0 0 400 146" version="1.1" xmlns="http://www.w3.org/2000/svg" xmlns:xlink="http://www.w3.org/1999/xlink">
    <title>brand/logo-products/c-lightning</title>
    <defs>
        <polygon id="path-1" points="0.599992357 1.43898182 26.9701818 1.43898182 26.9701818 33.4244364 0.599992357 33.4244364"></polygon>
    </defs>
    <g id="Unified-Headers" stroke="none" stroke-width="1" fill="none" fill-rule="evenodd">
        <g id="Assets" transform="translate(-790.000000, -848.000000)">
            <g id="brand/products/logos/c-lightning" transform="translate(790.000000, 848.000000)">
                <g id="Group-19">
                    <polygon id="Fill-1" fill="#F0D003" points="0.599563636 75.4914909 65.0752 58.7278545 26.4352 58.7351273 56.6737455 0.000581818182"></polygon>
                    <polygon id="Fill-2" fill="#FFFAE6" points="0 86.7248 38.6385455 86.7189818 8.39854545 145.454982 64.4756364 69.9611636"></polygon>
                    <polygon id="Fill-3" fill="#F0D003" points="122.485527 67.7086545 119.983709 72.7762909 133.362618 72.7762909 135.862982 67.7086545"></polygon>
                    <polygon id="Fill-4" fill="#F0D003" points="150.751855 80.3201455 150.751855 54.0714182 144.881309 54.0714182 144.881309 85.5230545 162.568582 85.5230545 165.071855 80.3201455"></polygon>
                    <polygon id="Fill-5" fill="#F0D003" points="174.126545 85.5229091 180 85.5229091 180 54.0712727 174.126545 54.0712727"></polygon>
                    <polygon id="Fill-6" fill="#F0D003" points="241.443636 54.0715636 241.443636 67.0621091 230.354182 67.0621091 230.354182 54.0715636 224.480727 54.0715636 224.480727 85.5232 230.354182 85.5232 230.354182 72.2199273 241.443636 72.2199273 241.443636 85.5232 247.317091 85.5232 247.317091 54.0715636"></polygon>
                    <polygon id="Fill-7" fill="#F0D003" points="279.984727 54.0715636 257.542545 54.0715636 255.037818 59.2730182 264.576727 59.2730182 264.576727 85.5232 270.445818 85.5232 270.445818 59.2730182 277.48 59.2730182"></polygon>
                    <polygon id="Fill-8" fill="#F0D003" points="311.702836 85.5226182 311.702836 54.0709818 305.829382 54.0709818 305.829382 73.9328 305.523927 73.4586182 292.982836 54.0709818 287.705745 54.0709818 287.705745 85.5226182 293.5792 85.5226182 293.5792 65.6142545 306.425745 85.5226182"></polygon>
                    <polygon id="Fill-9" fill="#F0D003" points="323.026909 85.5229091 328.897455 85.5229091 328.897455 54.0712727 323.026909 54.0712727"></polygon>
                    <polygon id="Fill-10" fill="#F0D003" points="364.209891 85.5226182 364.209891 54.0709818 358.3408 54.0709818 358.3408 73.9328 358.033891 73.4586182 345.4928 54.0709818 340.217164 54.0709818 340.217164 85.5226182 346.086255 85.5226182 346.086255 65.6142545 358.934255 85.5226182"></polygon>
                    <g id="Group-18" transform="translate(87.272727, 52.363636)">
                        <g id="Group-13" transform="translate(285.090909, 0.000000)">
                            <mask id="mask-2" fill="white">
                                <use xlink:href="#path-1"></use>
                            </mask>
                            <g id="Clip-12"></g>
                            <path d="M11.0820364,33.0651636 C11.4747636,33.1597091 11.8791273,33.2353455 12.2864,33.2906182 L12.3751273,33.3022545 C13.0209455,33.3866182 13.5707636,33.4244364 14.1060364,33.4244364 C14.5642182,33.4244364 15.0340364,33.4011636 15.5416727,33.3546182 C15.5620364,33.3531636 15.5809455,33.3517091 15.5984,33.3517091 C15.6129455,33.3517091 15.6274909,33.3517091 15.6420364,33.3502545 C15.6696727,33.3473455 15.6944,33.3415273 15.7191273,33.3371636 C15.7540364,33.3284364 15.7874909,33.3211636 15.8267636,33.3182545 C19.0936727,33.0477091 21.8369455,31.8229818 23.9780364,29.6760727 C26.1322182,27.5160727 26.9714909,24.8309818 26.9714909,20.1008 L26.9714909,15.5844364 L17.8907636,15.5844364 L15.2245818,20.5240727 L20.9409455,20.5240727 L21.0514909,20.5240727 L21.0514909,20.6346182 L21.0514909,21.8360727 C21.0514909,23.7022545 20.5627636,25.1509818 19.5969455,26.1386182 C18.3664,27.3982545 16.9162182,27.7604364 15.7874909,27.9364364 C15.3322182,28.0062545 14.8813091,28.0426182 14.4464,28.0426182 C10.5453091,28.0426182 6.60785455,24.7611636 6.60785455,17.4288 C6.60785455,12.1182545 8.95985455,6.75970909 14.2151273,6.75970909 C14.5874909,6.75970909 14.9773091,6.78734545 15.3671273,6.84261818 C17.5184,7.19607273 20.0173091,8.61570909 20.8304,11.0011636 L25.8369455,8.05716364 C25.2507636,6.89498182 22.4885818,2.22298182 15.6827636,1.52625455 L15.5838545,1.51607273 L15.5838545,1.51170909 L15.5649455,1.51170909 C15.0413091,1.46225455 14.5656727,1.43898182 14.1060364,1.43898182 C13.0878545,1.43898182 12.0711273,1.55970909 11.0820364,1.79825455 L10.9394909,1.83170909 L10.8740364,1.84770909 C10.6820364,1.89861818 10.4871273,1.95243636 10.2980364,2.01352727 C4.18312727,3.75461818 0.469672727,9.67898182 0.603490909,17.4738909 C0.603490909,25.3677091 4.40567273,31.2891636 10.5278545,32.9313455 L10.5365818,32.9909818 C10.5438545,32.9924364 10.5496727,32.9953455 10.5569455,32.9982545 L10.5700364,32.9444364 C10.7402182,32.9880727 10.9118545,33.0273455 11.0820364,33.0651636" id="Fill-11" fill="#F0D003" mask="url(#mask-2)"></path>
                        </g>
                        <path d="M111.956364,33.0666182 C112.347636,33.1611636 112.752,33.2368 113.160727,33.2920727 L113.248,33.3037091 C113.895273,33.3880727 114.443636,33.4258909 114.978909,33.4258909 C115.437091,33.4258909 115.906909,33.4026182 116.416,33.3560727 C116.436364,33.3546182 116.453818,33.3531636 116.472727,33.3531636 C116.487273,33.3531636 116.501818,33.3531636 116.516364,33.3517091 C116.544,33.3488 116.568727,33.3429818 116.593455,33.3386182 C116.626909,33.3298909 116.661818,33.3226182 116.699636,33.3197091 C119.966545,33.0491636 122.709818,31.8244364 124.850909,29.6775273 C127.005091,27.5175273 127.844364,24.8324364 127.844364,20.1022545 L127.844364,15.5858909 L118.763636,15.5858909 L116.097455,20.5255273 L121.815273,20.5255273 L121.925818,20.5255273 L121.925818,20.6360727 L121.925818,21.8375273 C121.925818,23.7037091 121.435636,25.1524364 120.469818,26.1400727 C119.240727,27.3997091 117.789091,27.7618909 116.661818,27.9378909 C116.205091,28.0077091 115.754182,28.0440727 115.320727,28.0440727 C111.418182,28.0440727 107.480727,24.7626182 107.480727,17.4302545 C107.480727,12.1197091 109.834182,6.76116364 115.089455,6.76116364 C115.461818,6.76116364 115.850182,6.7888 116.241455,6.84407273 C118.392727,7.19752727 120.890182,8.61716364 121.704727,11.0026182 L126.709818,8.05861818 C126.123636,6.89643636 123.361455,2.22443636 116.555636,1.52770909 L116.456727,1.51752727 L116.456727,1.51461818 L116.439273,1.51316364 C115.914182,1.46370909 115.438545,1.44043636 114.978909,1.44043636 C113.962182,1.44043636 112.944,1.56116364 111.956364,1.79970909 L111.813818,1.83316364 L111.746909,1.84916364 C111.554909,1.90007273 111.361455,1.95389091 111.170909,2.01498182 C105.056,3.75607273 101.344,9.68043636 101.476364,17.4753455 C101.476364,25.3691636 105.28,31.2920727 111.402182,32.9328 L111.409455,32.9924364 C111.416727,32.9953455 111.422545,32.9982545 111.429818,32.9997091 L111.431273,32.9997091 L111.444364,32.9458909 C111.614545,32.9895273 111.784727,33.0288 111.956364,33.0666182" id="Fill-14" fill="#F0D003"></path>
                        <path d="M15.1978182,28.2676364 C14.7963636,28.3229091 14.3978182,28.352 14.0138182,28.352 C8.60872727,28.352 6.18981818,22.8712727 6.18981818,17.4385455 L6.18981818,17.4327273 L6.18981818,17.4269091 C6.18981818,11.9956364 8.60872727,6.51490909 14.0138182,6.51490909 C14.3978182,6.51490909 14.7963636,6.54254545 15.1978182,6.59927273 C17.3447273,6.95272727 19.8654545,8.36072727 20.7672727,10.7243636 L25.5469091,7.91418182 C24.7687273,6.432 21.992,2.19490909 15.4785455,1.52727273 L15.2472727,1.50109091 C14.7527273,1.45890909 14.3192727,1.44 13.9032727,1.44 C12.8865455,1.44 11.8712727,1.56072727 10.8865455,1.79781818 L10.6756364,1.84727273 C10.488,1.89818182 10.2945455,1.952 10.104,2.01163636 C4.02690909,3.74254545 0.329454545,9.62036364 0.425454545,17.3629091 C0.425454545,17.3745455 0.424,17.3847273 0.424,17.3949091 C0.424,17.408 0.425454545,17.4196364 0.425454545,17.4327273 C0.425454545,17.4458182 0.424,17.4589091 0.424,17.472 C0.424,17.4821818 0.425454545,17.4909091 0.425454545,17.5025455 C0.329454545,25.2450909 4.02690909,31.1229091 10.104,32.8538182 C10.2945455,32.9134545 10.488,32.9687273 10.6756364,33.0181818 L10.8865455,33.0690909 C11.8712727,33.3061818 12.8865455,33.4269091 13.9032727,33.4269091 C14.3192727,33.4269091 14.7527273,33.408 15.2472727,33.3658182 L15.4785455,33.3396364 C21.992,32.672 24.7687273,28.4334545 25.5469091,26.9527273 L20.7672727,24.1425455 C19.8654545,26.5061818 17.3447273,27.9141818 15.1978182,28.2676364" id="Fill-16" fill="#F0D003"></path>
                    </g>
                </g>
            </g>
        </g>
    </g>
</svg>