<?xml version="1.0" encoding="UTF-8"?>
<svg width="399px" height="102px" viewBox="0 0 399 102" version="1.1" xmlns="http://www.w3.org/2000/svg" xmlns:xlink="http://www.w3.org/1999/xlink">
    <title>brand/logo-products/elements</title>
    <defs>
        <polygon id="path-1" points="0.843786008 0.414485597 26.8823045 0.414485597 26.8823045 36.6482305 0.843786008 36.6482305"></polygon>
        <polygon id="path-3" points="0.0161316872 0 68.6795062 0 68.6795062 39.9107819 0.0161316872 39.9107819"></polygon>
        <polygon id="path-5" points="0 0.465514403 27.4531687 0.465514403 27.4531687 62.748642 0 62.748642"></polygon>
        <polygon id="path-7" points="1.23687243 1.24131687 69.8953086 1.24131687 69.8953086 41.1522634 1.23687243 41.1522634"></polygon>
    </defs>
    <g id="Unified-Headers" stroke="none" stroke-width="1" fill="none" fill-rule="evenodd">
        <g id="Assets" transform="translate(-190.000000, -525.000000)">
            <g id="brand/products/logos/elements" transform="translate(190.000000, 525.000000)">
                <g id="Group-24" transform="translate(0.000000, -0.000000)">
                    <polygon id="Fill-1" fill="#6C8ADD" points="144.285432 42.8235391 144.285432 36.9321811 120.948807 36.9321811 120.948807 72.5585185 144.285432 72.5585185 144.285432 66.6655144 127.597366 66.6655144 127.597366 57.5395885 141.808066 57.5395885 141.808066 51.6465844 127.597366 51.6465844 127.597366 42.8235391"></polygon>
                    <polygon id="Fill-2" fill="#6C8ADD" points="155.594239 36.9320165 155.594239 72.5583539 178.576955 72.5583539 178.576955 66.6653498 162.244444 66.6653498 162.244444 36.9320165"></polygon>
                    <polygon id="Fill-3" fill="#6C8ADD" points="212.062058 42.8235391 212.062058 36.9321811 188.725432 36.9321811 188.725432 72.5585185 212.062058 72.5585185 212.062058 66.6655144 195.373992 66.6655144 195.373992 57.5395885 209.584691 57.5395885 209.584691 51.6465844 195.373992 51.6465844 195.373992 42.8235391"></polygon>
                    <polygon id="Fill-4" fill="#6C8ADD" points="291.77284 42.8235391 291.77284 36.9321811 268.436214 36.9321811 268.436214 72.5585185 291.77284 72.5585185 291.77284 66.6655144 275.084774 66.6655144 275.084774 57.5395885 289.295473 57.5395885 289.295473 51.6465844 275.084774 51.6465844 275.084774 42.8235391"></polygon>
                    <polygon id="Fill-5" fill="#6C8ADD" points="330.264691 72.5585185 330.264691 36.9321811 323.611193 36.9321811 323.611193 59.4293004 309.059753 36.9321811 303.081152 36.9321811 303.081152 72.5585185 309.73465 72.5585185 309.73465 50.0087243 324.287737 72.5585185"></polygon>
                    <polygon id="Fill-6" fill="#6C8ADD" points="340.408889 36.9320165 340.408889 42.8233745 349.81465 42.8233745 349.81465 72.5583539 356.464856 72.5583539 356.464856 42.8233745 365.872263 42.8233745 365.872263 36.9320165"></polygon>
                    <g id="Group-23">
                        <g id="Group-9" transform="translate(372.016461, 36.213992)">
                            <mask id="mask-2" fill="white">
                                <use xlink:href="#path-1"></use>
                            </mask>
                            <g id="Clip-8"></g>
                            <path d="M26.8832922,25.9140741 C26.8832922,22.6482305 25.9664198,20.1247737 24.1606584,18.4144856 C22.6001646,16.9593416 20.5112757,16.1148971 17.3869959,15.6852675 L13.1417284,15.0778601 C11.752428,14.8852675 10.498107,14.3519342 9.70139918,13.6128395 C8.97711934,12.9362963 8.57876543,11.9700412 8.57876543,10.8934979 C8.57876543,8.01613169 10.8372016,6.15604938 14.3302058,6.15604938 C16.6906996,6.15604938 19.4034568,6.44411523 21.7096296,8.55934156 L25.8923457,4.42436214 C22.9573663,1.65234568 19.4446091,0.414485597 14.5326749,0.414485597 C7.02979424,0.414485597 2.18041152,4.62847737 2.18041152,11.1469959 C2.18041152,14.1231276 3.00674897,16.3963786 4.70222222,18.095144 C6.27259259,19.6144856 8.52115226,20.5725103 11.5762963,21.0235391 L15.9252675,21.6309465 C17.5565432,21.8778601 18.4470782,22.2334156 19.2108642,22.9428807 C19.9779424,23.65893 20.3828807,24.7568724 20.3828807,26.1165432 C20.3828807,29.1074897 18.0536626,30.7552263 13.8215638,30.7552263 C10.043786,30.7552263 7.19604938,29.7873251 5.12855967,27.7972016 L0.843786008,32.0836214 C4.061893,35.2803292 7.92526749,36.6482305 13.7211523,36.6482305 C21.716214,36.6482305 26.8832922,32.4342387 26.8832922,25.9140741" id="Fill-7" fill="#6C8ADD" mask="url(#mask-2)"></path>
                        </g>
                        <polygon id="Fill-10" fill="#6C8ADD" points="255.684938 72.7665844 255.684938 36.9311934 249.24214 36.9311934 239.489053 53.1204938 229.735967 36.9311934 223.293169 36.9311934 223.293169 72.7665844 229.67177 72.7665844 229.67177 48.8077366 239.515391 65.614321 249.304691 48.8027984 249.304691 72.7665844"></polygon>
                        <g id="Group-14">
                            <mask id="mask-4" fill="white">
                                <use xlink:href="#path-3"></use>
                            </mask>
                            <g id="Clip-13"></g>
                            <polygon id="Fill-12" fill="#FFFFFF" mask="url(#mask-4)" points="27.4531687 39.9107819 68.6795062 16.1330041 40.7700412 -0.000329218107 0.0161316872 23.5107819"></polygon>
                        </g>
                        <g id="Group-17" transform="translate(0.000000, 23.045267)">
                            <mask id="mask-6" fill="white">
                                <use xlink:href="#path-5"></use>
                            </mask>
                            <g id="Clip-16"></g>
                            <polygon id="Fill-15" fill="#6C8ADD" mask="url(#mask-6)" points="27.4531687 16.8655144 27.4367078 62.748642 -0.000329218107 46.8934979 0.0161316872 0.465514403"></polygon>
                        </g>
                        <g id="Group-20" transform="translate(26.337449, 60.905350)">
                            <mask id="mask-8" fill="white">
                                <use xlink:href="#path-7"></use>
                            </mask>
                            <g id="Clip-19"></g>
                            <polygon id="Fill-18" fill="#645BBC" mask="url(#mask-8)" points="42.4632099 1.24131687 1.23687243 25.0240329 29.1446914 41.152428 69.8953086 17.6479012"></polygon>
                        </g>
                        <polygon id="Fill-21" fill="#7D3FA5" points="68.8006584 62.1466667 68.8154733 16.2684774 96.2541564 32.1252675 96.2327572 78.553251"></polygon>
                    </g>
                </g>
            </g>
        </g>
    </g>
</svg>