<?xml version="1.0" encoding="UTF-8"?>
<svg width="400px" height="130px" viewBox="0 0 400 130" version="1.1" xmlns="http://www.w3.org/2000/svg" xmlns:xlink="http://www.w3.org/1999/xlink">
    <title>brand/logo-products/green</title>
    <g id="Unified-Headers" stroke="none" stroke-width="1" fill="none" fill-rule="evenodd">
        <g id="Assets" transform="translate(-790.000000, -200.000000)">
            <g id="brand/products/logos/green" transform="translate(790.000000, 200.000000)">
                <g id="green_logo_white_on_transparent_rgb">
                    <g id="Group" fill-rule="nonzero">
                        <path d="M12.4084025,71.3071905 L12.4084025,12.2688574 L80.8318794,12.2688574 L80.8318794,0 L0.147719078,0 L0.147719078,59.1861506 C0.147719078,71.0706824 8.50861888,80.7083872 19.4102868,89.5478773 C15.0968898,84.0490641 12.4084025,78.0476712 12.4084025,71.3071905 Z" id="Path" fill="#00B45A"></path>
                        <path d="M65.0259381,24.2420797 L24.344104,24.2420797 L24.344104,83.4282303 C24.344104,102.437568 45.7929141,115.711585 64.6714123,129.192547 C83.5794543,115.741149 104.998721,102.467132 104.998721,83.4282303 L104.998721,24.2420797 L65.0259381,24.2420797 Z M92.9743876,83.4282303 C92.9743876,94.0119675 78.970619,104.359197 64.7304999,114.351664 C50.5199246,104.329633 36.4866122,94.0119675 36.4866122,83.4282303 L36.4866122,36.333556 L92.9743876,36.333556 L92.9743876,83.4282303 Z" id="Shape" fill="#FFFFFF"></path>
                    </g>
                    <g id="Group" transform="translate(133.333333, 21.532091)" fill="#FFFFFF" fill-rule="nonzero">
                        <path d="M17.396107,16.5422339 C18.4926248,17.5084175 19.0557015,18.9430537 19.0557015,20.8754209 C19.0557015,23.5690236 18.0777261,25.4721124 16.1810467,26.6139657 C14.2547316,27.7558191 11.5875261,28.3121066 8.12015895,28.3121066 L0.237084933,28.3121066 L0.237084933,2.45937637 L7.08291237,2.45937637 C14.2843672,2.45937637 17.8999124,4.65524813 17.8999124,9.04699166 C17.9591837,10.4230713 17.4553782,11.7698726 16.5070385,12.7653345 C15.5883343,13.7315181 14.3732741,14.3756405 13.0693069,14.6098668 C14.6399946,14.8733714 16.1514111,15.5467721 17.396107,16.5422339 Z M5.21586853,13.116674 L8.26833704,13.116674 C9.4537617,13.1752306 10.6095508,12.8531694 11.5578905,12.209047 C12.3876877,11.5649246 12.832222,10.5401845 12.7729508,9.48616601 C12.8618576,8.46142585 12.3876877,7.4366857 11.4986192,6.88039818 C10.2539234,6.29483238 8.89068499,6.06060606 7.52744662,6.14844093 L5.18623291,6.14844093 L5.21586853,13.116674 L5.21586853,13.116674 Z M12.3580521,23.8032499 C13.3360275,23.2469624 13.8101973,22.2222222 13.8101973,20.6997511 C13.9287398,19.4700629 13.3952987,18.2696531 12.4173234,17.5376958 C11.2911699,16.8350168 9.9872028,16.4836774 8.65360005,16.5715122 L5.21586853,16.5715122 L5.21586853,24.6523203 L8.12015895,24.6523203 C9.57230417,24.7108769 11.0244494,24.4473723 12.3580521,23.8032499 L12.3580521,23.8032499 Z" id="Shape"></path>
                        <path d="M28.1834714,24.6815986 C28.3909207,24.9451032 28.7169125,25.0622164 29.0429043,25.0329381 C29.4281673,25.0329381 29.8134303,24.9743815 30.1690577,24.8572683 L31.2063043,28.2242717 C30.1097865,28.6634461 28.9539974,28.8976724 27.7685728,28.8976724 C26.4646056,28.9855072 25.2199097,28.5170546 24.3012056,27.6094276 C23.4121371,26.5554092 22.9972385,25.2086078 23.0861453,23.8618065 L23.0861453,0.644122383 L27.9463865,0.117113161 L27.9463865,23.5397453 C27.8871152,23.9203631 27.9760221,24.3302591 28.1834714,24.6815986 Z" id="Path"></path>
                        <path d="M49.1358524,10.7744108 C50.7954469,12.6189431 51.6252442,15.1661543 51.6252442,18.4160445 C51.6548798,20.2898551 51.2696168,22.1636656 50.4990907,23.8910848 C49.7878359,25.4135558 48.6616825,26.6725223 47.2391729,27.5801493 C45.7277564,28.4877763 43.9792551,28.9269507 42.2011181,28.8976724 C39.2375564,28.8976724 36.9259783,27.9900454 35.2663838,26.1162348 C33.6067893,24.2717025 32.7473564,21.695213 32.7473564,18.4160445 C32.7177208,16.5422339 33.1029838,14.6684234 33.8735098,12.9702825 C34.5847646,11.4478114 35.710918,10.188845 37.1334276,9.31049627 C38.6744797,8.40286927 40.4229811,7.96369492 42.2011181,7.99297321 C45.1646797,7.99297321 47.4762578,8.9006002 49.1358524,10.7744108 Z M37.8446824,18.4160445 C37.8446824,20.7583077 38.2003098,22.4857268 38.9115646,23.6275801 C39.6228194,24.7108769 40.8378797,25.3549993 42.1418468,25.2964427 C43.445814,25.3549993 44.6905099,24.7108769 45.372129,23.5983019 C46.0833838,22.4857268 46.4686469,20.7583077 46.4686469,18.4453228 C46.4686469,16.1323379 46.1130195,14.4049188 45.372129,13.2923437 C44.6905099,12.209047 43.4754496,11.5649246 42.1714825,11.6234812 C39.2968276,11.6234812 37.8446824,13.8779095 37.8446824,18.4160445 L37.8446824,18.4160445 L37.8446824,18.4160445 Z" id="Shape"></path>
                        <path d="M67.7470196,8.51998243 C68.8435374,8.9298785 69.8511484,9.5154443 70.7105813,10.2766798 L68.5175456,13.2045089 C67.9248333,12.7360562 67.2728497,12.3847167 66.5912306,12.0919338 C65.939247,11.8577075 65.2279922,11.7405943 64.5167374,11.7405943 C61.4939045,11.7405943 60.0121237,13.9950227 60.0121237,18.5038794 C60.0121237,20.787586 60.3973867,22.4564485 61.1975483,23.4519104 C61.99771,24.4473723 63.2424059,25.0036598 64.546373,24.9451032 C65.2279922,24.9451032 65.9096114,24.82799 66.5319593,24.5937637 C67.2432141,24.2717025 67.8951977,23.8910848 68.5175456,23.4226321 L70.7698525,26.5554092 C68.9620799,28.048602 66.6505018,28.8683941 64.3092881,28.8391158 C62.5607867,28.8683941 60.8419209,28.458498 59.3008689,27.5801493 C57.8783593,26.7310789 56.7522058,25.5013907 56.040951,24.0081979 C55.2407894,22.2807788 54.8555264,20.4362465 54.9147976,18.5331577 C54.885162,16.6300688 55.270425,14.7269799 56.040951,12.9995608 C56.7225702,11.4770897 57.8487236,10.188845 59.3008689,9.28121798 C60.7826497,8.37359098 62.5015155,7.90513834 64.2500168,7.96369492 C65.4354415,7.96369492 66.6208662,8.13936466 67.7470196,8.51998243 Z" id="Path"></path>
                        <path d="M74.2668553,28.3121066 L74.2668553,0.585565803 L79.1270964,0.0585565803 L79.1270964,28.3121066 L74.2668553,28.3121066 Z M91.7518691,28.3121066 L86.2100088,28.3121066 L79.3049101,17.5084175 L86.0025594,8.51998243 L91.0998855,8.51998243 L84.4318718,17.2449129 L91.7518691,28.3121066 Z" id="Shape"></path>
                        <path d="M107.90328,10.3059581 L106.006601,13.1752306 C104.584091,12.1212121 102.865225,11.5356463 101.087088,11.506368 C100.286927,11.4478114 99.4571294,11.6527595 98.7755102,12.0626555 C98.2717047,12.3554384 97.9457129,12.911726 97.9753486,13.4972918 C97.9753486,13.9071878 98.093891,14.2878056 98.3013403,14.6098668 C98.6273321,14.9904846 99.0718664,15.2832675 99.5460362,15.4589372 C100.405469,15.8102767 101.264902,16.1030596 102.183606,16.3372859 C103.961743,16.7179037 105.591702,17.4791392 107.014212,18.6209925 C108.081094,19.6457327 108.673806,21.1096472 108.584899,22.60284 C108.644171,24.4473723 107.725466,26.2040697 106.154779,27.1995315 C104.376642,28.3706632 102.272513,28.956229 100.138749,28.8683941 C98.5976965,28.8976724 97.0566444,28.6341678 95.6341348,28.1364368 C94.3598033,27.6679842 93.144743,26.9945835 92.1371321,26.0869565 L94.5968883,23.3640755 C96.1083047,24.623042 98.0049842,25.325721 99.9905705,25.3549993 C100.909275,25.3842776 101.798343,25.1793295 102.598505,24.7108769 C103.191217,24.3595374 103.57648,23.715415 103.57648,23.0127361 C103.606116,22.5150051 103.487573,22.0465525 103.220853,21.6073781 C102.894861,21.1974821 102.450327,20.8754209 101.946521,20.6997511 C100.998181,20.3191334 100.020206,19.9970722 99.0422308,19.7335676 C97.3530006,19.3822281 95.7823129,18.5917142 94.537617,17.4205826 C93.5596417,16.4251208 93.0558362,15.0783194 93.0854718,13.7022398 C93.0558362,12.6189431 93.4114636,11.5942029 94.0634472,10.7158542 C94.774702,9.8082272 95.6934061,9.07626995 96.7899239,8.66637388 C98.0642554,8.13936466 99.4274938,7.90513834 100.820368,7.93441663 C103.339395,7.87586005 105.888058,8.72493046 107.90328,10.3059581 Z" id="Path"></path>
                        <path d="M121.565299,28.4877763 C120.705867,28.7220026 119.816798,28.8683941 118.898094,28.8683941 C117.208864,28.9855072 115.578905,28.3706632 114.39348,27.1995315 C113.356234,26.1162348 112.882064,24.5059289 112.882064,22.397892 L112.882064,11.9748207 L109.740688,11.9748207 L109.740688,8.49070414 L112.882064,8.49070414 L112.882064,4.12823891 L117.742305,3.5719514 L117.742305,8.49070414 L122.395097,8.49070414 L121.920927,11.9455424 L117.742305,11.9455424 L117.742305,22.2807788 C117.683034,23.0127361 117.860847,23.7446933 118.24611,24.3595374 C118.661009,24.82799 119.253721,25.0622164 119.846434,25.0036598 C120.705867,24.9743815 121.506028,24.7108769 122.217283,24.2717025 L123.936149,27.3752013 C123.224894,27.8729322 122.424732,28.25355 121.565299,28.4877763 Z" id="Path"></path>
                        <path d="M138.576143,8.25647782 L137.746346,12.8824477 C137.153634,12.7360562 136.560921,12.6482213 135.968209,12.6482213 C134.901327,12.5896648 133.86408,13.0581174 133.182461,13.9071878 C132.352664,15.0490411 131.789587,16.3958425 131.552502,17.7719221 L131.552502,28.2828283 L126.692261,28.2828283 L126.692261,8.49070414 L130.900519,8.49070414 L131.345053,12.3847167 C131.730316,11.1257503 132.441571,9.98389694 133.419546,9.10554824 C134.278979,8.37359098 135.405132,7.96369492 136.560921,7.96369492 C137.242541,7.96369492 137.92416,8.05152979 138.576143,8.25647782 Z" id="Path"></path>
                        <path d="M157.542938,19.879959 L144.977437,19.879959 C145.15525,21.8123262 145.659056,23.1591275 146.488853,23.9789196 C147.407557,24.82799 148.622617,25.2671644 149.867313,25.2086078 C150.726746,25.2086078 151.556543,25.0622164 152.356705,24.7694335 C153.245774,24.418094 154.075571,23.9789196 154.846097,23.4519104 L156.861319,26.1747914 C154.786826,27.9022105 152.149256,28.8391158 149.452415,28.8391158 C146.399946,28.8391158 144.029097,27.9314888 142.399138,26.0869565 C140.739543,24.2424242 139.909746,21.7244913 139.909746,18.5331577 C139.88011,16.6593471 140.235738,14.8148148 140.976628,13.0873957 C141.598976,11.5649246 142.665858,10.2474016 144.029097,9.31049627 C145.421971,8.37359098 147.111201,7.90513834 148.800431,7.93441663 C151.615815,7.93441663 153.779215,8.81276533 155.320267,10.5694627 C156.861319,12.3261602 157.631845,14.7855365 157.631845,17.9183136 C157.66148,18.1818182 157.66148,18.8259406 157.542938,19.879959 Z M152.860511,16.5422339 C152.860511,13.0581174 151.556543,11.3306983 148.948609,11.3306983 C147.852091,11.2721417 146.814845,11.7698726 146.162861,12.6189431 C145.481242,13.4680135 145.095979,14.8440931 144.977437,16.747182 L152.860511,16.747182 L152.860511,16.5422339 L152.860511,16.5422339 Z" id="Shape"></path>
                        <path d="M177.280259,24.7401552 C177.546979,25.1500512 177.961878,25.4428341 178.436048,25.5892256 L177.398801,28.7805592 C176.420826,28.7220026 175.472486,28.458498 174.613053,27.9900454 C173.842527,27.4923144 173.27945,26.7603572 172.953459,25.9112868 C172.331111,26.8774704 171.442042,27.6387059 170.404796,28.1364368 C169.337913,28.6341678 168.152489,28.8976724 166.967064,28.8683941 C165.218563,28.956229 163.529333,28.3413849 162.225365,27.1702533 C161.039941,25.9991217 160.417593,24.418094 160.476864,22.7492314 C160.358322,20.8168643 161.24739,18.972332 162.847713,17.8304787 C164.418401,16.6886254 166.670708,16.1323379 169.63427,16.1323379 L172.123661,16.1323379 L172.123661,15.0197628 C172.242204,14.0535793 171.916212,13.0581174 171.234593,12.3554384 C170.404796,11.7698726 169.397185,11.506368 168.359938,11.6234812 C166.552165,11.6820378 164.744393,12.0333773 163.055163,12.6774996 L161.929009,9.42760943 C164.240587,8.51998243 166.700344,8.0222515 169.189735,7.99297321 C174.316697,7.99297321 176.86536,10.2474016 176.894996,14.7855365 L176.894996,23.1005709 C176.86536,23.6568584 177.013538,24.2424242 177.280259,24.7401552 Z M172.123661,22.9249012 L172.123661,18.8844971 L170.108439,18.8844971 C166.9967,18.8844971 165.426012,20.0263505 165.426012,22.3393354 C165.366741,23.1591275 165.633461,23.9496413 166.137267,24.5644854 C166.700344,25.1207729 167.47087,25.4135558 168.271031,25.3549993 C169.930626,25.3842776 171.442042,24.418094 172.123661,22.9249012 L172.123661,22.9249012 Z" id="Shape"></path>
                        <path d="M207.893851,9.54472259 C208.901462,10.7744108 209.434903,12.3554384 209.345996,13.9364661 L209.345996,28.25355 L204.485755,28.25355 L204.485755,14.6684234 C204.485755,12.5603865 203.744864,11.4770897 202.292719,11.506368 C201.551829,11.506368 200.840574,11.7698726 200.277497,12.2383253 C199.566242,12.8824477 198.97353,13.6436832 198.528996,14.4634753 L198.528996,28.25355 L193.668755,28.25355 L193.668755,14.6684234 C193.668755,12.5603865 192.927864,11.4770897 191.475719,11.506368 C190.705193,11.506368 189.993938,11.7698726 189.401226,12.2383253 C188.689971,12.8824477 188.126894,13.6436832 187.652724,14.4634753 L187.652724,28.25355 L182.792483,28.25355 L182.792483,8.49070414 L187.000741,8.49070414 L187.386004,11.0671937 C188.660335,9.10554824 190.823735,7.93441663 193.194585,7.93441663 C194.261467,7.90513834 195.328349,8.19792124 196.217418,8.78348704 C197.106486,9.39833114 197.75847,10.2474016 198.084462,11.2428634 C198.766081,10.2474016 199.655149,9.39833114 200.692396,8.75420875 C201.729642,8.16864295 202.885431,7.87586005 204.070856,7.90513834 C205.493366,7.87586005 206.915875,8.46142585 207.893851,9.54472259 Z" id="Path"></path>
                    </g>
                    <g id="Group" transform="translate(132.505176, 70.393375)" fill="#00B45A" fill-rule="nonzero">
                        <g transform="translate(119.380304, 0.000000)" id="Path">
                            <polygon points="30.2153622 30.3204969 30.1264935 30.3204969"></polygon>
                            <polygon points="33.6516191 9.30186335 33.7108649 9.30186335 33.7108649 9.30186335"></polygon>
                            <polygon points="33.6219962 43.021118 10.1014103 43.021118 9.92367287 43.021118 9.92367287 42.842236 9.92367287 30.3204969 9.92367287 30.1416149 10.1014103 30.1416149 30.1264935 30.1416149 30.1264935 21.5552795 10.1014103 21.5552795 9.92367287 21.5552795 9.92367287 21.3763975 9.92367287 9.30186335 9.92367287 9.12298137 10.1014103 9.12298137 33.6219962 9.12298137 33.6219962 0.506832298 0.296229041 0.506832298 0.296229041 51.6074534 33.6219962 51.6074534"></polygon>
                            <polygon points="0.296229041 0.327950311 0.207360329 0.327950311 0.207360329 0.327950311"></polygon>
                        </g>
                        <g transform="translate(175.071363, 0.000000)" id="Path">
                            <polygon points="30.2449851 30.3204969 30.1561164 30.3204969"></polygon>
                            <polygon points="33.7108649 9.30186335 33.7701107 9.30186335 33.7701107 9.30186335"></polygon>
                            <polygon points="33.681242 43.021118 10.1310332 43.021118 9.95329578 43.021118 9.95329578 42.842236 9.95329578 30.3204969 9.95329578 30.1416149 10.1310332 30.1416149 30.1561164 30.1416149 30.1561164 21.5552795 10.1310332 21.5552795 9.95329578 21.5552795 9.95329578 21.3763975 9.95329578 9.30186335 9.95329578 9.12298137 10.1310332 9.12298137 33.681242 9.12298137 33.681242 0.506832298 0.325851945 0.506832298 0.325851945 51.6074534 33.681242 51.6074534"></polygon>
                            <polygon points="0.325851945 0.327950311 0.236983233 0.327950311 0.236983233 0.327950311"></polygon>
                        </g>
                        <g transform="translate(228.392591, 0.000000)" id="Path">
                            <polygon points="38.8060044 51.3987578 38.8060044 0.506832298 29.1785605 0.506832298 29.1785605 27.6372671 29.1785605 28.0546584 28.8823315 27.7863354 0.0296229041 0.745341615 0.0296229041 51.6074534 9.65706674 51.6074534 9.65706674 24.4173913 9.65706674 24 9.95329578 24.268323"></polygon>
                            <polygon points="29.1193147 0.327950311 29.0896918 0.327950311 29.0896918 0.327950311"></polygon>
                            <polygon points="9.68668964 51.7863354 9.74593545 51.7863354 9.74593545 51.7863354"></polygon>
                        </g>
                        <path d="M16.973924,51.4583851 C17.596005,51.6074534 18.2477089,51.7267081 18.9290357,51.8161491 L19.0771502,51.8459627 C20.1139519,51.9950311 21.002639,52.0546584 21.8617032,52.0546584 C22.6022758,52.0546584 23.3724713,52.0248447 24.1722897,51.9354037 C24.2019126,51.9354037 24.2315356,51.9354037 24.2611585,51.9354037 C24.2907814,51.9354037 24.3204043,51.9354037 24.3204043,51.9354037 C24.3796501,51.9354037 24.409273,51.9354037 24.4388959,51.9055901 C24.4981417,51.9055901 24.5573875,51.8757764 24.6166333,51.8757764 C29.8895102,51.4285714 34.3329459,49.4310559 37.7692027,45.9428571 C41.2350825,42.4248447 42.5977361,38.0720497 42.5977361,30.3801242 L42.5977361,23.0459627 L23.6390775,23.0459627 L23.6390775,31.0658385 L32.8814236,31.0658385 L33.059161,31.0658385 L33.059161,31.2447205 L33.059161,33.1826087 C33.059161,36.2236025 32.2593426,38.578882 30.7189516,40.1888199 C28.734217,42.2459627 26.3940076,42.8124224 24.5573875,43.110559 C23.8168149,43.2298137 23.1058652,43.289441 22.3949155,43.289441 C16.0852369,43.289441 9.74593545,37.952795 9.74593545,26.0273292 C9.74593545,17.4111801 13.5376672,8.6757764 22.0394406,8.6757764 C22.6318987,8.6757764 23.2539797,8.73540373 23.9056836,8.79503106 C27.3715634,9.36149068 31.4002783,11.6869565 32.733309,15.5627329 L40.8203618,10.7925466 C39.8724289,8.91428571 35.4289933,1.31180124 24.4388959,0.178881988 L24.2907814,0.149068323 L24.2907814,0.149068323 L24.2611585,0.149068323 C23.4020942,0.0596273292 22.6318987,0.0298136646 21.8913261,0.0298136646 C20.2620664,0.0298136646 18.6031838,0.238509317 17.003547,0.626086957 L16.7665637,0.685714286 L16.6480721,0.71552795 C16.3222202,0.804968944 16.0259911,0.894409938 15.7297621,0.983850932 C5.86533501,3.81614907 -0.14811452,13.4459627 0.0888687123,26.1167702 C0.0888687123,38.936646 6.22080986,48.5664596 16.1148598,51.2496894 L16.1148598,51.3391304 C16.1148598,51.3391304 16.1444827,51.3391304 16.1444827,51.3391304 C16.1444827,51.3391304 16.1444827,51.3391304 16.1444827,51.3391304 L16.1741056,51.2496894 C16.4110889,51.3391304 16.7073179,51.3987578 16.973924,51.4583851 Z" id="Path"></path>
                        <path d="M88.0688939,51.6074534 L98.9404997,51.6074534 L86.1137822,30.2012422 L86.4692571,30.1118012 C87.5949274,29.8732919 88.5724833,29.6049689 89.4907933,29.336646 C95.2376367,27.2496894 98.6738936,22.2708075 98.6738936,16.0397516 C98.6738936,6.88695652 91.9494943,0.506832298 82.2924276,0.506832298 L62.4450818,0.506832298 L62.4450818,51.6074534 L71.9244112,51.6074534 L71.9244112,31.0062112 L76.0419948,31.0062112 L88.0688939,51.6074534 Z M71.983657,8.97391304 L81.6999695,8.97391304 C86.1434051,8.97391304 89.2538101,11.8956522 89.2538101,16.0695652 C89.2538101,20.2434783 86.1434051,23.1652174 81.6999695,23.1652174 L71.983657,23.1652174 L71.983657,8.97391304 Z" id="Shape"></path>
                    </g>
                </g>
            </g>
        </g>
    </g>
</svg>