<?xml version="1.0" encoding="utf-8"?>
<!-- Generator: Adobe Illustrator 24.2.0, SVG Export Plug-In . SVG Version: 6.00 Build 0)  -->
<svg version="1.1" id="Warstwa_1" xmlns="http://www.w3.org/2000/svg" xmlns:xlink="http://www.w3.org/1999/xlink" x="0px" y="0px"
	 viewBox="0 0 800 172.2" style="enable-background:new 0 0 800 172.2;" xml:space="preserve">
<style type="text/css">
	.st0{fill:#FFFFFF;}
</style>
<g>
	<g>
		<path class="st0" d="M165.5,85c-0.3,44.8-35.8,80.8-81,80.9C37.3,166,3.1,127.6,3.1,85.1S37.1,4.4,84,4.2
			C129.1,4,165.2,39.8,165.5,85z M116,112.4L88.3,48.3h-6.7l-27.7,64h7.3c0,0,7.7-18.6,11.6-27.9s7.6-18.8,12-28.5
			c8.1,19.4,23.6,56.6,23.6,56.6L116,112.4L116,112.4z"/>
		<path class="st0" d="M388.8,4.9c0,0,22.7-0.6,33.9,0.9c2.9,0.4,5.8,1.2,8.5,2.4c9,3.9,12.4,11.6,11.9,21.5
			c-0.4,7.8-4.3,13.3-11.3,16.7c-0.5,0.2-0.9,0.5-1.4,0.8c-0.1,0.1-0.2,0.2-0.3,0.4c3,4.6,6.3,9.1,9.1,13.8
			c2.9,4.8,5.4,9.7,8.5,15.3c-6.5,0.1-12.3,0-18.1,0.1c-5.1-9-10-17.9-16.5-26c-2.6,0-8.2,0-8.2,0v25.9l-16.1,0.1V4.9z M404.9,37.4
			c5.2,0.5,10.5,0.6,15.6-1.1c4.1-1.4,5.9-4,6-8.4c0.1-4.5-1.6-7.1-5.7-8.6c-5.1-1.9-10.4-1.8-15.8-1.2
			C404.9,24.6,404.9,30.8,404.9,37.4z"/>
		<path class="st0" d="M591.6,5.1h15.9c0,0,0,17.9,0,27.1c9.2,0,18,0,27.2,0c0.4-4.4,0.2-27,0.2-27h15.5l0.4,71.6H635l-0.2-30.3h-27
			l-0.3,30.2l-15.9,0.1V5.1z"/>
		<path class="st0" d="M472.3,5.1c0,0,0,30.4,0,43.6c0,3,0.4,5.8,1.6,8.6c1.8,4.2,5,6.5,9.5,6.8c2.1,0.1,4.3,0.1,6.4-0.4
			c5.3-1.4,8.4-5.5,8.9-11.5c0.2-2.1,0.2-4.3,0.2-6.4c0-12.2,0-40.7,0-40.7H515c0,0,0.1,31.1-0.1,45c0,3.6-0.7,7.2-1.6,10.6
			c-2.2,7.8-7.4,13-15,15.5c-7.9,2.6-16.1,2.8-24.1,0.5c-9.2-2.6-14.8-8.8-17-18c-0.6-2.7-1-5.5-1-8.3c-0.1-14.3,0-45.3,0-45.3
			S472.3,5.1,472.3,5.1z"/>
		<path class="st0" d="M306.4,32.6c0,4.7,0,8.8,0,13.1c-9.5,0-18.8,0-28.6,0c-0.2,5.8-0.1,17.4-0.1,17.4l34,0.2l0.1,13.3h-50.1V5.1
			h48.2l0.1,13.1c0,0-28.4,0.2-32.1,0.2c0,4.8,0,9.3,0,14.1C287.3,32.6,296.7,32.6,306.4,32.6z"/>
		<polygon class="st0" points="716.1,4.9 716.1,18.4 684.2,18.4 684.2,32.6 712.6,32.9 712.6,45.7 684.1,45.7 684.1,63.2 
			718.4,63.2 718.4,76.2 668.3,76.5 668,5 		"/>
		<path class="st0" d="M210.7,52.9v23.7h-15.4l-0.5-72.1c0,0,1.4-0.4,2.2-0.4c6.8,0,13.7-0.2,20.5,0.1c4.5,0.2,9,0.9,13.5,1.6
			c1.8,0.3,3.6,1,5.3,1.7c8,3.2,12.2,9.2,13.1,17.6c0.4,3.7,0.2,7.5-0.9,11.1c-1.6,5.4-4.8,9.4-9.9,12c-5,2.5-10.3,3.8-15.8,4.1
			C219,52.5,210.7,52.9,210.7,52.9z M210.7,18.1c0,3.8,0,7.1,0,10.4c0,3.4,0,6.8,0,10.4c5.6,0.4,10.6,0.1,15.5-1.3
			c2.1-0.6,3.9-1.7,5.2-3.6c3.8-5.9,0.8-13.6-5.9-15.4C220.8,17.4,216,17.6,210.7,18.1z"/>
		<polygon class="st0" points="768.8,76.6 753.9,76.6 725.1,5.2 742.5,5.2 761.2,57.2 780.7,5.1 797.1,5.1 		"/>
		<path class="st0" d="M526.5,72.4c1.2-3.4,2.4-6.9,3.7-10.3c0.2-0.6,0.5-1.2,0.9-1.9c1,0.4,1.9,0.8,2.7,1.2
			c6.5,2.8,13.4,3.5,20.4,2.8c1.2-0.1,2.4-0.4,3.5-0.8c5.1-2,6.2-8.1,1.9-11.6c-1.8-1.5-4.1-2.5-6.3-3.5c-3.6-1.5-7.3-2.7-10.8-4.2
			c-2.4-1.1-4.8-2.3-7-3.8c-11.5-7.8-10-26.1,1.6-32.8c4.6-2.7,9.7-3.8,14.9-4.1c8-0.4,15.7,1.1,23.2,4.9c-1.5,4.1-3,8.2-4.5,12.2
			c-3.6-1.1-6.9-2.3-10.2-3c-3.8-0.8-7.7-0.8-11.5,0.2c-2.6,0.7-4.3,2.1-4.9,4.8c-0.6,2.8,0.6,5,3,6.5c1.9,1.2,4,2.2,6.1,3
			c4.1,1.7,8.2,3.2,12.3,5c2.3,1,4.4,2.5,6.5,3.9c2.6,1.8,4.3,4.4,5.4,7.3c1.7,4.6,1.8,9.5,0.8,14.2c-1.6,7.4-6.5,11.9-13.6,13.8
			c-12.3,3.3-24.4,2.6-36.1-2.4c-0.4-0.2-0.7-0.4-1-0.6C527.1,73,526.9,72.8,526.5,72.4z"/>
		<path class="st0" d="M356.5,76.6c-5.6,0-16.1,0-16.1,0s-0.1-52.8-0.1-57.9c-7.3,0-21.7,0-21.7,0V5.5L378,5.2v13.4h-21.4
			C356.5,18.6,356.5,57.1,356.5,76.6z"/>
		<path class="st0" d="M241.3,113.6c-1.9,1.4-3.4,2.5-4.9,3.6c-0.4-0.2-0.9-0.3-1.1-0.6c-6.5-7.8-18.7-9.6-28.4-5.1
			c-8.9,4.1-13.7,11.5-15.1,20.8c-1.5,10.8,1.2,20.6,10.2,27.5c8.6,6.6,18.2,7.2,28,2.5c2.8-1.3,5-3.9,7.9-6.2
			c1.2,0.7,2.7,1.7,4.3,2.7c-3.7,5.8-8.9,9.2-15.1,10.8c-18.4,4.8-38-4.8-41.7-25.2c-2.6-14,1-26.3,13.1-35
			c10.9-7.9,27-8.1,37.8-0.6c0.9,0.6,1.7,1.3,2.5,2C239.7,111.7,240.3,112.5,241.3,113.6z"/>
		<path class="st0" d="M401,105c8.4,0.3,16.6-0.6,24.7,0.7c1.2,0.2,2.4,0.5,3.5,0.8c7.7,2.5,11.5,7.5,11.6,15.4
			c0.1,8-3.7,13.3-11.2,15.7c-3.5,1.1-7.3,1.5-11,1.8c-3.6,0.3-7.2,0.1-11,0.1c-0.2,4.4-0.4,29.6-0.4,29.6H401
			C401,169.1,401,126.7,401,105z M407.4,133.7c5.6,0,10.9,0.3,16.2-0.1c4.1-0.4,7.7-2.1,9.7-6.2c3.2-6.7,0-13.8-7.1-15.8
			c-6.1-1.7-12.4-0.6-18.8-1C407.4,118.5,407.4,125.9,407.4,133.7z"/>
		<path class="st0" d="M349,169.1h-7.1l-23.7-56.7c0,0-8.1,19.1-12,28.5c-3.9,9.3-11.8,28.2-11.8,28.2h-7l27.7-63.8h6.4L349,169.1z"
			/>
		<polygon class="st0" points="670.4,105.1 676.7,105.1 704.3,169.1 697.2,169.1 673.4,112.2 649.7,169.1 642.7,169.1 		"/>
		<path class="st0" d="M603.6,105.3v5.3l-21.3,0.2c0,0,0,54.1,0,58.3c-2.2,0-4.1,0-6.3,0c0-19.3,0-58.1,0-58.1l-21.5-0.2v-5.5
			C554.5,105.3,603.6,105.3,603.6,105.3z"/>
		<polygon class="st0" points="762.7,105.2 762.7,163.5 792.4,163.6 792.4,168.9 756.4,168.9 756.4,105.2 		"/>
		<polygon class="st0" points="496.3,105.2 502,105.2 502,169.1 496.3,169.1 		"/>
	</g>
</g>
</svg>
