<svg id="Layer_1" data-name="Layer 1" xmlns="http://www.w3.org/2000/svg" viewBox="0 0 552.58 174.01"><defs><style>.cls-1{fill:#fff;}</style></defs><title>btse_white</title><path class="cls-1" d="M7.26,7.67c27.2,0,54.3-.3,81.5.4a81.76,81.76,0,0,1,25.8,4.8c13.9,5.1,22.2,15.7,23.4,30.8,1.3,16-4.6,28.6-18.9,36.8l-3,1.8a7.47,7.47,0,0,0-.7,1.2l6.6,3c14.7,6.5,22.6,17.7,23,33.9.4,16.6-6.1,29.4-21,37.5a65,65,0,0,1-30.7,7.7c-28.7.3-57.3.2-86,.3Zm41.9,93.2v29.8c13.6,0,26.8.4,40.1-.2,5.9-.3,11.2-3.5,13.2-9.8,3.1-9.7-3-18.2-14.4-19.1-10.1-.7-20.3-.5-30.4-.7C54.86,100.77,52.16,100.87,49.16,100.87Zm.1-58.2v27.5c12,0,23.6.8,35.1-.2,8.7-.7,12.4-6,12.3-13.6-.1-7.3-4.3-12.8-12.7-13.4C72.56,42.07,61.06,42.67,49.26,42.67Z"/><path class="cls-1" d="M274.46,8.07c-4.6,11.5-8.8,22.2-13.3,32.7-.6,1.3-2.9,2.5-4.5,2.5-7.8.3-15.7.3-23.5,0-4.2-.2-5.3,1.3-5.3,5.4.1,36.7.1,73.3.1,110v6.4h-42.6v-114c0-8.8.3-7.6-7.9-7.7-6.8,0-13.7.1-20.5-.1-1.6-.1-4-1.2-4.5-2.5-4.4-10.2-8.5-20.6-12.6-31-.2-.4,0-1,.1-1.7Z"/><path class="cls-1" d="M546.06,8.17c-4.9,11.7-9.4,22.8-14.3,33.7-.6,1.3-3.4,2.3-5.2,2.4-19.5.2-39,.1-58.5.1-6.9,0-6.9,0-6.9,7.2,0,4,.2,8-.1,12-.3,4.3,1,5.8,5.6,5.7,14.5-.3,29,0,43.5-.2,4-.1,5.2,1.1,5.1,5.1-.3,7.8-.3,15.7,0,23.5.1,4.1-1.2,5.5-5.4,5.5-13.5-.2-27-.1-40.5-.1-9.8,0-8.1-.1-8.2,8.5-.1,4,.2,8-.1,12-.3,4.3,1.1,5.8,5.6,5.7,19.8-.2,39.7,0,59.5-.2,3.5,0,5.4.9,6.7,4.3,4.1,10.5,8.5,20.9,13.1,31.9-2,.2-3.4.4-4.8.4-39.2,0-78.3,0-117.5.1-4,0-5.4-1-5.4-5.3q.15-73.8.1-147.5c0-1.5.2-2.9.3-4.7C461.06,8.17,503.16,8.17,546.06,8.17Z"/><path class="cls-1" d="M265.29,142.12,287,116.71c15.13,5.46,28.88,11.33,43.17,15.17,6.75,1.82,14.75.64,21.78-1,3.24-.74,7.41-5.63,7.68-8.91s-3-8.66-6.14-10.09c-7.64-3.5-16.09-5.24-24.19-7.73-9.94-3.07-20.1-5.58-29.73-9.41C284.2,88.67,274,77.83,272.67,60.55c-1.46-19.1,5.29-34.62,21.86-44.77C315,3.22,337.45,4.09,360,8.23a87.18,87.18,0,0,1,39.25,17.85L378.57,54.85C369.87,51,361.91,46.59,353.39,44A86.13,86.13,0,0,0,330,40.76c-6.4-.08-12.94,2.11-13.79,10.15-.82,7.7,5,10.63,10.9,12.4,10.49,3.14,21.24,5.41,31.77,8.44a136.19,136.19,0,0,1,19.34,6.85c16.3,7.48,26,19.51,25.77,38.41-.23,20.17-9.21,34.68-27.22,43.34C344.84,175.7,293.13,167.39,265.29,142.12Z"/></svg>