<svg viewBox="0 0 300 23.5142" width="5000px" height="391.90333684285486px" xmlns="http://www.w3.org/2000/svg" xmlns:xlink="http://www.w3.org/1999/xlink" preserveAspectRatio="none"><defs></defs><style>.companyNamejbTWy4mCn {fill:#ffffff;fill-opacity:1;}</style><g opacity="1" transform="rotate(0 0 0)">
        <svg width="300" height="23.5142" x="0" y="0" version="1.1" preserveAspectRatio="none" viewBox="3.44 -25.72 258.64 26.08">
          <g transform="matrix(1 0 0 1 0 0)" class="companyNamejbTWy4mCn"><path transform="" stroke="none" d="M15.44-13.36Q18.12-12.80 19.42-11.26Q20.72-9.72 20.72-7.20L20.72-7.20Q20.72 0.16 9.72 0.16L9.72 0.16Q5.92 0.16 3.48 0L3.48 0L3.44 0L3.72-7.72L3.44-25.68L11.44-25.72Q15.16-25.72 17.22-24.10Q19.28-22.48 19.28-19.40L19.28-19.40Q19.28-17.24 18.28-15.70Q17.28-14.16 15.44-13.36L15.44-13.36ZM15.04-18.92Q15.04-20.84 13.96-21.68Q12.88-22.52 10.32-22.52L10.32-22.52L7.60-22.52L7.48-14.64L11.60-14.52Q13.36-14.96 14.20-16.02Q15.04-17.08 15.04-18.92L15.04-18.92ZM10.40-3.04Q13.36-3.04 14.96-4.16Q16.56-5.28 16.56-7.44L16.56-7.44Q16.56-10.88 12.12-11.48L12.12-11.48L7.44-11.44L7.40-8.08L7.52-3.16Q9.08-3.04 10.40-3.04L10.40-3.04Z"></path>
    <path transform="" stroke="none" d="M29.36-20.04L29.16-6.36L29.32 0L25.48 0L25.64-6L25.48-20.04L29.36-20.04Z"></path>
    <path transform="" stroke="none" d="M48.72-20.04L48.92-19.72L48.68-16.64L44.80-16.92L43.12-16.92L43.04-6.36L43.16 0L39.32 0L39.48-6L39.40-16.92L37.76-16.92L33.80-16.64L33.52-16.96L33.80-20.04L48.72-20.04Z"></path>
    <path transform="" stroke="none" d="M60.12-20.28Q63.40-20.28 65.84-19L65.84-19L65.12-15.60L64.76-15.48Q63.76-16.24 62.46-16.68Q61.16-17.12 59.76-17.12L59.76-17.12Q54.24-17.12 54.24-10.24L54.24-10.24Q54.24-6.64 55.68-4.78Q57.12-2.92 59.88-2.92L59.88-2.92Q61.24-2.92 62.64-3.36Q64.04-3.80 65.12-4.56L65.12-4.56L65.52-4.36L65.20-0.96Q62.52 0.28 59.68 0.28L59.68 0.28Q55.08 0.28 52.64-2.36Q50.20-5 50.20-9.88L50.20-9.88Q50.20-14.88 52.78-17.58Q55.36-20.28 60.12-20.28L60.12-20.28Z"></path>
    <path transform="" stroke="none" d="M78.44-20.32Q82.84-20.32 85.26-17.74Q87.68-15.16 87.68-10.48L87.68-10.48Q87.68-5.28 85.10-2.48Q82.52 0.32 77.76 0.32L77.76 0.32Q73.32 0.32 70.92-2.32Q68.52-4.96 68.52-9.80L68.52-9.80Q68.52-14.84 71.10-17.58Q73.68-20.32 78.44-20.32L78.44-20.32ZM78.08-17.16Q75.20-17.16 73.86-15.54Q72.52-13.92 72.52-10.28L72.52-10.28Q72.52-6.24 73.84-4.52Q75.16-2.80 78.04-2.80L78.04-2.80Q80.96-2.80 82.32-4.42Q83.68-6.04 83.68-9.72L83.68-9.72Q83.68-13.72 82.36-15.44Q81.04-17.16 78.08-17.16L78.08-17.16Z"></path>
    <path transform="" stroke="none" d="M96.36-20.04L96.16-6.36L96.32 0L92.48 0L92.64-6L92.48-20.04L96.36-20.04Z"></path>
    <path transform="" stroke="none" d="M120.52-20.12L120.32-6.12L120.44 0L116.28 0L106.80-14.08L106.56-14.08L106.52-6.80L106.64 0L103.16 0L103.32-5.88L103.20-20.04L107.28-20.04L116.76-5.96L117.08-5.96L116.96-19.92L120.52-20.12Z"></path>
    <path transform="" stroke="none" d=""></path>
    <path transform="" stroke="none" d="M145.44-10.28Q148.16-5.92 151.88-0.96L151.88-0.96L151.84-0.48Q149.92 0.16 147.88 0.36L147.88 0.36L147.40 0.04Q144.08-5.40 142.04-9.16L142.04-9.16L137.68-9.16L137.68-8.08L137.88 0L133.68 0L133.96-7.72L133.68-25.68L142.40-25.72Q146.28-25.72 148.40-23.78Q150.52-21.84 150.52-18.24L150.52-18.24Q150.52-15.68 149.18-13.62Q147.84-11.56 145.44-10.28L145.44-10.28ZM137.88-22.36L137.76-12.52L142.16-12.40Q146.20-13.64 146.20-17.92L146.20-17.92Q146.20-20.16 144.98-21.28Q143.76-22.40 141.28-22.48L141.28-22.48L137.88-22.36Z"></path>
    <path transform="" stroke="none" d="M163.84-3.04L169.24-3.20L169.52-2.92L169.20 0L156.36 0L156.52-6L156.36-20.04L169.32-20.04L169.56-19.72L169.28-16.80L164.20-17L160.20-16.96L160.12-11.76L163.96-11.72L167.44-11.84L167.64-11.52L167.40-8.56L163.64-8.68L160.08-8.64L160.04-6.36L160.12-3.08L163.84-3.04Z"></path>
    <path transform="" stroke="none" d="M180.56-20.28Q183.12-20.28 185.68-19.28L185.68-19.28L185.08-15.64L184.48-15.52Q182.16-17.36 180.08-17.36L180.08-17.36Q178.60-17.36 177.74-16.60Q176.88-15.84 176.88-14.84L176.88-14.84Q176.88-13.84 177.78-13.18Q178.68-12.52 180.60-11.72L180.60-11.72Q182.40-10.96 183.50-10.30Q184.60-9.64 185.40-8.56Q186.20-7.48 186.20-5.88L186.20-5.88Q186.20-4.24 185.34-2.84Q184.48-1.44 182.78-0.58Q181.08 0.28 178.68 0.28L178.68 0.28Q177.24 0.28 175.64-0.04Q174.04-0.36 172.56-1L172.56-1L173.08-4.88L173.52-5.12Q174.68-3.96 176.26-3.30Q177.84-2.64 179.16-2.64L179.16-2.64Q180.60-2.64 181.50-3.38Q182.40-4.12 182.40-5.20L182.40-5.20Q182.40-6.28 181.48-6.94Q180.56-7.60 178.64-8.40L178.64-8.40Q176.92-9.16 175.80-9.82Q174.68-10.48 173.90-11.58Q173.12-12.68 173.12-14.28L173.12-14.28Q173.12-15.96 174.02-17.32Q174.92-18.68 176.62-19.48Q178.32-20.28 180.56-20.28L180.56-20.28Z"></path>
    <path transform="" stroke="none" d="M198.92-3.04L204.32-3.20L204.60-2.92L204.28 0L191.44 0L191.60-6L191.44-20.04L204.40-20.04L204.64-19.72L204.36-16.80L199.28-17L195.28-16.96L195.20-11.76L199.04-11.72L202.52-11.84L202.72-11.52L202.48-8.56L198.72-8.68L195.16-8.64L195.12-6.36L195.20-3.08L198.92-3.04Z"></path>
    <path transform="" stroke="none" d="M219.56-8Q221.88-4.52 224.80-0.92L224.80-0.92L224.76-0.44Q222.68 0.16 221.12 0.28L221.12 0.28L220.52-0.08Q217.60-4.80 216.40-6.96L216.40-6.96L212.88-6.92L212.88-6.36L213.04 0L209.20 0L209.36-6L209.20-20.04L216.80-20.08Q220.04-20.08 221.82-18.54Q223.60-17 223.60-14.20L223.60-14.20Q223.60-12.24 222.54-10.64Q221.48-9.04 219.56-8L219.56-8ZM213.04-17.04L212.92-10L216.40-9.88Q219.56-10.80 219.56-13.84L219.56-13.84Q219.56-15.48 218.60-16.26Q217.64-17.04 215.68-17.12L215.68-17.12L213.04-17.04Z"></path>
    <path transform="" stroke="none" d="M244.92-20.04L237.56 0L232.96 0L226.20-20.04L230.12-20.04L230.68-17.52L235.24-3.64L235.44-3.64L240.56-17.32L241.12-20.04L244.92-20.04Z"></path>
    <path transform="" stroke="none" d="M256.36-3.04L261.76-3.20L262.04-2.92L261.72 0L248.88 0L249.04-6L248.88-20.04L261.84-20.04L262.08-19.72L261.80-16.80L256.72-17L252.72-16.96L252.64-11.76L256.48-11.72L259.96-11.84L260.16-11.52L259.92-8.56L256.16-8.68L252.60-8.64L252.56-6.36L252.64-3.08L256.36-3.04Z"></path>
    </g>
        </svg>
      </g></svg>