<svg enable-background="new 0 0 1135.9 445.4" viewBox="0 0 1135.9 445.4" xmlns="http://www.w3.org/2000/svg"><g fill="#fff"><path d="m398.6 278.8c-.4-1.9-1.2-3.7-2-5.4-1.7-3.4-2.8-7.1-4.8-10.4-.5-1.5-.9-3-1.5-4.5-27.9-63.5-55.8-127-83.6-190.5-4-9.1-12.2-12.2-21.3-8.3-69 30.2-138 60.5-207.1 90.7-4.9 2.2-8.3 5.5-9.6 10.8 0 .2-.3.4-.4.5v5.3c1.5 4.7 3.7 9.1 5.6 13.6 8.3 19.1 16.7 38.1 25.1 57.2 3.8 8.6 7.6 17.2 11.4 25.7.2.6.4 1.2.6 1.8 16.6 37.8 33.1 75.6 49.7 113.4 4 9.1 12.1 12.3 21.3 8.2 46.3-20.3 92.6-40.5 138.9-60.8 22.8-10 45.7-19.9 68.4-30.1 7.5-3.2 10.9-9.5 9.3-17.2zm-243.9-15h.6c-.2.1-.4.1-.6 0zm158.6 35.7c-1.3 5.6-6.9 9.6-13.1 9.6-13.6 0-27.2 0-40.8 0-9.9 0-19.8.1-29.7 0-31-.5-53.8-14.5-68.4-41.7-.3-.5-.6-1-.8-1.4-.6-.1-1.2-.2-.5-1-.1-.8-.4-1.5-.9-2-.6.4-1.2.6-1.8.8.6-.2 1.3-.4 1.8-.8-1.8-5.4-3.7-10.7-4.5-16.3-.7-4.3-1.1-8.6-1.1-12.9-.1-11.6-.5-23.2-.1-34.8.5-12.6 4.4-24.4 11.3-35 14.9-23.1 36.2-35.3 63.8-35.7 23.7-.3 47.5-.1 71.3-.1 8.6 0 14.3 5.7 14.3 14.3v10.6c-.1 8.2-5.9 14-14.1 14.1-21.7 0-43.4-.3-65 .1-18.7.3-32.1 9.5-40.1 26.3-2.5 5.2-3.7 10.7-3.7 16.5.1 7.8-.8 15.7.6 23.5 2.3 13.1 9.1 23.3 20.5 30.3 4.9 3.4 10.4 5.1 16.2 6.1 5.4.9 10.8.4 16.2.5 18.5.1 36.9 0 55.4.1 6 0 10.4 2.9 12.9 8.5.4 1 .7 2.1.8 3.2.3 5.5.8 11.4-.5 17.2z"/><path d="m745.8 254.7c0-.9 0-1.9 0-2.8 0-35.1 0-70.2-.1-105.3 0-2.3.6-2.9 2.9-2.9 6.2.2 12.5.2 18.7 0 2.6-.1 3 .8 3 3.1-.1 43.4 0 86.9 0 130.3 0 4.8-.1 9.6 0 14.4.1 2.1-.4 2.9-2.7 2.8-7.1-.2-14.2-.1-21.4 0-1.7 0-2.7-.5-3.6-2-22.4-36-44.9-72-67.4-108-.4-.7-.9-1.3-1.7-2v2.4c0 35.5 0 71 .1 106.5 0 2.5-.6 3.1-3 3-6.5-.2-13-.1-19.4 0-1.7 0-2.1-.5-2.1-2.2 0-48.7 0-97.4 0-146.1 0-1.8.4-2.3 2.2-2.3 7.3.1 14.6.1 21.8 0 1.8 0 2.7.6 3.6 2.1 22.3 35.6 44.7 71.2 67 106.8.5.8 1 1.6 1.5 2.3.2 0 .4-.1.6-.1z"/><path d="m556.5 218.4c-.1 19.6-4.9 37.8-17.2 53.5-11.6 14.9-27.1 23-45.8 25.2-14.7 1.7-29.1.3-42.6-6.1-18.3-8.6-30-23.1-36.1-42-8.2-25.3-7.1-50.2 5.3-73.9 10.4-19.7 27.5-30.5 49.2-33.9 15.1-2.4 30-1.3 44.3 4.6 20.8 8.6 33.2 24.5 39.3 45.7 2.6 8.7 3.7 17.8 3.6 26.9zm-122.2 4.3c0 3.9.7 11.2 2.6 18.3 3.8 14.2 11.5 25.2 25.5 31 8.6 3.6 17.7 4.3 26.9 3.4 17.4-1.6 30.4-9.9 37.3-26.3 6.6-15.7 7-32 3.5-48.5-2.3-11-7.3-20.6-16-28-9.9-8.4-21.7-11.2-34.4-10.5-15.3.9-27.6 7.5-36 20.5-7.2 11.2-9.4 23.6-9.4 40.1z"/><path d="m805.4 197.3c0-17 0-34.1 0-51.1 0-2 .5-2.6 2.5-2.5 6.3.1 12.6.2 19 0 2.4-.1 3.1.5 3.1 3-.1 30-.1 60-.1 90 0 5.7.3 11.3 2 16.8 3.9 12.9 13.7 21 27.2 22.1 6.8.6 13.6.3 20.1-2 11.5-4 17.8-12.5 20-24.2.7-3.8 1-7.6 1-11.4 0-30.5 0-60.9-.1-91.4 0-2.1.5-2.8 2.7-2.8 6.6.2 13.3.1 19.9 0 1.4 0 1.9.3 1.9 1.9-.1 32.6.3 65.1-.2 97.7-.4 28.6-19 49.2-47.5 53.5-13.6 2.1-27.1 1.6-40.1-3.8-18.1-7.5-27.8-21.5-30.8-40.5-.6-3.6-.6-7.3-.6-11-.1-14.9 0-29.6 0-44.3z"/><path d="m1021.4 230v61.7c0 2-.5 2.6-2.5 2.5-6.5-.1-13-.1-19.4 0-2.2.1-2.6-.6-2.6-2.7.1-40.8.1-81.6 0-122.4 0-4 .6-3.5-3.6-3.5-14.5 0-29 0-43.4 0-1.8 0-2.5-.4-2.4-2.3.1-5.8.1-11.7 0-17.5 0-1.6.2-2.2 2.1-2.2 38.9.1 77.7 0 116.6 0 1.6 0 2 .5 2 2.1-.1 5.8-.1 11.7 0 17.5 0 2-.4 2.5-2.5 2.5-13.8-.1-27.7 0-41.5-.1-2.4 0-2.9.7-2.8 2.9z"/><path d="m611.5 219.1v72.5c0 2-.4 2.8-2.6 2.7-6.4-.2-12.8-.2-19.2 0-2.2 0-2.8-.5-2.8-2.7.1-40.7.1-81.4.1-122.1 0-7.8.1-15.5 0-23.3 0-2.1.6-2.5 2.6-2.5 6.5.1 13 .1 19.4 0 2 0 2.6.5 2.6 2.5-.1 24.2-.1 48.6-.1 72.9z"/><path d="m159.9 264.9c.3.2.5.6.5 1-.6-.1-1.2-.2-.5-1z"/></g></svg>