<svg id="Layer_1" data-name="Layer 1" xmlns="http://www.w3.org/2000/svg" viewBox="0 0 250 250"><defs><style>.cls-1{fill:#a3abb0;}</style></defs><title>BAB</title><path class="cls-1" d="M139.78,130.67a8.37,8.37,0,0,0-3.29-.47H121.72c-3.87,0-3.76,0-4.56,4-.43,2.08.25,2.71,2.2,2.67,2.88-.06,5.76,0,8.64,0h8.36a5.61,5.61,0,0,0,4.35-1.47C142.39,133.62,142,131.58,139.78,130.67Z"/><path class="cls-1" d="M142.69,112.87c-6.58-.05-13.17-.23-19.74,0-2.71.11-2,3-2.26,4.7s1.48,1.22,2.44,1.25c2.78.08,5.57,0,8.35,0s5.56,0,8.34,0a5.49,5.49,0,0,0,4.33-1.5,2.8,2.8,0,0,0,.81-2.8A2.23,2.23,0,0,0,142.69,112.87Z"/><path class="cls-1" d="M125,0A125,125,0,1,0,250,125,125,125,0,0,0,125,0ZM91.59,150.71q-11,0-22,0c-1.7,0-2.38-.72-2-2.42.65-3.1,1.3-6.19,1.86-9.3.43-2.33,2.15-2.21,3.85-2.18,1.35,0,2.51-.11,2-2-1.84-7.09-3.67-14.19-5.73-22.14L54.75,135c-.9,1.36-.32,1.72,1.07,1.85,3.56.35,3.57.4,2.84,4-.52,2.55-1.11,5.09-1.57,7.65a2.37,2.37,0,0,1-2.66,2.23H30.16c-2.11,0-2.1-1-1.11-2.43Q44.83,124.6,60.6,100.92a3.3,3.3,0,0,1,3-1.6c4.93,0,9.86.09,14.78,0,2.13-.05,2.66,1.19,3.08,2.84q4.79,18.5,9.61,37c.77,3,1.5,5.95,2.34,8.9C93.93,149.75,93.57,150.71,91.59,150.71ZM155,125c3.74,3.18,4.73,7.27,2.85,12.07-3.15,8-9.58,11.78-17.69,13.12a43.71,43.71,0,0,1-7.5.51c-2.22,0-3.39.65-3.77,3-.54,3.33-4.78,5.08-7.86,3.49-1.33-.69-.5-1.76-.57-2.69-.08-1.31,1.72-3.23-1.1-3.73-3.9-.7-5.45,0-6.09,2.74-.83,3.56-4.18,5.17-7.71,3.74-1.43-.57-.9-1.6-.75-2.57.6-3.91.6-3.91-3.41-3.95-3.83,0-3.93-.14-3.14-4,3-14.76,6-29.51,8.92-44.28.47-2.38,1.56-3.19,3.95-3.15,5.25.1,4.68.68,5.83-4.74.41-1.91.92-3.81,1.14-5.74.29-2.57,1.61-3.38,4.11-3.33,4.85.09,4.89,0,3.91,4.83-.43,2.1-.84,4.19-1.29,6.28-.34,1.57.31,2.18,1.86,2.33,4.5.42,5.1,0,6-4.35.42-2.1.83-4.2,1.25-6.29.22-1.09.31-2.41,1.71-2.57,2.1-.24,4.28-.65,6.28.36.75.37.41,1.34.27,2.06-.5,2.55-.87,5.14-1.55,7.65s.23,3.27,2.57,3.07c.74-.07,1.49,0,2.23,0,3.84.06,7.61.45,11.07,2.32a10.06,10.06,0,0,1,5.29,10.49c-.68,4.73-2.65,8.7-6.77,11.36C153.86,123.71,154,124.13,155,125Zm69-15.27c-.31,2.32-1.43,3.1-3.71,3.08-8.92-.08-17.85,0-26.77,0-5.93,0-10.7,2.31-14,7.24-2.36,3.56-3.44,7.58-1.34,11.6s5.83,5.21,10.11,5.2h26.49c3.44,0,3.58.18,2.95,3.46-.52,2.73-1.15,5.45-1.64,8.2a2.35,2.35,0,0,1-2.65,2.23c-10.22-.18-20.45.53-30.65-.37-18.77-1.65-26-18.53-17.4-34.1,6.4-11.6,17-16.75,29.89-17.39,4.55-.22,9.11,0,13.67,0,4.74,0,9.48.07,14.22,0,2.36-.06,2.94.84,2.4,3A76.55,76.55,0,0,0,224,109.71Z"/></svg>