<svg id="Layer_1" data-name="Layer 1" xmlns="http://www.w3.org/2000/svg" viewBox="0 0 250 250"><defs><style>.cls-1{fill:#a3abb0;}</style></defs><title>BSV</title><path class="cls-1" d="M139,106.12a6.33,6.33,0,0,0,2,.74,2.06,2.06,0,0,1,1.35.74c.58.91,1.42.89,2.32.88a7.29,7.29,0,0,0,2.23-.32c.55-.19,1.41-.11,1.45-.89s-.56-1.21-1.18-1.57a7.89,7.89,0,0,0-1-.44,9.65,9.65,0,0,0-4-.52,12.07,12.07,0,0,0-3.12.23c-.28.08-.64.13-.7.45S138.68,106,139,106.12Z"/><path class="cls-1" d="M125,0A125,125,0,1,0,250,125,125,125,0,0,0,125,0ZM76.61,66.19a46.59,46.59,0,0,1,5.12-5c.72-.64.84-1.17.32-1.83a1.32,1.32,0,0,0-2-.17c-.27.22-.51.62-.91.38s-.23-.72-.1-1.07a6.24,6.24,0,0,1,4.39-3.87,8.81,8.81,0,0,1,6.15.32,1.54,1.54,0,0,0,1.47-.08,40.86,40.86,0,0,1,5-2.69c.7-.27.74-.8.13-1.25a2.22,2.22,0,0,0-2.56-.35c-.22.12-.47.33-.71.08s-.08-.56,0-.82a4.07,4.07,0,0,1,1.91-1.91,8.71,8.71,0,0,1,9.47.48,1.58,1.58,0,0,0,1.53.29c1.74-.56,3.51-1.06,5.26-1.58.88-.27.95-.54.33-1.19a2.22,2.22,0,0,0-2.35-.58c-.27.08-.59.31-.8,0s.06-.63.29-.86a5.71,5.71,0,0,1,3.5-1.6,11.61,11.61,0,0,1,1.18,0,8.28,8.28,0,0,1,6.34,2.38,2.26,2.26,0,0,0,2.31.64,4,4,0,0,1,3.31.28c.69.42,1.21,0,1.15-.84a2.59,2.59,0,0,0-2.08-2.06c-.27,0-.68.09-.72-.32s.34-.44.58-.59a5.92,5.92,0,0,1,4.29-.61,9,9,0,0,1,6.4,4.12,1.25,1.25,0,0,0,1.11.66c.62,0,1.24.09,1.86.06a2.94,2.94,0,0,1,2.43.81c.21.21.46.42.78.22s.27-.5.23-.8a2.54,2.54,0,0,0-2.09-2.22c-.27-.05-.54-.1-.62-.4a.63.63,0,0,1,.3-.68A2.79,2.79,0,0,1,141.1,43c4.17.63,7.34,2.53,8.48,6.9.13.47.34.75.88.7a3.68,3.68,0,0,1,3,1.19c.42.41.91.75,1.49.41s.41-.94.31-1.44a2.69,2.69,0,0,0-1.86-2.2c-.28-.09-.67-.13-.67-.48s.43-.47.74-.52a7.23,7.23,0,0,1,6.27,1.82A11.64,11.64,0,0,1,163.44,55a1,1,0,0,0,.92.84A5.4,5.4,0,0,1,167,57.43c.34.32.69.67,1.2.46s.47-.77.41-1.21a3.53,3.53,0,0,0-1.9-3c-.33-.16-.86-.31-.72-.79s.7-.34,1.09-.26a8.13,8.13,0,0,1,4.42,2.57A15,15,0,0,1,174.36,60c.46,1.16,1.68,1.64,2.6,2.35.44.35,1-.21.83-.89A5.43,5.43,0,0,0,176.65,59c-.31-.38-.9-.87-.46-1.32s1,.07,1.42.34a11.6,11.6,0,0,1,3.69,3.62c1,1.52,1.94,3,2.91,4.54,1.9,2.94,1.89,6.13.89,9.34a22.36,22.36,0,0,0-1.24,7.22,4.59,4.59,0,0,1-1.16,3.84c-1.44,1.47-1.53,3.62-1.85,5.59a24.51,24.51,0,0,0,.07,6.17c0,.37.08.7-.3.94-3,1.84-3.81,4.76-4.09,8-.09,1-.15,2.08-.2,3.13a1,1,0,0,1-.65,1c-3.73,1.33-5,4.51-6,7.94-.05.16-.05.32-.09.48a.82.82,0,0,1-1,.73c-.56-.12-.31-.63-.24-1a36.67,36.67,0,0,0,.85-8.28,35.64,35.64,0,0,0-2.24-12,1.42,1.42,0,0,1,.33-1.74,9.53,9.53,0,0,0,2.27-4.83,28.89,28.89,0,0,0,.22-10.73c-.48-2.48-1.56-4.55-4.25-5.24-3.23-.83-6.58,1.55-7.27,5.07a15.49,15.49,0,0,0-.2,3.33c0,.24.13.57-.18.7s-.39-.19-.55-.34a34.57,34.57,0,0,0-20.53-8.62,35.24,35.24,0,0,0-18.18,3.54,1.26,1.26,0,0,1-1.37,0c-4.91-3.28-10.41-5-16.14-6.09-4-.76-8-1-11.94-1.78a32.25,32.25,0,0,1-12.39-4.74C75.81,67.13,75.84,67.13,76.61,66.19ZM56.34,69.76c.43-.29.81.1,1.13.36a22.06,22.06,0,0,1,2,1.74A35.09,35.09,0,0,0,80.94,82.28c4.54.55,9.12.77,13.66,1.4a38.93,38.93,0,0,1,13.54,4.42,1.33,1.33,0,0,0,1.47,0,2.42,2.42,0,0,1,1.32-.32,1.87,1.87,0,0,0,1.23-.5c.61-.43.51-.68,0-1a33.88,33.88,0,0,0-6.62-3.18c-5-1.82-10.23-2.49-15.47-3.08-5-.57-10.09-1.13-14.76-3.36a22.37,22.37,0,0,1-9.67-8,7.92,7.92,0,0,1-1.16-3.21c-.07-.57-.08-1.18.52-1.46s.93.17,1.26.54c.51.55,1,1.12,1.48,1.7a30.6,30.6,0,0,0,12.07,8.66c5.64,2.37,11.63,3,17.6,3.76a44.38,44.38,0,0,1,16.09,5.11,16.93,16.93,0,0,1,3.4,2.48,2,2,0,0,0,2.38.55,4.86,4.86,0,0,1,2.51-.3,3.19,3.19,0,0,1,2.78,2,12.6,12.6,0,0,1,.39,7.44,3.83,3.83,0,0,0,0,2.69c.68,1.27,1.24,1.45,2.34,1.06a7.47,7.47,0,0,1,7.64,1.32,1.33,1.33,0,0,0,1.44.25,27.07,27.07,0,0,0,5.41-2.77,1.72,1.72,0,0,0,.63-1,9.33,9.33,0,0,1,2.87-3.9c1.87-1.52,4.06-1.19,6.2-1,2.41.26,4.8.76,7.23.33a4.86,4.86,0,0,0,4.4-5.16c0-1.17-.11-2.35-.17-3.53a4.33,4.33,0,0,1,.3-1.92c.19-.42.35-.93.92-.88s.65.52.74.93a18.76,18.76,0,0,1,.34,2.23,23.06,23.06,0,0,1-.58,7.49c-.64,2.46-2.38,3.47-4.72,3.76a22.76,22.76,0,0,1-5.28-.11,11.59,11.59,0,0,0-4.19.3,4,4,0,0,0-2.84,2.73,1.56,1.56,0,0,0,.19,1.57,5.25,5.25,0,0,1,.6,1,1.11,1.11,0,0,0,1.32.81c1.54-.13,2.39.71,2.84,2.22.52,1.76,1.44,3.25,3.5,3.55.49.07,1,.15,1.45.25s.81,0,.84.51-.39.57-.72.72a4.2,4.2,0,0,1-4,.11c-.38-.22-.63-.2-.64.31,0,1-.61,1.94-.17,3a.76.76,0,0,1-.3,1c-.32.19-.63,0-.92-.15a6.86,6.86,0,0,1-2-1.88c-.49-.68-1-.62-1.55-.11a6.57,6.57,0,0,0-1.43,2.21c-.63,1.31-1.42,1.41-2.35.28-.44-.53-.81-1.11-1.2-1.68-.23-.34-.42-.4-.61,0-.4.92-1.33,1.43-1.82,2.29a.76.76,0,0,1-.9.44,1,1,0,0,1-.65-.8c-.07-.35-.08-.71-.13-1.07s-.15-.6-.51-.63-.36.31-.45.55a7.66,7.66,0,0,1-3.58,4.25c-.31.17-.69.46-1,.22s0-.67.13-1a4,4,0,0,0,.33-2.11c0-.3-.09-.62-.42-.72s-.52.21-.69.44a8.86,8.86,0,0,0-1.74,6.94,33,33,0,0,0,2.93,9.24c1.31,2.85,2.65,5.69,3.73,8.65a23.07,23.07,0,0,1,1.52,9,8.39,8.39,0,0,1-3.87,7.12,6.84,6.84,0,0,1-6.92.47c-4.73-2.19-7.6-6.17-10.13-10.47a14.39,14.39,0,0,1-1.54-3.5c-.14-.53-.37-1.16.23-1.51s.93.23,1.27.61c1.39,1.56,2.11,3.55,3.45,5.13a21.6,21.6,0,0,0,4,4.12,6.41,6.41,0,0,0,4.88,1.36,5.56,5.56,0,0,0,4.34-6.12,16.32,16.32,0,0,0-1.37-5.3,42.47,42.47,0,0,0-2.47-5,51.22,51.22,0,0,1-5.27-12,14.58,14.58,0,0,1-.61-5c0-.89-.26-1.12-1.16-1a8.51,8.51,0,0,1-5.7-.91c-.58-.33-1.07-.45-1.58.1-.19.21-.45.47-.76.33s-.25-.53-.2-.8c.3-1.91-1-2.83-2.3-3.75-.74-.51-1.3-.23-1.73.45a3.09,3.09,0,0,0-.33,2.74,6.61,6.61,0,0,0,2,2.88,46.79,46.79,0,0,0,3.77,2.82c1,.72,1.35.58,2-.56.22-.4.16-1.16,1-.93s1.63.17,1.79,1.4a31,31,0,0,0,1.7,7,2.31,2.31,0,0,1-.31,2.31,10.36,10.36,0,0,1-5.63,4,3.18,3.18,0,0,1-1,.11c-.54,0-1.31.13-1.49-.42s.64-.6,1-.87a4.63,4.63,0,0,0,2-3.64c0-1-.24-1.25-1.27-1.11a3.75,3.75,0,0,1-1.36.09,3.12,3.12,0,0,0-3,.92,40.12,40.12,0,0,1-4,2.85c-3.24,2.08-8,.43-9.18-2.57-.28-.7-.61-1.38-.93-2.06s-.61-.9-1.12-.19c-.14.18-.27.4-.55.31a.66.66,0,0,1-.39-.63,5,5,0,0,1,.94-3.63,1.12,1.12,0,0,0-.16-1.71,19.93,19.93,0,0,0-1.64-1.55,2.32,2.32,0,0,0-3.17,0c-.26.18-.54.46-.88.22s-.15-.53-.09-.82c.46-2.41,2.12-3.66,4.59-4.45-2.82-.87-4.73-2.61-6.65-4.34-.65-.59-.57-1,0-1.64a10.74,10.74,0,0,1,11.33-2.87,15.07,15.07,0,0,1,5.69,3.56l.71.68s.12,0,.2,0c.22-.39-.07-.68-.2-1-1.51-3.77-4.58-5.56-8.31-6.5a16.62,16.62,0,0,0-5.1-.9c-.29,0-.61,0-.73-.35a.78.78,0,0,1,.26-.8,5,5,0,0,1,2.47-1.36c1.3-.3,2.62-.57,3.93-.83a7.66,7.66,0,0,0,3-1.2c.89-.62.85-1-.1-1.55a57,57,0,0,0-13.4-5.24c-4.59-1.2-9.26-2-13.77-3.58C68.35,84.83,62.29,81,58,74.72A12.68,12.68,0,0,1,56.21,71C56.09,70.59,55.87,70.07,56.34,69.76Zm95.79,56.14a3.35,3.35,0,0,1,.09,2.49c-.3,1-.81,1.17-1.66.57a4.47,4.47,0,0,0-2.88-1.06c-.54,0-.68.16-.48.71a4.7,4.7,0,0,1-.45,4.14,1,1,0,0,1-.92.63c-.48,0-.65-.43-.73-.82-.75-3.41-3.45-3-5.47-1.84-1,.58-1.11.58-1.63-.44a36.9,36.9,0,0,1-2.79-7.63c-.07-.26-.28-.63,0-.81s.54.19.7.4c1.46,1.9,3.67,1.33,5.4.65.82-.32.71-1.33.7-2.1a4.14,4.14,0,0,0-.66-1.83c-.13-.24-.46-.48-.16-.77s.57-.1.84,0a4.6,4.6,0,0,1,2.39,2.1c.49.83.94,1,1.64.28a3,3,0,0,1,.74-.48c1.32-.7,1.52-1.35.84-2.69l-.31-.6.17-.19a7.69,7.69,0,0,1,3.4,2.91,2.83,2.83,0,0,0,1.37,1.16,4.79,4.79,0,0,1,2.82,4.35c0,.76-.29,1-1,.5-.52-.37-1-.86-1.77-.38C152.05,125.36,151.93,125.51,152.13,125.9ZM38.54,105.54c.27-.12.38.18.56.31a7.86,7.86,0,0,0,1,.67c1.28.62,1.77.34,1.9-1.08a2.17,2.17,0,0,1,1.37-2.08,3.51,3.51,0,0,1,3.45.42A5.58,5.58,0,0,1,49,108.06c0,.16,0,.33,0,.49,0,.72.29,1.63-.15,2.1s-1.27-.25-1.95-.33c-1-.12-2-.07-3-.1a20,20,0,0,1-2.45,0c-2.29-.29-3.25-1.72-3.16-4C38.32,105.94,38.32,105.65,38.54,105.54Zm12,26.4c-2.13,3.79-5.09,6.41-9.46,7.06-3.1.47-6.23.64-9-1.18a6.15,6.15,0,0,1-3.1-4.43c0-.29-.16-.67.09-.84s.5.19.72.34a8.59,8.59,0,0,0,8.33,1.43,3.94,3.94,0,0,0,1.65-1c.17-.19.47-.37.33-.65s-.46-.1-.7,0a12.64,12.64,0,0,1-6.68-.34,12.33,12.33,0,0,1-5.34-19.51,8.37,8.37,0,0,1,1.52-1.39c.15-.1.28-.35.49-.25s.13.4.09.6a13,13,0,0,0,0,5.46,11.44,11.44,0,0,0,16,7.78,13.16,13.16,0,0,0,5.82-5.23,2.45,2.45,0,0,0,.5-1.28c-.69.59-1.31,1.09-1.9,1.64-5.38,5-12.31,3.11-16-1.27-2.05-2.44-1.76-6.47.59-9.11.13-.15.26-.29.4-.43.86-.87.84-.86,1.28.3a6.39,6.39,0,0,0,3.95,3.57c3.42,1.39,9.49.23,12.13-3.14a22.39,22.39,0,0,0,2.89-5.76c1.56-3.92,2.74-8,4.69-11.76a48,48,0,0,1,2.92-4.88c.38-.56.72-.71,1.36-.31a38.91,38.91,0,0,0,6.46,3.3c.39.15,1,.24.33.88a40.61,40.61,0,0,0-7.62,10A95.75,95.75,0,0,0,55,120.43C53.76,124.34,52.62,128.31,50.58,131.94Zm180.59-22.56c-.18.08-.29-.09-.42-.18-.38-.27-.74-.54-1.13-.78-.67-.42-1.27-.56-1.9.17a1.47,1.47,0,0,1-1.79.44,5,5,0,0,0-5.1.58c-.65.43-1.34.78-2.13,1.24,1.82.52,3.52,1,4.76,2.38a5.71,5.71,0,0,1,1.51,2.6,3.24,3.24,0,0,0,.79,1.32c1.18,1.51,1.13,3-.12,4-.43.35-.71.45-.82-.27a1.13,1.13,0,0,0-1.57-1.09,2.28,2.28,0,0,1-2.44-.91,4.62,4.62,0,0,1-.45-.64,8.75,8.75,0,0,0-4.46-4.1,9.63,9.63,0,0,1-3.14-1.78,7.25,7.25,0,0,1-.53,2.64,3.14,3.14,0,0,1-1.3,1.44c-.87.44-.9,1.1-.63,1.9a7,7,0,0,0,.71,1.29c.13.2.47.4.24.66s-.49,0-.73,0a4.51,4.51,0,0,1-3-2.24c-.46-.83-.92-1.66-1.31-2.52a3.4,3.4,0,0,1,.08-3,24.86,24.86,0,0,1,2-2.81c.38-.57.42-.9-.36-1.09-1.52-.39-3-.82-4.54-1.25-.79-.23-1,0-.83.83a65.16,65.16,0,0,1-2.05,29.4,68.52,68.52,0,0,1-14,25.43,65.86,65.86,0,0,1-20.25,15.92,66.55,66.55,0,0,1-24.09,7,5.75,5.75,0,0,0-2.86,1.37.78.78,0,0,0-.28.6c-.26,3.13-2.11,5.29-4.4,7.14a33,33,0,0,1-3,2c-.18.11-.41.32-.62.13s0-.42.07-.62c.51-1.22.77-2.39-.42-3.4a1.6,1.6,0,0,0-1.89-.25,2.72,2.72,0,0,0-1.87,2.31,6.76,6.76,0,0,1-4.64,5.35c-.25-.26,0-.48.08-.7a3.19,3.19,0,0,0,.14-1.93c-.25-1.11-1-1.42-2-.89-1.46.79-3,1.55-4.43,2.33-.22.12-.58.13-.57.45s.38.33.61.41a11.92,11.92,0,0,1,6.2,4.43c.89,1.29,1.43,2.69.37,4.19-.31.43-.1.88,0,1.32a7.77,7.77,0,0,1-1.53,7c-.19.24-.37.66-.73.53s-.22-.58-.22-.89a13.86,13.86,0,0,0-.85-4.41c-.21-.6-.47-.92-1.21-.78a3.82,3.82,0,0,1-3.39-1.17,12.13,12.13,0,0,1-2.32-2.78c-.33-.57-.62-.76-1,0a3,3,0,0,1-1.35,1.38,15.06,15.06,0,0,1-1.76.86,9.84,9.84,0,0,0-6.09,6.24c-.5,1.46-1,2.92-1.44,4.39a5.43,5.43,0,0,1-.73,1.49,2.74,2.74,0,0,1-3.42,1.11c-.95-.33-1.08-.25-1,.77,0,.49.15,1,.21,1.45,0,.21.22.47-.07.61s-.35-.12-.5-.24a3.73,3.73,0,0,1-1.37-3.94,2.48,2.48,0,0,0-.14-1.52c-1.17-2.94-.51-5.23,2-7.23a18.84,18.84,0,0,0,4.37-4.75c.14-.23.44-.51.2-.78s-.49,0-.73.08a15.88,15.88,0,0,1-5.75-.16c-.61-.08-1.22-.2-1.84-.27a4.7,4.7,0,0,0-4.71,2,3.78,3.78,0,0,1-2.17,1.74,2.61,2.61,0,0,1-2.33-.41c-.7-.55-1-.26-1.27.44a8.44,8.44,0,0,0-.58,3,5.26,5.26,0,0,1-.12,1.36,6.66,6.66,0,0,1-1.53-4.85,1.48,1.48,0,0,0-.39-1.49c-.64-.61-.39-1.39,0-2.09a8.32,8.32,0,0,1,3.7-3.27,20.39,20.39,0,0,1,5.2-2,12.59,12.59,0,0,1,6.22.14c.22.06.44.13.66.17.05,0,.12,0,.26-.09a5.65,5.65,0,0,0-2.83-3.2,38.76,38.76,0,0,0-4.9-2,18.48,18.48,0,0,1-1.85-.89,1.77,1.77,0,0,1-.87-1.46c-.08-.62-.42-.8-1-.84a5,5,0,0,0-3.83,1.08,4.64,4.64,0,0,1,5.46-4.13c.75.18,1.22.2,1.73-.53a2.4,2.4,0,0,1,2.67-.75A9.93,9.93,0,0,1,94,191.65a13,13,0,0,1,2.75,3.43,5.78,5.78,0,0,0,2.36,2.16c.54.31.87.27.8-.47a43.46,43.46,0,0,0-.67-5,2.64,2.64,0,0,0-1.56-1.9l-1.18-.49c-1.69-.7-2.15-1.61-1.54-3.33a1,1,0,0,0-.47-1.37,5.4,5.4,0,0,0-3.31-.67c-.28,0-.68.21-.8-.1s.28-.54.51-.74c1.72-1.43,4-1.42,6.09.07a1.51,1.51,0,0,0,1.59.25,3.11,3.11,0,0,1,3.39.95,9.61,9.61,0,0,1,1.88,3.19,16.54,16.54,0,0,0,1.88,3.55,8.2,8.2,0,0,1,1,2.88c.43-.15.43-.52.52-.79,1.13-3.46,2.34-6.89,3.78-10.23.33-.76-.12-.89-.65-1.08a90.94,90.94,0,0,1-10-4.25,89.74,89.74,0,0,1-9.24-5.39A10.46,10.46,0,0,0,88,170.89c-.55-.14-1.14-.3-1.52.28a1.51,1.51,0,0,0,.17,1.66,2.56,2.56,0,0,0,1,.85c.36.19.92.32.75.87s-.7.55-1.16.49A7.14,7.14,0,0,1,82,171.77a19.89,19.89,0,0,1-2.86-8.08,5.61,5.61,0,0,0-1.57-3.36,58.09,58.09,0,0,1-4-4.62c-.15-.19-.26-.54-.56-.47s-.31.48-.36.75a5.28,5.28,0,0,0,.46,3.15,6.06,6.06,0,0,1,.44,1.09c.11.37.21.81-.22,1.05s-.83,0-1.16-.27a9.25,9.25,0,0,1-2.66-4.29,45,45,0,0,1-1.82-9.63,11.75,11.75,0,0,0-.87-2.69,64.21,64.21,0,0,1-1.8-6.18,2.58,2.58,0,0,0-.59,2.18c.08.65.27,1.28.4,1.92.09.4.15.83-.28,1s-.75-.11-1-.4a5.16,5.16,0,0,1-1-1.9c-1-2.74-.78-5.53-.5-8.35a60.36,60.36,0,0,1,3-12.59,1.15,1.15,0,0,0,.13-.79,3.7,3.7,0,0,0-1.28,2c-.08.3-.21.7-.61.67s-.48-.48-.5-.84a6.78,6.78,0,0,1,.43-2.79,58.79,58.79,0,0,1,6.75-13.7c.58-.85,1.27-1.63,1.85-2.5a4.52,4.52,0,0,0-2.07,1.5c-.21.26-.43.56-.81.38a.72.72,0,0,1-.33-.93,3,3,0,0,1,.56-1.14,45.67,45.67,0,0,1,7.92-7.86,2.72,2.72,0,0,1,2.53-.53c3.33.82,6.73,1.36,10,2.41.3.1.74.06.81.44s-.34.44-.55.63a5.56,5.56,0,0,0-1.94,5.27,1.38,1.38,0,0,1-.6,1.58c-2.13,1.48-3.33,3.74-4.8,5.78a.71.71,0,0,0,.12,1c1.43,1.43,2.55,3.16,4.19,4.39a.72.72,0,0,1,.19,1.1c-1.91,3.17-.68,6,.88,8.88.26.47.7.39,1.12.4,2,0,2,0,2.28,2a5.18,5.18,0,0,0,2.88,4.29,3.11,3.11,0,0,1,1.48,1.84c1.74,4.3,5.06,5.72,9.74,5.37a9.36,9.36,0,0,0,4.56-1.39c.53-.35.79-.14.88.41a48.63,48.63,0,0,0,1.79,6.62,11.86,11.86,0,0,0,.92,2.27c2.51,4.45,5.39,8.61,9.64,11.61,5.7,4,11.71,4,17-.57a18.31,18.31,0,0,0,3.79-5.46,36.77,36.77,0,0,1,6.46-9.08A21,21,0,0,1,155,140a3,3,0,0,1,.73-.26c.31-.07.67-.21.91.13s-.07.55-.2.8a5.08,5.08,0,0,0,.11,5.41c.64,1.05,1.14,1,1.75,0a16,16,0,0,1,.91-1.4,1.79,1.79,0,0,1,1.45-.71c1.65,0,2.36-.77,2.43-2.42a22.47,22.47,0,0,1,3.61-12.16c.34-.49.7-1.34,1.29-1.13s.16,1,.13,1.6a7.29,7.29,0,0,0,.45,3.07c.13.31.29.62.66.67s.54-.29.71-.57c.46-.75,1-1.44,2-1.23a.62.62,0,0,0,.37-.07c.68-.34,1.69-2.72,1.56-3.5-.64-3.61-.63-7.16,1.06-10.54a9.19,9.19,0,0,1,.88-1.29c.14-.18.33-.35.59-.21a.51.51,0,0,1,.21.6,5.25,5.25,0,0,0-.06,2c.2,1,.82,1.18,1.53.5a3.92,3.92,0,0,1,1-.74c.48-.23,1.16-.14,1.37-.81.31-1,.88-2,.6-3.22a18.85,18.85,0,0,1,0-9.14,6.3,6.3,0,0,1,.4-1.1c.14-.31.24-.79.69-.72s.35.56.36.9a8.2,8.2,0,0,0,.21,1.85c.07.32.13.69.53.74s.56-.36.67-.7c.19-.65.38-1.29,1.29-1.16a.38.38,0,0,0,.31-.17c.34-1.32,1.29-2.5.71-4-1.33-3.43-1.91-6.94-.79-10.56.06-.22.12-.45.2-.66s.18-.55.49-.55.31.35.36.59c.12.51.21,1,.33,1.54,0,.19.09.41.31.46s.33-.17.42-.34a2.62,2.62,0,0,1,.91-1c.65-.51.54-1.29.41-2-.31-1.74-.65-3.47-.94-5.21a14.9,14.9,0,0,1,1.05-7.59c.06-.16.1-.35.29-.37s.35.15.44.33a3.54,3.54,0,0,1,.47,1.58,8.41,8.41,0,0,0,2.29,5.32,19.3,19.3,0,0,1,4.21,7.12,1.68,1.68,0,0,0,1.27,1.18,18,18,0,0,1,5.79,3.44,52.87,52.87,0,0,1,7.2,7.07c.14.16.23.47.51.38s.25-.38.26-.6a30.77,30.77,0,0,0,0-4.8,4.69,4.69,0,0,1,.09-2.14,2.06,2.06,0,0,1,2.36-1.44.75.75,0,0,0,.93-.46,3.61,3.61,0,0,1,1.57-1.57c.7-.32,1-.07,1,.61a3.9,3.9,0,0,1-.27,2.21.71.71,0,0,0,.08,1,2.1,2.1,0,0,1,.18,3.08,4.65,4.65,0,0,0-1,3.31.79.79,0,0,0,.31.69A5.6,5.6,0,0,0,218.35,99a6.74,6.74,0,0,1,.55-1.77A2.06,2.06,0,0,1,221.74,96a3.45,3.45,0,0,0,1.91,0,3.13,3.13,0,0,1,3.13,1.21c.18.22.44.46.28.78s-.45.2-.7.22a2.27,2.27,0,0,0-1.14.26c-.36.22-.63.49-.44,1,.35.91-.12,1.49-.79,2s-1.66,1.09-2,2.07c-.07.17-.21.35,0,.61a6,6,0,0,1,3.49-1.36,3,3,0,0,1,3.3,1.77,4,4,0,0,0,1.28,1.56,3.77,3.77,0,0,1,1.33,2.76C231.34,109.05,231.39,109.28,231.17,109.38Z"/><path class="cls-1" d="M111,103.64a5.91,5.91,0,0,0,4.71,2.5c1.85-.17,3.43-1.48,5-2.86a.63.63,0,0,0,.09-.73c-.65-2-2.25-2.69-4.09-1.69a12.94,12.94,0,0,1-5.08,1.33c-.48,0-1.17-.25-1.37.19S110.67,103.26,111,103.64Z"/></svg>