<svg id="Layer_1" data-name="Layer 1" xmlns="http://www.w3.org/2000/svg" viewBox="0 0 250 250"><defs><style>.cls-1{fill:#a3abb0;}</style></defs><title>BTG</title><path class="cls-1" d="M125.62,0C56.09-.06,0,55.58,0,124.64A124.81,124.81,0,0,0,124.9,250c69.15,0,125-55.68,125.1-124.62C250.05,56.11,194.46.09,125.62,0Zm-.51,221.11a96.13,96.13,0,1,1,96-96A96.14,96.14,0,0,1,125.11,221.13Z"/><path class="cls-1" d="M125,39.74a85.26,85.26,0,1,0,85.25,85.52A85.44,85.44,0,0,0,125,39.74Zm-.13,161.78A76.52,76.52,0,1,1,201.54,125,76.52,76.52,0,0,1,124.9,201.52Z"/><path class="cls-1" d="M160.77,121.08c5.92-8.71,7.26-17.78,3.14-27.19-4.21-9.6-12.2-14.47-22.68-16.23V65.28H128.81V77.61h-8.55V65.21H108.17V78.05H78.36c5.55,6.38,4.2,17.6,16.14,15v61.55c-3.23.74-7.11.46-8.45,2.17-2.92,3.73-4.56,8.47-7.18,13.73h29.58v12h12.19V170.8h8.56v11.86h12.19V170.5c13.88.55,24.46-4.36,29.34-17.25S171.31,129.66,160.77,121.08ZM110.34,93.43c10.69,0,21.24-.45,31.72.18,5.58.34,9.38,6.2,9.07,11.62-.32,5.75-4.8,10.78-10.57,10.94-9.91.29-19.83.08-30.22.08Zm47.06,51.22a11.39,11.39,0,0,1-11.31,10.67c-10.25.19-20.52.06-30.78.07h-4.94V132.2c12.66,0,25.15-.41,37.6.17C154,132.66,157.82,138.64,157.4,144.65Z"/></svg>