<svg id="Layer_1" data-name="Layer 1" xmlns="http://www.w3.org/2000/svg" viewBox="0 0 250 250"><defs><style>.cls-1{fill:#a3abb0;}</style></defs><title>CMT</title><path class="cls-1" d="M78.9,158.81c-8.33-13.71-11.54-28.49-8.27-44.47C73.84,98.68,81.79,86.15,95,77.1A57,57,0,0,1,155,74.87a57.31,57.31,0,0,1,17.63,15.9c3.61,4.92,9.79,5.78,14.39,2.18,3.15-2.46,3.93-5.64,2.11-9.17a26.06,26.06,0,0,0-2.77-4.4,77.31,77.31,0,0,0-39.27-26.3,74.35,74.35,0,0,0-32.37-1.77A73.57,73.57,0,0,0,80,66.38,78.59,78.59,0,0,0,64.62,82.29,75.71,75.71,0,0,0,52.37,109.5a71.89,71.89,0,0,0,.79,36.9A71,71,0,0,0,71.9,177.74c15.37,15,33.53,23.33,55.48,21.5a36.06,36.06,0,0,0,15.94-4.84,99.48,99.48,0,0,1-31.14-7.89C98.33,180.61,86.78,171.79,78.9,158.81Z"/><path class="cls-1" d="M192,139.64c-3.45,0-5.48,1.35-6.93,4.65-1.6,3.66-1.93,7.61-2.61,11.48q-1,6-2,12.11c-.11.7-.2,1.59.34,2s1.25-.32,1.83-.64a20.58,20.58,0,0,0,2.4-1.51c6.5-4.74,11.83-10.44,14.28-18.3C200.89,144.24,197.39,139.68,192,139.64Z"/><path class="cls-1" d="M125,0A125,125,0,1,0,250,125,125,125,0,0,0,125,0Zm67.23,183.45a71,71,0,0,1-18.91,8.46,5.05,5.05,0,0,0-2.74,1.76C158.23,210.34,141.08,216.79,121,217c-15.77.11-29.89-5.05-43.14-13.14a90.43,90.43,0,0,1-38.29-48.61,106.3,106.3,0,0,1-4.46-23.87c-.68-8,.32-15.75,1.72-23.48a85,85,0,0,1,3.9-13.83,99.17,99.17,0,0,1,7-15.19A89,89,0,0,1,71.07,52.11a88.47,88.47,0,0,1,46.86-18.67q38.23-3.49,67.67,21.23c6.55,5.51,12.65,11.55,16.7,19.17,4.56,8.59,5.16,17.56.26,26.27-8.83,15.69-31.13,16.94-41.85,2.44-6.94-9.38-16.06-15.39-27.57-17.22a39.83,39.83,0,0,0-34,10c-10.48,9.27-15.24,21-14,34.83.93,10.23,5.74,19,12.76,26.4,10.85,11.48,24.81,16.71,39.94,19.5,6.49,1.2,13,1.14,19.59.93,4.23-.13,4.74-.55,5.63-4.74,1.58-7.42,2-15,3.36-22.47,1.19-6.56,2.78-13,7.22-18.29,10.44-12.35,31.1-11.36,38.39,2.39A28.08,28.08,0,0,1,215,149.9C213.48,165.2,204.42,175.33,192.23,183.45Z"/></svg>