<svg id="Layer_1" data-name="Layer 1" xmlns="http://www.w3.org/2000/svg" viewBox="0 0 250 250"><defs><style>.cls-1{fill:#a3abb0;}</style></defs><title>ELA</title><polygon class="cls-1" points="162.85 168.06 162.85 135.15 134.34 151.6 162.85 168.06"/><polygon class="cls-1" points="127.86 188.26 127.86 155.34 99.36 171.8 127.86 188.26"/><polygon class="cls-1" points="167.17 135.15 167.17 168.06 195.67 151.6 167.17 135.15"/><polygon class="cls-1" points="132.18 188.26 160.69 171.8 132.18 155.34 132.18 188.26"/><polygon class="cls-1" points="92.88 168.06 92.88 135.15 64.38 151.6 92.88 168.06"/><polygon class="cls-1" points="92.88 108.64 92.88 75.72 64.38 92.18 92.88 108.64"/><polygon class="cls-1" points="97.2 135.15 97.2 168.06 125.7 151.6 97.2 135.15"/><polygon class="cls-1" points="167.17 75.72 167.17 108.64 195.67 92.18 167.17 75.72"/><polygon class="cls-1" points="162.85 108.64 162.85 75.72 134.34 92.18 162.85 108.64"/><polygon class="cls-1" points="132.18 128.84 160.69 112.38 132.18 95.92 132.18 128.84"/><path class="cls-1" d="M125,0A125,125,0,1,0,250,125,125,125,0,0,0,125,0Zm5,194.49L55.74,151.6,95,128.91l35,20.2,35-20.2,39.3,22.69Zm0-59.42L55.74,92.18,95,69.49l35,20.2,35-20.2,39.3,22.69Z"/><polygon class="cls-1" points="97.2 75.72 97.2 108.64 125.7 92.18 97.2 75.72"/><polygon class="cls-1" points="127.86 128.84 127.86 95.92 99.36 112.38 127.86 128.84"/></svg>