<svg id="Layer_1" data-name="Layer 1" xmlns="http://www.w3.org/2000/svg" viewBox="0 0 250 250"><defs><style>.cls-1{fill:#a3abb0;}</style></defs><title>ELF</title><path class="cls-1" d="M119,100.14a65.16,65.16,0,0,1,8.31-.91A9.56,9.56,0,0,1,135.9,106c1.13,5-.43,8.95-4.41,11.27-5.5,3.21-11,1.19-14.35-4.78C112,103.29,103,97.26,91.56,101.65c-4.31,1.64-8.62,3.32-12.79,5.27A25.63,25.63,0,0,1,42.16,83.74c0-12.8,9.07-23.37,22.18-25.67C75.55,56.09,88,64,91.85,75.58A109.34,109.34,0,0,0,96.4,88.19C101.07,97.89,108.2,101.5,119,100.14ZM125-.07a125,125,0,1,0,125,125A125,125,0,0,0,125-.07Zm5.8,41a16.76,16.76,0,0,1,0,33.51,16.76,16.76,0,0,1,0-33.51ZM96,162c-1.93,4-3.13,8.37-4.56,12.61-3.89,11.56-16.29,19.49-27.5,17.51-13.11-2.3-22.24-12.87-22.18-25.67a25.63,25.63,0,0,1,36.61-23.18c4.16,2,8.48,3.63,12.78,5.27,11.48,4.39,20.41-1.64,25.58-10.88,3.34-6,8.86-8,14.35-4.78,4,2.32,5.54,6.3,4.42,11.27a9.57,9.57,0,0,1-8.64,6.81,65.2,65.2,0,0,1-8.3-.91C107.81,148.71,100.67,152.32,96,162Zm35,47.81c-8.89.13-16.89-7.94-16.85-17a17,17,0,0,1,16.55-16.77,16.6,16.6,0,0,1,16.71,16.88A17.08,17.08,0,0,1,131,209.83Zm45.86-50A34.9,34.9,0,0,1,175.78,90c19.36-.31,34.78,15.15,35,34.8A34.63,34.63,0,0,1,176.84,159.82Z"/></svg>