<svg id="Layer_1" data-name="Layer 1" xmlns="http://www.w3.org/2000/svg" viewBox="0 0 250 250"><defs><style>.cls-1{fill:#a3abb0;}</style></defs><title>ETP</title><path class="cls-1" d="M124.93,0A124.93,124.93,0,1,0,249.86,124.93,124.93,124.93,0,0,0,124.93,0Zm37.5,45.8a6.26,6.26,0,0,1,6.21,6.51c0,3.53-2.67,6-6.35,5.95A6,6,0,0,1,156.17,52,6.34,6.34,0,0,1,162.43,45.8ZM120.25,37a7.43,7.43,0,0,1,7.6,7.69,7.72,7.72,0,1,1-15.43.08A7.53,7.53,0,0,1,120.25,37ZM80.93,49.92a9.57,9.57,0,0,1,9.19,9.27,9.24,9.24,0,0,1-9.22,9.38,9.54,9.54,0,0,1-9.42-9.31A9.77,9.77,0,0,1,80.93,49.92Zm-26.38,30A11.21,11.21,0,0,1,65.24,90.74,10.84,10.84,0,1,1,54.55,79.93Zm-19.8,53.16a12.23,12.23,0,0,1,12.39-12.42,12.09,12.09,0,0,1,12,12.43c0,7-5.19,12-12.33,12A11.82,11.82,0,0,1,34.75,133.09Zm27,53.12a14.27,14.27,0,0,1-14.09-13.93c0-7.39,6.55-14,13.86-13.88a13.91,13.91,0,0,1,.23,27.81Zm31.81,16.1a3.94,3.94,0,0,1-4-3.89,3.84,3.84,0,0,1,3.88-3.69,3.8,3.8,0,0,1,3.79,3.78A3.68,3.68,0,0,1,93.58,202.31Zm41.72,9.29a5.58,5.58,0,0,1-5.56-5.83c0-3.49,2.21-5.65,5.66-5.6a5.74,5.74,0,0,1,5.75,5.71A6,6,0,0,1,135.3,211.6Zm21.83-43.52c-1-.49-.52-1.7-.53-2.59,0-15.84-.07-31.68,0-47.52,0-2.46-.67-4-2.89-5.09-3.45-1.77-6.77-3.78-10.06-5.81-1.89-1.16-2.48-.83-2.47,1.41.05,13.51,0,27,0,40.54a37.67,37.67,0,0,0,0,5.42c.55,3.7-.91,5.88-4.28,7.45s-6.71,3.84-10.09,5.73c-2.4,1.34-2.75,1.13-2.75-1.68,0-15.58-.14-31.16.09-46.73,0-3.57-1.09-5.54-4.17-7s-5.7-3.2-8.53-4.84-2.73-1.56-2.73,1.49c0,15.66,0,31.33.05,47,0,2.45-.67,4-2.89,5.11-3.74,1.94-7.33,4.16-11,6.27-2.76,1.59-3,1.51-3-1.62,0-15.75-.09-31.51.07-47.26,0-2.93-.91-4.56-3.45-5.85-3.6-1.82-7-4-10.54-6-2.17-1.28-2.17-1.63-.1-2.84,3.87-2.25,7.78-4.43,11.58-6.78A4.5,4.5,0,0,1,95,96.82c3.7,2.36,7.61,4.37,11.36,6.66a3.84,3.84,0,0,0,4.51,0c3.67-2.24,7.51-4.22,11.14-6.52a4.29,4.29,0,0,1,5.18,0c3.72,2.32,7.62,4.35,11.37,6.63a3.38,3.38,0,0,0,4-.07c4-2.41,8.07-4.6,12-7a3.86,3.86,0,0,1,4.52,0Q165,100.2,171,103.49a4.11,4.11,0,0,1,2.36,4.14c-.09,8.17,0,16.35,0,24.53s-.05,16.35,0,24.53a3.86,3.86,0,0,1-2.28,3.89c-3.86,2.09-7.62,4.37-11.43,6.54C158.86,167.58,158.06,168.54,157.13,168.08Zm17.14,31.15a7.86,7.86,0,0,1-7.6-7.58,8.1,8.1,0,0,1,7.67-7.85c4-.1,7.63,3.57,7.67,7.77A7.79,7.79,0,0,1,174.27,199.23Zm15-120.57a5.3,5.3,0,0,1,4.89-4.77,4.66,4.66,0,0,1,4.45,4.73c0,3-1.72,4.84-4.53,4.8A4.91,4.91,0,0,1,189.26,78.66Zm11.81,91a9.63,9.63,0,0,1-9.66-9.42,9.72,9.72,0,0,1,9.72-9.63,9.45,9.45,0,0,1,9.4,9.57A9.32,9.32,0,0,1,201.07,169.63Zm7.55-40.54a10.91,10.91,0,0,1-11.25-11.23,11.12,11.12,0,0,1,11.09-11.51c6.37,0,11.76,5.22,11.72,11.36A11.39,11.39,0,0,1,208.62,129.09Z"/></svg>