<svg id="Layer_1" data-name="Layer 1" xmlns="http://www.w3.org/2000/svg" viewBox="0 0 250 250"><defs><style>.cls-1{fill:#a3abb0;}</style></defs><title>GUS</title><path class="cls-1" d="M141.13,158.47H56.34c-2.87,0-2.91.06-2.33,2.82a45.73,45.73,0,0,0,89.39,0C144,158.55,144,158.47,141.13,158.47Z"/><path class="cls-1" d="M194.26,105.92q-16.86.08-33.72,0c-1.89,0-2.45.68-2.42,2.48.08,5.59,0,11.18,0,16.76s0,11.31,0,17c0,1.52.39,2,2,1.75,17.07-2.81,32.95-18.56,36-35.71C196.48,106.36,196,105.92,194.26,105.92Z"/><path class="cls-1" d="M55.73,144.76c11.24,0,22.48,0,33.72,0,1.83,0,2.49-.58,2.46-2.44-.09-5.58,0-11.17,0-16.75s0-11.31,0-17c0-1.89-.64-2.47-2.41-1.89-.38.12-.79.14-1.18.25-18.5,5.17-30.06,17-34.53,35.76C53.34,144.66,54.34,144.76,55.73,144.76Z"/><path class="cls-1" d="M144.43,108.2c0-1.63-.53-2.28-2.22-2.28q-17.15.08-34.31,0c-1.77,0-2.35.66-2.33,2.38.07,5.65,0,11.3,0,17s0,11.44,0,17.16c0,1.73.56,2.38,2.33,2.37q17.16-.09,34.32,0c1.68,0,2.21-.63,2.21-2.26Q144.35,125.35,144.43,108.2Z"/><path class="cls-1" d="M125-.07a125,125,0,1,0,125,125A125,125,0,0,0,125-.07ZM192.27,141.8a56.43,56.43,0,0,1-31.86,15.82c-1.93.29-2.76,1.06-3,3a57.47,57.47,0,0,1-17.47,33.6,58.44,58.44,0,0,1-36,16.5,59.28,59.28,0,0,1-64-50.69c-2.59-18.71,2.77-35.17,15.64-49a57.05,57.05,0,0,1,34.13-18c2-.31,2.65-1.19,3-3a59.73,59.73,0,0,1,49.89-49.68,44.82,44.82,0,0,1,8.67-.57c16.86.11,31.31,6.17,43,18.28a57.11,57.11,0,0,1,16.13,34.89C212.19,112,205.87,128.37,192.27,141.8Z"/><path class="cls-1" d="M191.79,77.61A45.86,45.86,0,0,0,145.7,53.52c-19.09,2.13-35.52,17.29-39.21,36.15-.48,2.45-.43,2.53,2.05,2.53h42.6c14.33,0,28.67,0,43,0,1.76,0,2.43-.37,2-2.29A47,47,0,0,0,191.79,77.61Z"/></svg>