<svg id="Layer_1" data-name="Layer 1" xmlns="http://www.w3.org/2000/svg" viewBox="0 0 250 250"><defs><style>.cls-1{fill:#a3abb0;}</style></defs><title>HBT</title><path class="cls-1" d="M125,0A125,125,0,1,0,250,125,125,125,0,0,0,125,0ZM89,199.5c-.35,1.52-1.07,1.73-2.32.68a61.64,61.64,0,0,1-13.83-16.5c-4.51-7.88-7.65-18.49-7.42-28.06a54.12,54.12,0,0,1,4.38-22.68,55.13,55.13,0,0,1,10.09-15c4.47-4.88,9.35-9.34,14-14,8.26-8.26,15.18-17.47,19.12-28.64a100.09,100.09,0,0,0,6-28.06,71.29,71.29,0,0,0-.24-12c-.06-.52-.09-1,.45-1.33s1.05,0,1.46.4c8.91,8.63,17.42,17.56,22.84,28.94a81.48,81.48,0,0,1,6.43,20.45c1,5.35,1.82,10.68.82,16.14-1.18,6.46-4.31,11.93-8.25,17.06a128,128,0,0,1-14.74,15.61c-14,12.95-24.29,28.42-31.86,45.83A122.34,122.34,0,0,0,89,199.5Zm89.19-15.82a50.27,50.27,0,0,1-12,14.74,64.61,64.61,0,0,1-27,13.44c-7.41,1.79-14.93,1.62-22.45.58a91.56,91.56,0,0,1-10.12-2c-1.08-.28-1.37-.66-.76-1.71a3.81,3.81,0,0,1,2.87-2.17c4-.72,6.61-3.77,6.89-8.21.58-9.59,4.68-17.59,10.55-24.93A185.47,185.47,0,0,1,139.34,159c5.43-5.47,11-10.83,15.9-16.77A97.79,97.79,0,0,0,171.79,114a25.44,25.44,0,0,1,1.34-3c.84-1.58,1.83-1.6,2.71,0a56.27,56.27,0,0,1,4.64,11.17,101.73,101.73,0,0,1,4.72,29.69C185.23,163.77,183.28,174.1,178.15,183.68Z"/></svg>