<svg id="Layer_1" data-name="Layer 1" xmlns="http://www.w3.org/2000/svg" viewBox="0 0 250 250"><defs><style>.cls-1{fill:#a3abb0;}</style></defs><title>ICX</title><path class="cls-1" d="M125,0A125,125,0,1,0,250,125,125,125,0,0,0,125,0ZM62.42,203.58c-9.55,0-16.29-6.61-16.23-16a16.2,16.2,0,0,1,16-16.27c8.54,0,16.18,7.75,16.12,16.34C78.25,196.91,71.58,203.57,62.42,203.58Zm14.9-43.73c-2.35,2.55-3.94,1.88-5.5-.66A69.1,69.1,0,0,1,61.38,124c.13-30.14,21-56.9,50.76-63.23,16.48-3.5,32.46-.3,46.79,9.21,2.78,1.85,3.53,3.45.45,6.12a156.22,156.22,0,0,0-11.57,11.73c-1.89,2-3.6,2.31-6.17,1a37.58,37.58,0,0,0-43.85,7,39.81,39.81,0,0,0-7.92,44.82c1.48,3.23,1.34,5.43-1.29,7.87C84.66,152.09,80.94,155.93,77.32,159.85Zm102.11-4.48c-11.75,21.53-30.56,31.92-54.7,33.19-12.66.21-23.79-4-34.25-10.51-2.92-1.82-3.12-3.54-.76-5.93q5.81-5.85,11.44-11.86c2-2.19,4.16-2.23,6.76-.95,14.85,7.28,29,5.16,41.29-5.15,12.09-10.18,16.06-23.89,12.84-39.53a31.27,31.27,0,0,0-3.34-8.25c-1.14-2.16-.94-3.85.66-5.54,3.9-4.08,7.87-8.1,11.68-12.27,2.86-3.13,4.95-2.48,6.88.91C190.27,111.18,191.5,133.26,179.43,155.37Zm7.44-79.1c-8.56-.07-16.2-7.83-16.07-16.33.13-8.66,7.82-16,16.74-15.94,8.11-1.58,15.84,8.82,15.75,15.9A16.34,16.34,0,0,1,186.87,76.27Z"/></svg>