<svg id="Layer_1" data-name="Layer 1" xmlns="http://www.w3.org/2000/svg" viewBox="0 0 250 250"><defs><style>.cls-1{fill:#a3abb0;}</style></defs><title>IOS</title><path class="cls-1" d="M0,132.34V117.7c.05-.36.14-.71.16-1.08a105.83,105.83,0,0,1,1.55-13.05C6.8,75.73,19.44,51.9,40.47,32.92,69.22,7,103.13-3.47,141.55,1.12a119,119,0,0,1,41.6,13.26,125,125,0,0,1,66.68,104.67,113.66,113.66,0,0,1-2.24,30.07q-13.83,63.3-72.71,90.48a115.33,115.33,0,0,1-34.3,9.46c-2.78.34-5.57.58-8.35.87H117.59c-1.21-.12-2.41-.28-3.63-.38a116.24,116.24,0,0,1-28.34-5.84c-29-9.86-51.66-27.84-67.68-54a121.67,121.67,0,0,1-17-48.9C.53,138,.29,135.17,0,132.34ZM191.18,125q0-18.72,0-37.44a2.26,2.26,0,0,0-1.26-2.24q-31.86-18.7-63.69-37.48a2.3,2.3,0,0,0-2.67,0Q91.71,66.68,59.78,85.41a2.08,2.08,0,0,0-1.16,2q0,37.56,0,75.13a2.1,2.1,0,0,0,1.16,2q31.92,18.74,63.8,37.53a2.37,2.37,0,0,0,2.77,0q31.67-18.69,63.38-37.28a2.62,2.62,0,0,0,1.47-2.62C191.16,149.82,191.18,137.42,191.18,125Z"/><path class="cls-1" d="M75.34,136.72c0-2,0-4,0-6,0-1.35.22-1.47,1.4-.78l22.12,12.89c8.78,5.12,17.57,10.22,26.33,15.37a1.82,1.82,0,0,0,2.11,0q11-6.53,22.08-13c.8-.47.93-.72,0-1.24q-7.12-4.12-14.19-8.34a1.6,1.6,0,0,0-1.9,0c-1.38.87-2.8,1.65-4.19,2.5a1.56,1.56,0,0,1-1.81.07q-4.92-2.92-9.89-5.79c-.82-.47-.75-.81,0-1.24,1.34-.77,2.65-1.59,4-2.35.78-.44,1-.78,0-1.3-2-1.12-3.94-2.28-5.88-3.46a1.46,1.46,0,0,0-1.7,0c-1,.63-2,1.19-3,1.82a1.62,1.62,0,0,1-1.91,0q-4.82-2.88-9.69-5.66c-.85-.49-1-.87,0-1.39s1.81-1.09,2.74-1.59.79-.76,0-1.22c-2.92-1.7-5.82-3.42-8.73-5.13l-14.91-8.79c-1.22-.72-1.21-.82,0-1.55q23.39-13.76,46.76-27.53a1.92,1.92,0,0,1,2.23,0q22,12.84,44.06,25.62c1.15.67,1.15.82,0,1.49-3.38,2-6.79,4-10.16,6.05a2.12,2.12,0,0,1-2.46,0c-10.23-6-20.5-12-30.71-18a3.12,3.12,0,0,0-3.72,0c-7,4.19-14,8.27-21,12.4-1.23.72-1.23.79,0,1.52,3.67,2.17,7.37,4.31,11,6.51a1.86,1.86,0,0,0,2.23,0c1.64-1.05,3.36-2,5-3a1.47,1.47,0,0,1,1.7,0c3.22,1.9,6.46,3.77,9.68,5.67,1.07.63,1.07.82,0,1.45q-2.4,1.45-4.83,2.86c-.71.4-.78.72,0,1.16q3,1.73,6,3.52a1.46,1.46,0,0,0,1.69,0c1.32-.81,2.67-1.56,4-2.37a1.47,1.47,0,0,1,1.69,0q4.89,2.88,9.79,5.72c.89.51.91.91,0,1.41-1.17.66-2.29,1.4-3.47,2-.94.5-.9.82,0,1.34q10,5.85,20,11.75c2,1.19,4.07,2.38,6.1,3.59,1.39.82,1.39.94,0,1.76l-28.39,16.68c-6,3.52-12,7-18,10.59a2.39,2.39,0,0,1-2.78,0q-24.22-14.13-48.5-28.17a2.2,2.2,0,0,1-1.22-2.27c.08-1.86,0-3.73,0-5.6Z"/></svg>