<svg id="Layer_1" data-name="Layer 1" xmlns="http://www.w3.org/2000/svg" viewBox="0 0 250 250"><defs><style>.cls-1{fill:#a3abb0;}</style></defs><title>KNC</title><path class="cls-1" d="M125,0A125,125,0,1,0,250,125,125,125,0,0,0,125,0Zm4.43,42.18c1.24-5.55,3.78-6.54,8.41-3.16q20.81,15.17,41.54,30.41c1.52,1.11,3.09,2.17,3,4.39s-1.57,3-3.12,3.8q-19.89,11-39.8,22c-7.18,4-14.36,8-21.56,11.87-1,.58-2.23,1.81-3.37,1.06s-.26-2.31,0-3.43Q121.93,75.66,129.43,42.18ZM113.91,212.54c-1.68,1.09-3.11.26-4.42-.78q-11.08-8.82-22.14-17.68c-6-4.82-11.93-9.77-18-14.47a13.45,13.45,0,0,1-5.66-11.51c.11-13.68,0-27.35,0-41,0-13.43.07-26.86,0-40.29,0-5.33,1.61-9.45,6-12.87,13-10.18,25.81-20.66,38.69-31,1.68-1.35,3.45-2.79,5.69-1.45s1.79,3.55,1.36,5.69Q107.71,85,100.05,122.77a20.58,20.58,0,0,0,0,8.49q7.47,36.35,14.85,72.71c.27,1.34.53,2.69.79,4A4,4,0,0,1,113.91,212.54Zm65.49-30q-20.86,15.38-41.81,30.65a6.34,6.34,0,0,1-3.66,1.69c-3.1,0-3.86-2.23-4.41-4.64q-2.59-11.46-5.17-22.92-4.95-22.22-9.84-44.43c-.25-1.14-1.25-2.62,0-3.46s2.33.44,3.37,1q30.54,16.83,61,33.75C183.62,176.78,183.74,179.3,179.4,182.49Zm9-25.67c0,6.61-2.26,8-7.92,4.84q-30.76-17.21-61.47-34.5c-.94-.52-2.37-.75-2.41-2.06s1.4-1.6,2.33-2.12q31.19-17.58,62.41-35.12c4.3-2.42,7-1,7,4,.09,11.07,0,22.14,0,33.21C188.37,135.68,188.39,146.25,188.36,156.82Z"/></svg>