<svg id="Layer_1" data-name="Layer 1" xmlns="http://www.w3.org/2000/svg" viewBox="0 0 50 50"><defs><style>.cls-1{fill:none;}.cls-2{fill:#a2acb0;}</style></defs><title>LSK</title><rect class="cls-1" x="-16.37" y="-20.62" width="83.42" height="91.23"/><path class="cls-2" d="M25,0A25,25,0,1,0,50,25,25,25,0,0,0,25,0ZM22,39.89H19.38a.13.13,0,0,1-.09,0l-7.74-8.71a.12.12,0,0,1,0-.14l9.64-16.56a.13.13,0,0,1,.21,0l2.7,4.64a.13.13,0,0,1,0,.12L17.58,30.39c0,.05,0,.1,0,.14l3.89,4.37a.21.21,0,0,0,.1,0h4.6a.11.11,0,0,1,.09.19L22.1,39.82S22,39.87,22,39.89ZM38.57,31.1l-7.74,8.7a.2.2,0,0,1-.09.05H24.45a.11.11,0,0,1-.09-.19l4.2-4.74,3.94-4.41a.12.12,0,0,0,0-.14L25.06,17.56l-2.82-4.83a.13.13,0,0,1,0-.12L25,8a.09.09,0,0,1,.18,0L38.6,31A.15.15,0,0,1,38.57,31.1Z"/></svg>