<svg id="Layer_1" data-name="Layer 1" xmlns="http://www.w3.org/2000/svg" viewBox="0 0 250 250"><defs><style>.cls-1{fill:#a3abb0;}</style></defs><title>MAN</title><path class="cls-1" d="M0,131.33V118.64c.07-.4.18-.79.21-1.19a120.23,120.23,0,0,1,4.07-25,124.15,124.15,0,0,1,31-54.56A122.66,122.66,0,0,1,65.1,15.25,124.15,124.15,0,0,1,111.48.72c2.38-.26,4.77-.47,7.15-.71h12.69c2.34.23,4.69.45,7,.7a124.84,124.84,0,0,1,82.43,44,125,125,0,0,1-10.71,171.86A125,125,0,0,1,63.94,234.08,124.92,124.92,0,0,1,.7,138.48C.45,136.1.23,133.72,0,131.33Zm39.08-6.4a85.88,85.88,0,1,0,86-85.81A85.94,85.94,0,0,0,39.08,124.93Z"/><path class="cls-1" d="M125,45.86c19.68.28,37.09,6.64,51.92,19.64a77.93,77.93,0,0,1,26.28,48,70.83,70.83,0,0,1,.83,12.52c0,.34.17.84-.25,1s-.59-.35-.83-.61c-2.63-3-5.28-6-7.89-9a2.17,2.17,0,0,0-2.36-.82c-1.31.29-2.67.36-3.95.73-1.55.43-2.44-.1-3.32-1.38-2.73-4-5.61-7.79-8.37-11.72a2.9,2.9,0,0,0-2.73-1.43c-1.54.07-1.63-.16-1-1.6a29.18,29.18,0,0,0-6.09-32.8A28.83,28.83,0,0,0,148.65,60a29.2,29.2,0,0,0-11.72,56.7c.5.19,1.35.13,1.38.78s-.83.65-1.28,1c-1.92,1.4-3.8,1.28-6,.45a54.18,54.18,0,0,1-9.35-4.7,1.33,1.33,0,0,0-2.11.4c-2.56,3.32-5.21,6.56-7.77,9.88-.63.8-1.16,1-2,.44-1.76-1-3.58-1.93-5.33-3a3,3,0,0,0-2.43-.33c-3.89,1-7.79,2-11.69,3-1.71.44-1.79.39-2.31-1.31-2.12-7-4.27-13.92-6.34-20.91a2,2,0,0,0-2.24-1.65c-4.88.07-9.76.06-14.64,0a2.43,2.43,0,0,0-2.42,1.42q-5.76,10.2-11.59,20.36a3.86,3.86,0,0,1-4.35,1.27c-.65-.34-.51-1-.49-1.52a80.92,80.92,0,0,1,1.53-13.07,79.29,79.29,0,0,1,62.92-62A81.11,81.11,0,0,1,125,45.86ZM112.89,80.6c.25-10.59-8.6-19.74-19.38-20S73.66,69,73.17,79.24a19.88,19.88,0,1,0,39.72,1.36Z"/><path class="cls-1" d="M76.22,126.16c-1.94,5.62-3.82,11.07-5.71,16.53h-.36c-2.58-7.81-5.4-15.54-7.68-23.45-.68.13-.65.61-.76,1-2.8,8.24-5.6,16.48-8.33,24.75-.37,1.12-.91,1.64-2.08,1.51a10,10,0,0,0-1.34,0,1.18,1.18,0,0,1-1.32-1,84.49,84.49,0,0,1-2.41-13.56c-.06-.73.25-1,1-1.1a31.2,31.2,0,0,1,5.11-.19,2.54,2.54,0,0,0,2.62-1.5c3.67-6.53,7.44-13,11.08-19.53a3.12,3.12,0,0,1,3.34-2,50.26,50.26,0,0,0,5.49,0A1.62,1.62,0,0,1,76.64,109c2.26,7.52,4.56,15,6.84,22.53.54,1.78.53,1.79,2.38,1.31L101.11,129c1.09-.28,4.46,1,5,1.88.36.57-.11.92-.39,1.28q-3.53,4.45-7.06,8.89c-1,1.26-1,1.26.25,2.24,1.06.83,2.15,1.62,3.15,2.51.76.68,1.2.47,1.76-.25q8-10.12,16-20.21c.55-.71,1.15-1.38,1.66-2.11s.94-.66,1.64-.28c3.49,1.87,7.34,2.87,11,4.31.61.24,1.09-.07,1.61-.3a15.5,15.5,0,0,1,3.07-1.47c.17.68-.2,1.17-.36,1.69-1.55,5,0,8.29,4.77,10.32a24.36,24.36,0,0,0,5,1.46c4.08.74,6,3.1,6,7.26,0,3,0,6,0,9,0,1.15-.22,1.27-1.19.69a30.48,30.48,0,0,0-4.78-2.14c-2.72-1-5.19-2.38-6.6-5.1-.31-.59-.59-.45-.84,0-1.45,2.83-4,4.13-6.87,5.07-5,1.66-9.11,4.46-11.49,9.36a12.25,12.25,0,0,0-1.11,3.73c-.51,3.47.62,5.77,3.7,7.52a20.75,20.75,0,0,0,8,2.45,56.71,56.71,0,0,0,19.53-.67,15.2,15.2,0,0,0,5.45-2.35,6.67,6.67,0,0,0,3-5.82c0-3.58,0-7.16,0-10.74,0-2,0-2,1.88-1.51.83.21,1.67.35,2.51.52a6.35,6.35,0,0,1,5.2,6.21c0,2.24,0,4.48,0,6.71a7.76,7.76,0,0,0,.28,2.3,3.16,3.16,0,0,0,3.54,2.33,3.11,3.11,0,0,0,2.93-3c.08-2.16.12-4.32,0-6.47-.2-4.31,1.56-7.59,6.77-8.35a15.07,15.07,0,0,0,7.07-2.83,6.26,6.26,0,0,0,2.62-6.41c-1.08-6.54-5.2-10.45-11.1-12.8a17.12,17.12,0,0,1-2.65-1.21,6.41,6.41,0,0,1-3.1-4.39c-1.34-6-5.57-9.52-11.06-11.73-.49-.19-1-.33-1.5-.52-2.91-1.06-5.43-2.6-6.94-5.78-1.64,3.58-4.55,5.19-8.17,5.88.69-.8,1.37-1.61,2.1-2.39,2.36-2.52,4.75-5,7.09-7.56.7-.75,1.16-.67,1.73.11,1.56,2.14,3.18,4.22,4.72,6.37.66.94,1.22,1.13,2.13.31s2.14-1.77,3.24-2.6,1.88-.76,2.76.45c3.2,4.4,6.42,8.81,9.59,13.24a1.86,1.86,0,0,0,2.15.9c1.79-.37,3.6-.62,5.4-1a1.91,1.91,0,0,1,2,.74q5,5.7,10,11.33a2.42,2.42,0,0,1,.57,2.24,77.69,77.69,0,0,1-15.35,35A80,80,0,0,1,163,194.33a2.42,2.42,0,0,1-2.39.14,75,75,0,0,0-15.3-4.54c-12.39-2.55-24.79-5-37.19-7.55a27.84,27.84,0,0,1-4.23-1.16c-1.2-.44-1.27-.75-.38-1.69a49.17,49.17,0,0,1,8-6.41,32.25,32.25,0,0,0,5.59-4.7c4.21-4.57,3.57-10-1.62-13.39-3.58-2.32-7.62-3.44-11.72-4.37A140,140,0,0,0,85.27,148a1.94,1.94,0,0,1-1.88-1.54c-2.1-6.29-4.25-12.56-6.4-18.84A3,3,0,0,0,76.22,126.16Z"/><path class="cls-1" d="M152.45,199c-.28.48-.81.53-1.24.68a80.71,80.71,0,0,1-20.86,4.22,76.8,76.8,0,0,1-37.13-6.49C73.88,188.71,60.1,174.49,51.79,155c-.65-1.52-.53-1.69,1.1-1.68a40.67,40.67,0,0,1,7,.39,15.85,15.85,0,0,0,5.23-.07c1.34-.2,1.61,0,1.73,1.3a5.61,5.61,0,0,0,3.34,4.65,13.45,13.45,0,0,0,12.23.08,5.67,5.67,0,0,0,3.25-3.76c.21-.8.64-1,1.41-.92,7,.71,13.91,1.59,20.6,3.77a14.9,14.9,0,0,1,4.38,2.11,1.51,1.51,0,0,1,.39,2.4,13.81,13.81,0,0,1-3.48,3.21c-3.5,2.51-7.1,4.9-10.08,8.07a15,15,0,0,0-2.18,2.77c-2.08,3.65-1.08,7.2,2.61,9.2a25.91,25.91,0,0,0,7.26,2.44q18.83,3.9,37.64,7.79c2.39.5,4.74,1.14,7.11,1.74C151.75,198.56,152.2,198.55,152.45,199Z"/><path class="cls-1" d="M124.1,89.22a22.54,22.54,0,0,1,45-2,21.67,21.67,0,0,1-3,13.12c-.48.84-.86,1-1.47.11-1.12-1.6-2.3-3.15-3.47-4.71-.91-1.22-1-1.22-2-.15-4.69,5-9.39,10-14,15.07a2.13,2.13,0,0,1-2.13.76,22.47,22.47,0,0,1-18.85-20.7C124.18,90.19,124.13,89.7,124.1,89.22Z"/><path class="cls-1" d="M157.85,132.83a43.58,43.58,0,0,1-11.27-1.44c-2.17-.66-2.39-1.18-1.42-3.25a9.26,9.26,0,0,1,4.29-4.36,16.65,16.65,0,0,1,16.87.32,8.68,8.68,0,0,1,4.08,4.84c.44,1.33.24,1.75-1.07,2.22C165.56,132.5,161.61,132.64,157.85,132.83Z"/><path class="cls-1" d="M174.16,149.89a35.76,35.76,0,0,1-11.08-1.35c-2.1-.64-2.26-1.08-1.39-3.08a9.52,9.52,0,0,1,3.39-3.91,16.77,16.77,0,0,1,19,.55,8.7,8.7,0,0,1,2.8,3.76c.6,1.56.39,2-1.17,2.55a32.65,32.65,0,0,1-9,1.48C175.87,149.93,175,149.89,174.16,149.89Z"/><path class="cls-1" d="M141.24,170.4a35.5,35.5,0,0,1-11.09-1.26c-2.22-.67-2.44-1.23-1.44-3.35a9.69,9.69,0,0,1,5-4.66c5.75-2.64,11.35-2.39,16.7,1.07a8.19,8.19,0,0,1,3.49,4.41c.47,1.45.33,1.78-1.09,2.28a30.3,30.3,0,0,1-8.49,1.5C143.27,170.45,142.26,170.4,141.24,170.4Z"/><path class="cls-1" d="M76.71,147.3c.65,2,1.31,4,1.94,6,.13.42-.13.69-.55.79s-.63.14-1,.18c-2.65.29-3.06-.2-2.23-2.69.47-1.41,1-2.82,1.42-4.22Z"/><path class="cls-1" d="M62.17,146.7c-2.24,0-2.24,0-1.54-2.16.36-1.07.71-2.15,1.09-3.22.11-.31.1-.83.55-.83s.39.47.49.76c.43,1.26.88,2.52,1.27,3.79.48,1.53.37,1.65-1.25,1.66Z"/><path class="cls-1" d="M93,93.53a13.08,13.08,0,1,1,.11-26.15,13.3,13.3,0,0,1,13.09,13.1A13.11,13.11,0,0,1,93,93.53Z"/></svg>