<svg id="Layer_1" data-name="Layer 1" xmlns="http://www.w3.org/2000/svg" viewBox="0 0 250 250"><defs><style>.cls-1{fill:#a3abb0;}</style></defs><title>MTH</title><path class="cls-1" d="M124.47,0C193.39.2,250,54.78,249.86,125.41A124.35,124.35,0,0,1,125.55,250C55.4,250.39.28,194.32-.14,125.47S55.62.25,124.47,0ZM67.33,163c.45-.18.67-.2.75-.31Q82.45,142.86,96.81,123c.75-1,.42-1.66-.33-2.43-2.16-2.21-4.31-4.43-6.39-6.72a2.66,2.66,0,0,0-3.63-.67q-15.1,7.53-30.3,14.91c-1.48.72-1.75,1.46-1.14,3,2.94,7.43,5.77,14.9,8.64,22.35Q65.51,158.24,67.33,163Zm108.29,2h2.25c3.51,0,3.55-.06,1.86-3.12-2.28-4.14-4.61-8.24-6.92-12.37q-8.67-15.51-17.32-31c-.67-1.22-1.13-1.83-2.33-.4q-9.75,11.66-19.65,23.2c-1.46,1.7-1.07,2.38.75,3.35q17.06,9.07,34,18.36C170.74,164.29,173.17,165.41,175.62,165ZM151,59.85l-.55-.05q-9.9,20.36-19.82,40.72a12.41,12.41,0,0,0-1.23,5.71c.07,7.89,0,15.79.08,23.69,0,.8-.32,1.7.4,2.45a2.31,2.31,0,0,0,.66-.4Q140.28,120.51,150,109a4.79,4.79,0,0,0,.92-3.38c0-5.58,0-11.16,0-16.74Zm-30.11,73.22a1.51,1.51,0,0,0,.16-.56c0-8.32,0-16.65,0-25a4.8,4.8,0,0,0-1.3-3q-10.78-14-21.57-27.91c-.38-.49-.63-1.28-1.78-1-.85,9.15-1.68,18.37-2.58,27.58a5.34,5.34,0,0,0,1.73,4.58c6.14,6.23,12.19,12.57,18.34,18.8C116.08,128.83,118.49,130.88,120.86,133.07Zm-31,31.87h10.57a3.47,3.47,0,0,0,3-1.06q7.64-9.06,15.36-18.06a1.48,1.48,0,0,0-.12-2.39q-6.93-7.09-13.79-14.27c-1.12-1.17-1.8-.82-2.61.31Q90.17,146.33,78,163.11C76.8,164.71,77.56,165,79,165,82.65,164.93,86.26,164.94,89.87,164.94ZM159.66,57.32a5.8,5.8,0,0,0-.29,1c0,15.12,0,30.24-.05,45.35,0,1.78.73,2.31,2.38,2.57,8.56,1.34,17.1,2.81,25.66,4.22.89.15,2,.77,2.62-.14s-.41-1.58-.82-2.29Q178,88.78,166.79,69.52C164.48,65.54,162.15,61.57,159.66,57.32Zm30.5,106.35a7.22,7.22,0,0,0,.43-1.13c1.7-13.18,3.38-26.37,5.12-39.54.25-1.94-.45-2.86-2.35-3.17-9.31-1.51-18.62-3.08-27.93-4.61-.57-.09-1.32-.38-1.71.12-.52.68.22,1.27.52,1.83,2.57,4.66,5.17,9.3,7.76,14ZM48,135.88,23,164.52c.56.25.71.38.87.38,11.06,0,22.13,0,33.2,0,1.94,0,1.86-.92,1.33-2.29-2.17-5.59-4.3-11.21-6.46-16.81C50.68,142.67,49.43,139.49,48,135.88Zm155.45-5.32c-.28.44-.5.63-.52.85-1.36,10.62-2.68,21.24-4.06,31.86-.24,1.85,1,1.66,2.08,1.66,7.89,0,15.78,0,23.67,0,.64,0,1.52.33,1.88-.38s-.41-1.23-.78-1.77q-8.15-11.88-16.34-23.73C207.47,136.26,205.51,133.48,203.47,130.56Zm-49.81,34.25c-.19-.75-.76-.82-1.19-1.05q-10.18-5.49-20.38-11c-5.69-3.07-5.71-3.09-9.91,1.78-2.82,3.27-5.55,6.6-8.6,10.25ZM87.85,78.19l-.49-.09-24,36.78c7-2.93,13.67-6.17,20.31-9.38A2.9,2.9,0,0,0,85.47,103C86.23,94.71,87.05,86.45,87.85,78.19Z"/></svg>