<svg id="Layer_1" data-name="Layer 1" xmlns="http://www.w3.org/2000/svg" viewBox="0 0 250 250"><defs><style>.cls-1{fill:#a3abb0;}</style></defs><title>NAS</title><path class="cls-1" d="M249.53,114.8a122.76,122.76,0,0,0-24.72-64.94c-17.93-23.68-41.45-39-70.25-46.27A117,117,0,0,0,131.68.22c-.6,0-1.2-.14-1.8-.22h-9.76l-5.33.47A120.73,120.73,0,0,0,65.32,15.25Q19.21,40.89,4.57,91.68A116.65,116.65,0,0,0,.21,118.45c0,.56-.14,1.11-.21,1.67v9.77c.16,1.77.32,3.54.47,5.31A122,122,0,0,0,18,189.47Q42,228.8,85.69,243.6a120.37,120.37,0,0,0,49.3,5.94c30.06-2.59,56-14.36,77.57-35.44,18-17.58,29.46-38.85,34.74-63.45a118,118,0,0,0,2.5-19.46,11.33,11.33,0,0,1,.2-1.3v-9.77C249.84,118.35,249.68,116.57,249.53,114.8Zm-40,10.91L156,152.13c-3.39,1.67-6.77,3.36-10.18,5a7.54,7.54,0,0,0-4,4.64Q133.94,185,126,208.26c-.27.8-.58,1.59-1,2.67-.34-.63-.57-1-.77-1.43q-15.72-31.86-31.4-63.75a7.14,7.14,0,0,0-4.39-3.89q-23.1-7.77-46.17-15.62c-1-.34-2-.72-3.25-1.2l1.58-.82Q72.49,108.5,104.37,92.8A6.68,6.68,0,0,0,108,88.67Q115.85,65.33,123.78,42c.31-.92.67-1.82,1.12-3,.69,1.36,1.26,2.43,1.8,3.52Q142,73.44,157.23,104.38a6.71,6.71,0,0,0,4.16,3.63q20.94,7.11,41.85,14.28l7.71,2.63C210.32,125.27,209.94,125.51,209.54,125.71Z"/><path class="cls-1" d="M125.92,54.52c-9.09,26.82-18.08,53.33-27.15,80.1l53.6-26.46C143.57,90.31,134.82,72.58,125.92,54.52Z"/><path class="cls-1" d="M159.37,113.78a6.81,6.81,0,0,0-5.51.41q-25.44,12.6-50.92,25.12c-.35.17-.69.38-1.23.67.65.28,1.1.52,1.58.68,11.42,3.87,22.85,7.71,34.26,11.63a6.26,6.26,0,0,0,5.15-.35q25.34-12.52,50.7-25c.53-.26,1-.54,1.75-.92-.66-.28-1.13-.51-1.61-.67C182.15,121.47,170.75,117.65,159.37,113.78Z"/><path class="cls-1" d="M124,195.54l12.59-37.21L99.5,145.78Z"/><path class="cls-1" d="M54.59,124.11,91.71,136.7l12.61-37.17Z"/></svg>