<svg id="Layer_1" data-name="Layer 1" xmlns="http://www.w3.org/2000/svg" viewBox="0 0 250 250"><defs><style>.cls-1{fill:#a3abb0;}</style></defs><title>OCN</title><path class="cls-1" d="M125.25,21.17C68.86,20.66,21.18,67,20.66,124.6s46.08,105.27,104,105.55c58.72.28,105.48-47.71,105.09-105.27C229.36,67.12,181.65,20.71,125.25,21.17ZM109.16,177.08c1.77.54,2.32,1.35,2.28,3.12-.1,4.72-.08,9.44,0,14.16,0,1.75-.49,2.18-2.27,1.78a72.24,72.24,0,0,1-55.55-60.77c-3-23.21,3.82-43.37,19.86-60.26a70.19,70.19,0,0,1,35.45-20c2.41-.57,2.48-.49,2.49,2,0,2.37,0,4.73,0,7.09s-.09,4.59,0,6.88c.08,1.69-.55,2.43-2.2,3C89.41,80.91,76.74,94.46,72.35,115,66.62,141.87,82.93,169.07,109.16,177.08ZM180.61,172a70.37,70.37,0,0,1-38.1,23.84c-.59.15-1.2.22-1.78.4-1.27.4-1.74-.1-1.73-1.36,0-2.63,0-5.26,0-7.89h0c0-2.29.09-4.59,0-6.88-.1-1.71.55-2.42,2.19-3,17.17-5.7,29.14-17,35.05-34.11a53.73,53.73,0,0,0-34.77-68.81c-1.9-.6-2.54-1.45-2.49-3.39.13-4.59,0-9.18.05-13.76,0-2.39.09-2.48,2.39-2a71.25,71.25,0,0,1,30.45,15.28c13.37,11.41,21.78,25.81,24.61,43.19C200,135.35,194.63,154.92,180.61,172Z"/><path class="cls-1" d="M213.24,36.61A125,125,0,0,0,36.47,213.39,125,125,0,1,0,213.24,36.61Zm22.82,90.12c-.55,59.08-48.59,110.17-111.8,109.71C62.1,236,13.74,184.87,14.33,124.46c.6-60.83,50.77-110.16,111-109.63C185.58,14.37,236.64,64.34,236.06,126.73ZM70.05,16.2ZM20,63l.33-.56A6.32,6.32,0,0,1,20,63Z"/></svg>