<svg id="Layer_1" data-name="Layer 1" xmlns="http://www.w3.org/2000/svg" viewBox="0 0 250 250"><defs><style>.cls-1{fill:#a3abb0;}</style></defs><title>ONT</title><path class="cls-1" d="M250,109.93v30c-.75,3-1.69,6-2.23,9.05-9.53,53.64-59.12,97.7-113.49,100.8-54.84,3.13-102.84-26.62-124.7-77.28-26-60.36,3-134.27,63.05-161C84.72,6.12,97.43,3.23,110.11,0h30c3,.75,6,1.57,9,2.24q61.58,13.59,89.33,70.22C244.27,84.38,246.81,97.24,250,109.93Zm-65.15,69.22c-.57-21.48,2-42.58-1.14-63.35-6.36-42-54.91-61.88-89.47-37.23-6.59,4.7-6.69,5.53-1,11.19q42.8,42.81,85.62,85.59C180.25,176.76,181.36,178.7,184.85,179.15Zm-60,3a60.83,60.83,0,0,0,32.5-11.8c4.13-3,4.71-5.37.75-9.29q-43.87-43.5-87.45-87.3C69.48,72.6,68.38,70.5,66.75,71c-2.3.68-1.32,3.2-1.33,4.9-.07,16.44-.22,32.87,0,49.3C65.88,157.24,91.52,182.2,124.83,182.13Z"/></svg>