<svg id="Layer_1" data-name="Layer 1" xmlns="http://www.w3.org/2000/svg" viewBox="0 0 250 250"><defs><style>.cls-1{fill:#a3abb0;}</style></defs><title>PAX</title><path class="cls-1" d="M249.6,115.22c-4-53.19-41.28-98-92.76-110.87C111.8-6.9,71.63,3.71,37.89,35.73,17,55.53,5,80.29,1.34,108.93.89,112.46.45,116,0,119.52v10.72c.66,5.08,1.13,10.19,2,15.23,5.92,34.37,23.26,61.63,51.58,81.85,17.43,12.45,37,19.43,58.22,21.9,2.9.33,5.81.6,8.71.9h10.73c4.76-.65,9.55-1.15,14.27-2,40.19-7.22,70.13-28.84,89.82-64.51C247.08,162.33,251.43,139.29,249.6,115.22Zm-42.69,48.47c-4.75,2.86-9.94,5-14.91,7.46-14.83,7.45-27,18.37-39.15,29.44A137.12,137.12,0,0,1,141.39,210c-12.41,9.05-25.7,8.84-39.46,3.47A68.06,68.06,0,0,1,76,196.07a7.26,7.26,0,0,0-3.72-1.93c-8.86-1.87-17.57-4.14-25.35-9-11-6.84-16.52-16.67-16.28-29.67a57.9,57.9,0,0,1,5.2-24.14c6.71-14.86,10.31-30.52,13.27-46.42a118.4,118.4,0,0,1,3.62-14c4.7-14.86,14.65-21.23,29.89-22.87a14.74,14.74,0,0,1,2.2-.11c6.48.25,11.72-1.92,17.1-5.9,13.64-10.12,28.39-10,42.25-.56,13,8.87,27.35,12.94,42.48,15.4,5.07.83,10.16,1.61,15.19,2.65,10.52,2.17,17.34,10.92,17.88,22.61.36,7.88-1.22,15.42-3.42,22.91a6.74,6.74,0,0,0,.38,4.58c3.84,7.32,6.85,14.92,7.28,23.24C224.66,146.62,218.43,156.76,206.91,163.69Z"/><path class="cls-1" d="M168.47,106.14c-8.1-23.23-28.15-36.07-51.92-31.21C89.74,80.41,70,106.44,73.83,133.45a50.11,50.11,0,0,0,58.78,41.83c24-4.38,39.53-23.56,39.52-47.87A73.12,73.12,0,0,0,168.47,106.14Z"/></svg>