<svg id="Layer_1" data-name="Layer 1" xmlns="http://www.w3.org/2000/svg" viewBox="0 0 250 250"><defs><style>.cls-1{fill:#a3abb0;}</style></defs><title>SBD</title><path class="cls-1" d="M250,118.33v13.18a8.19,8.19,0,0,0-.2,1.08,108.27,108.27,0,0,1-1.47,12.95,124.39,124.39,0,0,1-33.44,66.31,119.88,119.88,0,0,1-23.25,18.86,124.24,124.24,0,0,1-61.39,19.13,122.17,122.17,0,0,1-37.56-4.18,124.45,124.45,0,0,1-54.7-31,122.46,122.46,0,0,1-22.65-29.8A124.49,124.49,0,0,1,.12,130.08a118.61,118.61,0,0,1,1.12-22.51A124.37,124.37,0,0,1,35.36,37.84,121.47,121.47,0,0,1,65.49,15,124.61,124.61,0,0,1,111.43.66c2.34-.26,4.68-.46,7-.69h13.18a10.18,10.18,0,0,0,1.08.19,111.14,111.14,0,0,1,15.84,2,124.46,124.46,0,0,1,63.59,33.1A120.73,120.73,0,0,1,230.5,57.8a124.39,124.39,0,0,1,18.8,53.51C249.56,113.65,249.77,116,250,118.33ZM125.33,49.6h0V49c-.06-1.34-.5-1.61-1.69-1a11.06,11.06,0,0,0-1,.63,48.32,48.32,0,0,0-6.09,4.87,71,71,0,0,0-14.61,17.86,22.38,22.38,0,0,0-2.94,14.54,75.67,75.67,0,0,0,3.46,13.45c4.27,12.27,9.94,24,15.5,35.67,3.76,7.93,7.49,15.88,11,23.91,3.74,8.44,4.92,17,2.73,26-1,4.19-2.26,8.32-3.46,12.45a13.55,13.55,0,0,0-.71,3.33c0,1.42.53,1.79,1.81,1.18a18.41,18.41,0,0,0,3.78-2.66,109.4,109.4,0,0,0,13-13.37,83.15,83.15,0,0,0,9.36-13.22c1.82-3.33,3.21-6.76,2.73-10.69a53.74,53.74,0,0,0-1.7-8.35c-2.76-9.53-6.75-18.57-10.83-27.57-5.34-11.77-11.2-23.31-16.45-35.12-1.83-4.13-3.74-8.24-4.59-12.71a64.78,64.78,0,0,1-.4-19.31C124.52,55.8,124.94,52.7,125.33,49.6ZM77.43,66.55c0-1.47,0-1.87-.42-2-.63-.22-1.08.21-1.57.49a5.54,5.54,0,0,0-.51.33A56,56,0,0,0,58.74,83.67a16.34,16.34,0,0,0-2.05,8.92,48.9,48.9,0,0,0,3.14,13.12c3.6,10.09,8.34,19.69,12.92,29.35,3.11,6.58,6.32,13.11,8.9,19.94a27.18,27.18,0,0,1,1.49,13.07c-.57,4.71-2,9.2-3.36,13.72a14,14,0,0,0-.55,2.62c-.1,1,.37,1.27,1.28.93a8.75,8.75,0,0,0,2.25-1.45,68.73,68.73,0,0,0,8.65-8.41,74.94,74.94,0,0,0,9.93-13.54,13.65,13.65,0,0,0,1.75-9.15,56.73,56.73,0,0,0-1.93-7.81c-2.88-8.83-6.83-17.23-10.75-25.63-3.82-8.18-7.83-16.26-11.4-24.56-2.6-6.05-3.09-12.32-2.66-18.76C76.57,72.74,77.11,69.49,77.43,66.55ZM180.3,165.48c-.07.85-.11,1.7-.21,2.55a71.24,71.24,0,0,1-2.93,12.32c-.36,1.17-.65,2.35-.95,3.54-.12.51-.25,1.09.27,1.46s1,0,1.46-.25a14.75,14.75,0,0,0,1.61-1.1,69.87,69.87,0,0,0,9.41-9.19,78.41,78.41,0,0,0,9.21-12.58,15,15,0,0,0,1.61-11.06c-1.63-7.48-4.62-14.47-7.66-21.44-4.63-10.58-9.75-20.94-14.68-31.38a44.17,44.17,0,0,1-3.93-24.8,63.09,63.09,0,0,0,.85-8c0-1.19-.4-1.4-1.42-.84a7.39,7.39,0,0,0-1,.66A56.49,56.49,0,0,0,156,83.11a16.66,16.66,0,0,0-2.39,8.72,39,39,0,0,0,2.17,10.85c3.31,10.29,8.07,20,12.66,29.71,3.3,7,6.76,13.9,9.59,21.1A26.7,26.7,0,0,1,180.3,165.48Z"/></svg>