<svg id="Layer_1" data-name="Layer 1" xmlns="http://www.w3.org/2000/svg" viewBox="0 0 50 50"><defs><style>.cls-1{fill:#a2acb0;}.cls-2{fill:#111316;}</style></defs><title>SC</title><circle class="cls-1" cx="25" cy="25" r="25"/><g id="Page-1"><g id="Sia-Logo"><path id="Fill-1" class="cls-2" d="M14.5,9.17l.7.88a17.89,17.89,0,1,1-5.15,5.15l-.88-.7A19,19,0,1,0,14.5,9.17Z"/><path id="Fill-4" class="cls-2" d="M13.82,12A1.86,1.86,0,1,1,12,10.1,1.86,1.86,0,0,1,13.82,12"/><path id="Fill-6" class="cls-2" d="M30.59,25v5.59H25A5.59,5.59,0,1,1,30.59,25m-5.52-9.31A9.31,9.31,0,1,0,25,34.31h9.31V25.12a9.38,9.38,0,0,0-9.24-9.43"/></g></g></svg>