<svg id="Layer_1" data-name="Layer 1" xmlns="http://www.w3.org/2000/svg" viewBox="0 0 250 250"><defs><style>.cls-1{fill:#a3abb0;}</style></defs><title>SNT</title><path class="cls-1" d="M138.09,250H111.47a20.53,20.53,0,0,0-2.4-.6C56.7,242.53,14.73,204.7,2.87,153.62c-1.15-5-1.92-10-2.87-15.05V112c.23-1.08.53-2.15.67-3.24C9.62,39.82,74-8.77,143,1.33c68.24,10,116.32,73.85,105.47,142.13-7.95,50-37.19,83.56-84.89,100.82C155.34,247.27,146.66,248.45,138.09,250ZM153.46,62a61.43,61.43,0,0,0-48.25,22.87A62.45,62.45,0,0,0,91.81,114c-.29,1.62-1.47,4.25,2.17,3.89,16.15-1.63,32,1.73,48,2.74,9.2.58,18.3-.15,27-3.53,12.34-4.8,18.85-15.1,18-27.89C186,75.09,178.56,66.29,165,63A51.6,51.6,0,0,0,153.46,62ZM95.73,188.54a57.71,57.71,0,0,0,33.09-9.3c15.52-9.86,25.07-23.93,28.83-41.91,1-4.57.72-4.79-3.76-4.52-11.94.71-23.76-.47-35.59-2-12.14-1.56-24.33-2-36.16,2.05C69,137.34,61.94,147.67,62.62,161,63.37,175.31,71,184.34,85,187.64A52.25,52.25,0,0,0,95.73,188.54Z"/></svg>