<svg id="Layer_1" data-name="Layer 1" xmlns="http://www.w3.org/2000/svg" viewBox="0 0 250 250"><defs><style>.cls-1{fill:#a3abb0;}</style></defs><title>THT</title><path class="cls-1" d="M152.1,67.44q-26.82.18-53.65,0c-2.88,0-3.62,1-3.62,3.77q.14,53.66,0,107.31c0,3.15,1,4.07,4.07,4,17.51-.13,35-.17,52.52,0,3.53,0,4.11-1.22,4.09-4.36-.14-17.76-.07-35.52-.07-53.28h0c0-17.88,0-35.77,0-53.65C155.57,68.67,155.13,67.42,152.1,67.44Zm-5,78.65c-3,0-5.5,0-8,0-7.67.11-6.61-1.08-6.7,6.91,0,2.5,0,5,0,8.1-4.3,0-8.27.11-12.22-.1-.67,0-1.71-1.32-1.83-2.14a40.84,40.84,0,0,1-.11-5.65c-.08-8.34.91-7-7.31-7.12-2.36,0-4.73,0-7.63,0,0-4.36-.1-8.34.1-12.31a2.85,2.85,0,0,1,2.1-1.82q19.65-.16,39.29,0a3.12,3.12,0,0,1,2.18,2.12C147.22,137.84,147.1,141.61,147.1,146.09Zm-.1-29.41a3.44,3.44,0,0,1-2.41,2.34q-19.43.23-38.85,0c-.82,0-1.63-1.57-2.43-2.43-.06-.07,0-.24,0-.37-.69-11.23-.69-11.35,10.56-11.26,3.42,0,5-.93,4.44-4.44a3.14,3.14,0,0,1,0-.75q.36-4.62.71-9.23c3.88-.12,7.75-.35,11.62-.26.61,0,1.57,1.39,1.7,2.25a35.42,35.42,0,0,1,.09,5.26c0,7.09,0,7.09,7.29,7.09h7.41C147.12,109.19,147.27,113,147,116.68Z"/><path class="cls-1" d="M125.11,0a125,125,0,1,0,125,125A125,125,0,0,0,125.11,0Zm44.55,186.21c0,5.1-5.37,10.48-10.47,10.48H91.51c-5.28,0-10.81-5.43-10.81-10.59q0-60.69,0-121.37c0-5.92,5.46-11.4,11.29-11.4q33.46,0,66.93,0c5.23,0,10.64,5.49,10.64,10.77V125h0Q169.66,155.58,169.66,186.21Z"/></svg>