<svg id="Layer_1" data-name="Layer 1" xmlns="http://www.w3.org/2000/svg" viewBox="0 0 250 250"><defs><style>.cls-1{fill:#a3abb0;}</style></defs><title>TUS</title><path class="cls-1" d="M18.54,182.28c9.53,6.82,18.7,14,28.65,20.1,18.32,11.23,37.71,19.45,59.45,20.75,29.87,1.78,54.79-10,76.81-29,10.92-9.4,20.51-20,26.49-33.43,10.5-23.56,7.85-46.79-1.66-69.86a161.7,161.7,0,0,0-15.93-28.76,17,17,0,0,1-2.69-5.6C197.08,59.22,203.1,64,209,68.82c23.32,19.15,35,44.09,35.18,74.06.17,24-8.25,45.26-24.27,63.16-26.3,29.39-58.92,44.81-98.8,43.08a160.7,160.7,0,0,1-50.68-10.19C56,233.39,44.78,223.35,35.32,211.3A107.47,107.47,0,0,1,18.54,182.28Z"/><path class="cls-1" d="M228.83,58.76c-9.47-6.47-18.73-13-28.53-18.7C159,15.85,113.55,18.22,75.11,46.79,61.35,57,49.24,68.58,42.44,84.8c-9.69,23.14-6.28,45.93,1.78,68.56a185.38,185.38,0,0,0,13.7,29.29c.7,1.24,2.16,2.59,1,4s-2.8.23-4.13-.2c-13.77-4.5-25.45-12.41-32.41-25C2.4,125.11-.9,88,22.72,52.1,40.71,24.76,66.37,8,99.39,3.3,117.16.78,134.94-.32,152.74,2.08c18,2.43,33.7,10.52,47.29,22.33C211.4,34.29,221.52,45.38,228.83,58.76Z"/><path class="cls-1" d="M132.34,71.5c12.64,0,25.29,0,37.93,0,5.9,0,6.84,1.45,5.24,7.18-3.24,11.64-12.71,18.67-26.31,19.4a83.28,83.28,0,0,1-9.48,0c-4.36-.26-5.89,1.66-5.85,5.94q.19,24.54,0,49.09a29.84,29.84,0,0,1-24.23,29.38c-4.61.95-6.09-.53-5.79-5.11,1.61-24.82,3-49.67,4.68-74.49.28-4.06-1.4-4.81-4.74-4.79q-15.06.07-30.12,0c-6.5-.05-7.25-1.09-5.65-7.26C71,79.37,81.33,72,95,71.51h37.38Z"/></svg>