<svg id="Layer_1" data-name="Layer 1" xmlns="http://www.w3.org/2000/svg" viewBox="0 0 250 250"><defs><style>.cls-1{fill:#a3abb0;}</style></defs><title>USDC</title><path class="cls-1" d="M125.17,0C194.28.5,250.76,55.84,250,126.64,249.26,194.55,194.22,251,123,250A124.45,124.45,0,0,1,0,122.85C1.05,55.18,55.64.46,125.17,0Zm8.07,72.6h-.14V67.69c-.07-2.83-1.41-4.24-4.19-4.29q-3.93-.06-7.86,0c-2.77.05-4.12,1.47-4.15,4.32,0,3-.07,6,0,9.08,0,1.74-.42,2.54-2.35,2.94-15.43,3.13-23.4,12.93-23.2,28.58.11,8.4,3.84,15,11.49,18.54,5.28,2.42,11.1,3.73,16.75,5.24,5.2,1.39,10.54,2.22,15.72,3.64A9.22,9.22,0,0,1,141.5,141a12.9,12.9,0,0,1-4.27,15.55c-4.34,3.07-9.21,3.67-14.45,3.31-8.67-.6-14.58-4.29-16.52-13.19a4.41,4.41,0,0,0-4.63-3.63c-2.78-.05-5.57-.1-8.35,0-3.06.13-5.1,2.43-4.22,5.27,1.28,4.1,2.6,8.33,4.81,12,4.65,7.64,12.33,10.94,20.79,12.53,1.8.33,2.3,1,2.25,2.7-.09,3.11,0,6.22,0,9.33,0,2.88,1.38,4.49,4.22,4.67a62.33,62.33,0,0,0,7.61,0c3-.17,4.36-1.77,4.38-4.78s.08-6.06,0-9.08c-.07-1.77.47-2.59,2.32-3A32.31,32.31,0,0,0,151,164.93c6.69-6.14,9.2-13.83,8.64-22.77-.48-7.76-3.33-14.1-10.11-18.3-6.27-3.87-13.35-5.12-20.44-6.45a137.39,137.39,0,0,1-14.5-3.38c-4.46-1.34-6.44-5-6.5-9.42-.05-4,1.35-7.6,5.1-9.41a25,25,0,0,1,8.37-2.38c9.56-.88,16.18,2.21,18.48,10.3.6,2.11,2.19,3.11,4.49,3,2.53-.09,5.07,0,7.61,0,3.4,0,5-2.18,4.22-5.51q-3.45-14.37-17.34-19.41c-2-.71-4.67-1-5.59-2.37S133.24,74.72,133.24,72.6Zm86.33,51c-.32-2.88-.57-8.71-1.67-14.38C212.61,82,198.22,60.77,174.68,46.12c-6.26-3.9-13.33-6.56-20.18-9.43-4-1.67-6.43.34-6.56,4.72,0,1.06,0,2.12,0,3.19,0,6.47.63,7.34,6.63,9.83C188.62,68.54,208,104,201.74,139.18c-4.86,27.2-20.34,46.73-45.46,58.34-7.6,3.51-8.56,2.52-8.36,13.08.09,5.35,2.25,7,7.31,5.26C192.74,203.25,219.28,168.15,219.57,123.57ZM30.43,127.51c.12,2,.16,5.41.54,8.73a93.45,93.45,0,0,0,12.49,37.91q18.33,30.61,52.2,42c3.83,1.27,6.24-.49,6.39-4.53,0-1.39,0-2.79,0-4.18,0-5.5-.86-6.85-5.9-8.84-31-12.25-51.93-44.61-48.7-78.93a78,78,0,0,1,49.78-66c2.51-1,4.37-2.49,4.62-5.18a43.82,43.82,0,0,0,0-8.57c-.3-3-2.5-4.29-5.47-3.58a24.22,24.22,0,0,0-2.34.71C56.82,50,30.72,84.85,30.43,127.51Z"/></svg>