<svg id="Layer_1" data-name="Layer 1" xmlns="http://www.w3.org/2000/svg" viewBox="0 0 250 250"><defs><style>.cls-1{fill:#a3abb0;}</style></defs><title>VET</title><path class="cls-1" d="M125.11,0C56.34-.08-.1,56.34,0,125.1S56.14,249.89,125,250,249.83,194.09,250,125.25,194.06.14,125.11,0Zm84.37,67.36q-34,69.36-68.07,138.72c-2.63,5.37-6.18,9.22-13.22,9.35A11.94,11.94,0,0,1,118.4,210a45.9,45.9,0,0,1-2.92-5.21Q80.14,132.76,44.86,60.69c-1.89-3.86-.53-6,3.86-6,7.25,0,14.5.06,21.74-.11,3-.07,4.78,1.06,6.13,3.79q22.8,46.3,45.76,92.53c1.86,3.76,3.85,7.47,5.55,11.3,2.5,5.64,6.43,9.5,12.81,9.54,6.54,0,10.34-4,13.1-9.64q24.1-49.17,48.41-98.24c1-2.06,2-4.15,3.09-6.19a5.85,5.85,0,0,1,7.21-2.89c2,.73,2,2.29,1.23,3.87C212.38,61.57,210.92,64.47,209.48,67.39Z"/></svg>