<svg id="Layer_1" data-name="Layer 1" xmlns="http://www.w3.org/2000/svg" viewBox="0 0 250 250"><defs><style>.cls-1{fill:#a3abb0;}</style></defs><title>WTC</title><path class="cls-1" d="M124.85,0a125,125,0,1,0,125,125A125,125,0,0,0,124.85,0ZM64.56,113.74c0,12.16,0,24.33,0,36.5,0,4.11,0,4-4.11,5-4.38,1-8.71,2.24-13.08,3.29-5.72,1.38-8.9-1.12-8.9-6.95q0-16.09,0-32.19,0-15.95,0-31.9c0-4.45,1.42-6.32,5.64-7.37Q57.06,76.88,70,73.73c6.37-1.54,9.53,1,9.56,7.54,0,5,0,10,0,15,0,4.25,0,4.3-4.22,5.26-2.36.54-4.67,1.09-6.6,2.65C65.72,106.6,64.54,109.85,64.56,113.74Zm38.3,65.45c-8.29,1.92-16.54,4.07-24.84,6-5.39,1.23-8.33-1.29-8.35-7.07,0-15.81,0-31.62,0-47.43,0-5.37-.05-10.73,0-16.1,0-4.53,1.81-6.62,6.19-7.7q8.93-2.19,17.83-4.43c3.33-.83,3.62-.63,3.62,2.83q0,11.92,0,23.86c0,7.66.21,15.34-.07,23-.21,5.49,4.35,11.92,11,12.11,1.69,0,2.43.83,2.38,2.49,0,1,0,1.92,0,2.87C110.56,176.22,109.28,177.7,102.86,179.19Zm27.77-65.58c.09,12.16,0,24.32.08,36.48,0,2.78-.79,4.11-3.63,4.68-5.62,1.13-11.15,2.72-16.74,3.95-4.2.93-7.43-1.69-7.44-6q-.06-33.17,0-66.34a5.77,5.77,0,0,1,4.73-6c9.36-2.38,18.73-4.71,28.13-6.91,4.64-1.08,7.79,1.51,8.18,6.36,0,.19,0,.39,0,.58v8.9h0c0,3-.1,5.94,0,8.9a2.9,2.9,0,0,1-2.66,3.39,13.92,13.92,0,0,0-5.88,2.17A11.52,11.52,0,0,0,130.63,113.61Zm36.67,66c-7.51,1.49-14.87,3.66-22.32,5.45-6,1.45-9.2-1.07-9.22-7.34,0-10.54,0-21.08,0-31.61q0-15.24,0-30.47c0-5.87,1.75-7.8,7.42-9s11.55-2.75,17.29-4.26c2.31-.6,3.05,0,3,2.42-.08,15.43,0,30.85,0,46.27,0,8.15,3.19,11.93,11.2,13.22,1.25.2,1.93.71,1.94,2,0,.19,0,.38,0,.58C176.47,174.27,178.53,177.38,167.3,179.6ZM210,144.72c0,4.09-1.7,6.17-5.66,7.18-8.9,2.27-17.8,4.52-26.74,6.63-5.64,1.33-8.64-1.18-8.65-6.95q0-16.1,0-32.19t0-32.18c0-4.16,1.32-6,5.32-7q13.63-3.44,27.32-6.67c5-1.18,8.38,1.35,8.4,6.56Q210.14,112.4,210,144.72Z"/></svg>