<svg id="Layer_1" data-name="Layer 1" xmlns="http://www.w3.org/2000/svg" viewBox="0 0 250 250"><defs><style>.cls-1{fill:#a3abb0;}</style></defs><title>ZRX</title><path class="cls-1" d="M82.83,192.72c-4.11-3.52-8.3-6.84-12.17-10.5-6.28-5.93-11.9-12.43-15.93-20.17-.63-1.2-.67-2,.42-3,2.72-2.54,5.28-5.24,7.92-7.86L78,136.41,21.38,55.54c-.2.12-.34.16-.41.26-.35.47-.69,1-1,1.45C3,84-3.22,113,1.55,144.23c4.54,29.68,18.45,54.4,40.7,74.5,1.2,1.08,2,1.12,3.27.18,7.16-5.12,14.4-10.13,21.61-15.18Z"/><path class="cls-1" d="M194.52,163.56c-4.56,7.95-10.64,14.64-17.34,20.8a69.5,69.5,0,0,1-15.33,11.08,1.93,1.93,0,0,1-2.69-.45c-2.8-2.92-5.71-5.73-8.56-8.6q-5.55-5.61-11.1-11.27L59.32,231.26c54.92,34.41,127.26,19.43,163.41-28.68Q208.92,182.86,195,163A4.59,4.59,0,0,0,194.52,163.56Z"/><path class="cls-1" d="M67.43,71c5.93-6.2,12.34-11.8,19.89-16,1.71-1,2.76-.84,4.16.59,5.86,6,11.86,11.94,17.81,17.89.45.44.93.85,1.44,1.31l79.93-56C169.33,4.85,138.24-3.6,105.81,1.5,77,6,52.85,19.24,32.89,40.47L60.08,79.31C62.59,76.47,64.92,73.66,67.43,71Z"/><path class="cls-1" d="M206,30.15l-38.61,27c5.35,4.89,10.74,9.52,15.78,14.51a64.63,64.63,0,0,1,12.2,16.42,2,2,0,0,1-.47,2.85c-3,2.87-5.93,5.87-8.88,8.82l-7.81,7.76,55.42,79.14C264.39,133.28,249.88,65.61,206,30.15Z"/></svg>