<svg enable-background="new 0 0 839 212" viewBox="0 0 839 212" xmlns="http://www.w3.org/2000/svg"><path d="m0 0h785v212h-785z" fill="none"/><circle cx="63.9" cy="64.8" fill="#3075ee" r="63.9"/><circle cx="159.2" cy="163.1" fill="#205fec" r="48.7"/><circle cx="182.5" cy="60.4" fill="#5795f1" r="42.2"/><circle cx="63.9" cy="173.3" fill="#88bdf3" r="31.2"/><path d="m353.3 109.2c0 6.9-1.1 13.9-3.4 20.4-2.2 6.2-5.6 11.9-9.9 16.7-4.5 4.9-9.9 8.8-16 11.4-14 5.6-29.6 5.6-43.5 0-6.1-2.6-11.6-6.5-16.1-11.4-4.4-4.8-7.8-10.5-9.9-16.7-4.5-13.2-4.5-27.5 0-40.7 2.1-6.2 5.5-11.9 9.9-16.8 4.5-4.9 10-8.8 16.1-11.4 14-5.6 29.6-5.6 43.5 0 6.1 2.6 11.6 6.5 16 11.4s7.8 10.6 9.9 16.8c2.3 6.6 3.5 13.4 3.4 20.3zm-51.1 35.9c4.5.1 9-.9 13.1-2.8 3.6-1.8 6.8-4.4 9.3-7.6 2.6-3.4 4.5-7.3 5.6-11.4 2.4-9.3 2.4-19.1 0-28.4-1.1-4.1-3-8-5.6-11.4-2.5-3.2-5.7-5.8-9.3-7.6-8.3-3.7-17.8-3.7-26.1 0-3.6 1.8-6.8 4.4-9.3 7.6-2.6 3.4-4.5 7.3-5.6 11.4-2.4 9.3-2.4 19.1 0 28.4 1.1 4.1 3 8 5.6 11.4 2.5 3.2 5.7 5.8 9.3 7.6 4 2 8.5 2.9 13 2.8zm64.6 15v-101.7h21.4v48.9l35.3-48.9h24.8l-37.4 50.3 40 51.5h-26.5l-36.2-50v50h-21.4zm136.8-103.6c2.5 0 5.1.1 7.8.4 2.6.3 5.2.6 7.7 1.1s4.9 1 7.2 1.7c2.1.6 4.2 1.4 6.2 2.3l-3.1 15.6c-3.5-1.3-7.2-2.3-10.9-3-3.9-.8-7.8-1.2-11.8-1.2-11.6 0-20.5 3-26.7 9.1-6.2 6-9.2 14.9-9.2 26.7s3.1 20.7 9.2 26.7c6.2 6 15.1 9.1 26.7 9.1 3.9 0 7.9-.4 11.8-1.1 3.7-.7 7.3-1.7 10.9-3l3.1 15.6c-2 1-4.1 1.8-6.2 2.3-2.3.7-4.7 1.2-7.2 1.7s-5.1.8-7.7 1.1c-2.6.2-5.2.4-7.8.4-7.9.1-15.8-1.2-23.2-4-6.4-2.4-12.2-6.2-17-11-4.6-4.7-8.2-10.4-10.4-16.7-2.4-6.8-3.6-13.9-3.5-21.1-.1-7.2 1.1-14.3 3.5-21.1 2.2-6.2 5.8-11.9 10.4-16.7 4.8-4.8 10.6-8.6 17-11 7.4-2.7 15.2-4 23.2-3.9zm138.1 52.7c0 6.9-1.1 13.9-3.4 20.4-2.2 6.2-5.6 11.9-9.9 16.7-4.5 4.9-9.9 8.8-16 11.4-14 5.6-29.6 5.6-43.5 0-6.1-2.6-11.6-6.5-16.1-11.4-4.4-4.8-7.8-10.5-9.9-16.7-4.5-13.2-4.5-27.5 0-40.7 2.1-6.2 5.5-11.9 9.9-16.8 4.5-4.9 10-8.8 16.1-11.4 14-5.6 29.6-5.6 43.5 0 6.1 2.6 11.6 6.5 16 11.4s7.8 10.6 9.9 16.8c2.3 6.6 3.4 13.4 3.4 20.3zm-51.2 35.9c4.5.1 9-.9 13.1-2.8 3.6-1.8 6.8-4.4 9.3-7.6 2.6-3.4 4.5-7.3 5.6-11.4 2.4-9.3 2.4-19.1 0-28.4-1.1-4.1-3-8-5.6-11.4-2.5-3.2-5.7-5.8-9.3-7.6-8.3-3.7-17.8-3.7-26.1 0-3.6 1.8-6.8 4.4-9.3 7.6-2.6 3.4-4.5 7.3-5.6 11.4-2.4 9.3-2.4 19.1 0 28.4 1.1 4.1 3 8 5.6 11.3 2.5 3.2 5.7 5.8 9.3 7.6 4 2.1 8.5 3 13 2.9zm86.8 15h-21.4v-101.7h21.4zm87.1 0-47.5-66.6v66.6h-20.5v-101.7h20.5l47.5 66.6v-66.6h20.5v101.8h-20.5z" fill="#fff"/><path d="m835 46h4v120h-4z" fill-opacity=".2"/></svg>