<?xml version="1.0" encoding="utf-8"?>
<!-- Generator: Adobe Illustrator 24.2.0, SVG Export Plug-In . SVG Version: 6.00 Build 0)  -->
<svg version="1.1" id="Warstwa_1" xmlns="http://www.w3.org/2000/svg" xmlns:xlink="http://www.w3.org/1999/xlink" x="0px" y="0px"
	 viewBox="0 0 1000 172.2" style="enable-background:new 0 0 1000 172.2;" xml:space="preserve">
<style type="text/css">
	.st0{fill:#FFFFFF;}
</style>
<g>
	<path class="st0" d="M141.8,83.9c0-23.1-12.1-44.7-31.7-56.8l6.2-7.2l-3-1.6c-25.5-13.7-57.5-9-78,11.5
		C23.7,41.4,16.8,56.8,16,73.4v35.9l115.6,37.5v9.6H30.9v-27.6h-5.4v27.6H16v5.4h121.1v-18.9l-14-4.6v-8.1
		C135.1,117.7,141.8,101.3,141.8,83.9z M117.7,136.5l-96.2-31.2l0-31.8c0.7-15.1,7-29.3,17.7-40c18-18,45.7-22.7,68.6-12.1
		L79.5,54.3c-1.8-0.4-3.6-0.7-5.5-0.7c-12.9,0-23.4,10.5-23.4,23.4c0,12.9,10.5,23.4,23.4,23.4c3.4,0,6.6-0.8,9.6-2.1l34.1,32V136.5
		z M81.7,77c0,4.3-3.5,7.8-7.8,7.8c-4.3,0-7.8-3.5-7.8-7.8s3.5-7.8,7.8-7.8C78.3,69.2,81.7,72.7,81.7,77z M120.3,125.3l-31.9-30
		c5.5-4.3,9-10.9,9-18.4c0-9-5.1-16.7-12.5-20.7l21.6-25.1c18.5,11,29.9,31.2,29.9,52.7C136.4,99.4,130.7,114,120.3,125.3z"/>
	<path class="st0" d="M237.5,61.3c9.6,0.2,19.1,1.2,28.5,3l2.4-19.1c-10.4-2.6-21-3.9-31.7-3.9c-29.1,0-41.5,12.4-41.5,33.8v52.5
		c0,21.4,12.4,33.8,41.5,33.8c10.7,0,21.3-1.3,31.7-3.9l-2.4-19.1c-9.4,1.8-19,2.8-28.5,3c-15.2,0-20.1-5.3-20.1-17.7V79
		C217.4,66.6,222.3,61.3,237.5,61.3z"/>
	<path class="st0" d="M321.9,72.7c-29.2,0-37.1,16.1-37.1,33.6v21.5c0,17.5,7.9,33.6,37.1,33.6c29.2,0,37.1-16.1,37.1-33.6v-21.5
		C359,88.8,351.1,72.7,321.9,72.7z M337.6,128.5c0,9.6-4.4,14.7-15.8,14.7c-11.4,0-15.8-5.1-15.8-14.7v-22.9
		c0-9.6,4.4-14.7,15.8-14.7c11.4,0,15.8,5.1,15.8,14.7V128.5z"/>
	<rect x="379.7" y="74.4" class="st0" width="21.4" height="85.2"/>
	<rect x="379.7" y="37.7" class="st0" width="21.4" height="24.7"/>
	<path class="st0" d="M478,72.7c-11.9,0.6-23.5,3.6-34.1,8.9l-2.1-7.2h-16.3v85.2h21.4v-59.2c7.7-4,17-7.2,22.2-7.2
		c4.9,0,6.8,2.3,6.8,6.8v59.5h21.4V97.9C497.3,82.7,492.2,72.7,478,72.7z"/>
	<path class="st0" d="M558.3,96.7c-24.5-6.1-25-7-25-25.9c0-14.5,3.2-20.1,26.3-20.1c9.6,0.2,19.2,1.4,28.5,3.5l1.2-8.7
		c-9.8-2.6-19.9-4-30.1-4c-29.2,0-36.2,10-36.2,29.1c0,23.5,3.2,28.5,31.3,35c25.9,6,26.1,7.9,26.1,25.9c0,14.9-5.4,20.8-25.4,20.8
		c-10.6-0.1-21.2-1.6-31.3-4.7l-1.9,8.4c10.6,3.7,21.7,5.6,32.9,5.6c29.6,0,36.1-11.6,36.1-30.6C590.6,108.7,588.9,104.4,558.3,96.7
		z"/>
	<path class="st0" d="M662.9,72.7c-10.2,0-25,4.9-34.1,9.3V38.2l-10.1,1.4v120.1h10.1V91.9c10.7-5.6,25.7-9.8,32.7-9.8
		c6,0,9.3,2.3,9.3,8.6v69H681V91.9C681,80.2,676.2,72.7,662.9,72.7z"/>
	<path class="st0" d="M735.9,72.7c-8.9,0-17.7,1.2-26.3,3.3l1.6,8.6c8.3-1.7,16.7-2.7,25.2-2.8c14,0,20.1,3.9,20.1,15.6V114h-25.2
		c-16.8,0-25,5.6-25,23.6c0,15.2,7,23.8,22.1,23.8c10.2,0,20.2-2.9,28.9-8.4l0.7,6.7h8.8V97.4C766.7,81.4,758,72.7,735.9,72.7z
		 M756.6,143.6c-7.7,5.4-16.7,8.4-26.1,8.8c-11.9,0-14-4.6-14-14.5c0-11.2,3.5-14.7,15.2-14.7h24.9V143.6z"/>
	<path class="st0" d="M804.4,87.4l-0.5-12.9h-9.1v85.2h10.1V98.4c8.5-6,17.6-11.3,27-15.8l-1.2-10C822.6,75.7,813.5,81.4,804.4,87.4
		z"/>
	<path class="st0" d="M876.8,72.7c-24,0-31.9,13.5-31.9,31v26.8c0,18.6,7.7,31,31.7,31c10,0,19.9-1.6,29.4-4.7l-1.8-8.2
		c-8.8,2.5-17.8,3.8-27,4c-17,0-22.2-6.5-22.2-21.7v-10.7h52.7v-16.5C907.8,86.2,900.8,72.7,876.8,72.7z M897.8,111h-42.7v-7.7
		c0-14.4,5.8-21.9,21.7-21.9c15.9,0,21,7.5,21,21.9V111z"/>
	<path class="st0" d="M957.5,111.9c-15.8-4-16.4-5.3-16.4-17c0-9.3,2.1-13.1,17-13.1c8,0.1,16,0.9,23.8,2.5l1.1-8.6
		c-7.9-2-16-3-24.2-3c-21,0-27.8,7.7-27.8,21.9c0,15.6,1.8,20.8,23.1,25.9c19.4,4.6,19.8,5.8,19.8,18c0,10.9-3.2,13.8-18.9,13.8
		c-7.6-0.1-15.2-1.3-22.6-3.5l-1.8,8.2c8,2.9,16.5,4.4,25,4.4c22.8,0,28.4-7.9,28.4-23.3C984,122.2,982.6,118.2,957.5,111.9z"/>
</g>
</svg>
